<?xml version="1.0" encoding="utf-8"?>
<!-- Generator: Adobe Illustrator 23.0.4, SVG Export Plug-In . SVG Version: 6.00 Build 0)  -->
<svg version="1.1" id="Layer_1" xmlns="http://www.w3.org/2000/svg" xmlns:xlink="http://www.w3.org/1999/xlink" x="0px" y="0px"
	 viewBox="0 0 250 250" style="enable-background:new 0 0 250 250;" xml:space="preserve">
<path class="st1" d="M220.7,109V78.5c0-15.1-12.2-27.3-27.3-27.3H57c-15.1,0-27.3,12.2-27.3,27.3V109c-11.1,1.7-19.2,11.2-19.3,22.3
	v36.8c0,1.2,1,2.2,2.2,2.2c0,0,0,0,0,0H24v22.9c0,1.2,1,2.2,2.2,2.2h0h17.1c1.2,0,2.2-1,2.2-2.2l0,0v-22.9H205v22.9
	c0,1.2,1,2.2,2.2,2.2c0,0,0,0,0,0h17.2c1.2,0,2.2-1,2.2-2.1c0,0,0,0,0,0v-22.9h11.3c1.2,0,2.2-1,2.2-2.2c0,0,0,0,0,0v-36.8
	C240,120.2,231.8,110.7,220.7,109z M34,78.5c0-12.7,10.3-23,23-23h136.3c12.7,0,23,10.3,23,23v30.1h-24.2V79.8
	c0-0.7-0.3-1.4-0.9-1.8c-0.6-0.4-1.3-0.5-2-0.3c-16.4,5.6-34.2,5.6-50.7,0c-1.1-0.4-2.4,0.2-2.7,1.4c-0.1,0.2-0.1,0.4-0.1,0.7v28.9
	h-21.3V79.8c0-0.7-0.3-1.4-0.9-1.8c-0.6-0.4-1.3-0.5-2-0.3c-16.4,5.6-34.2,5.6-50.7,0c-1.1-0.4-2.4,0.2-2.7,1.4
	c-0.1,0.2-0.1,0.4-0.1,0.7v28.9H34V78.5z M187.9,108.7h-47.7V82.8c15.6,4.7,32.2,4.7,47.7,0V108.7z M110.2,108.7H62.5V82.8
	c15.6,4.7,32.2,4.7,47.7,0V108.7z M33.1,113h184.2c10.1,0,18.3,8.2,18.3,18.3v21.5H14.9v-21.5C14.9,121.3,23,113.1,33.1,113z
	 M41.1,191.1H28.3v-20.8h12.7V191.1z M222.1,191.1h-12.7v-20.8h12.7V191.1z M224.3,165.9H14.9v-8.8h220.8v8.8L224.3,165.9z"/>
</svg>
