<?xml version="1.0" encoding="utf-8"?>
<!-- Generator: Adobe Illustrator 23.0.4, SVG Export Plug-In . SVG Version: 6.00 Build 0)  -->
<svg version="1.1" id="Layer_1" xmlns="http://www.w3.org/2000/svg" xmlns:xlink="http://www.w3.org/1999/xlink" x="0px" y="0px"
	 viewBox="0 0 250 250" style="enable-background:new 0 0 250 250;" xml:space="preserve">
<path class="st0" d="M224.6,127.2V40c0.2-8.5-4.6-16.4-12.3-20.1c-2.5-1.2-5.3-1.9-8.1-1.9c-2.8-0.1-5.6,0.5-8.2,1.7
	c-4.8,2.4-8.7,7-10.1,14.4h8.7c0.6-2.9,2.5-5.4,5.1-6.8c1.3-0.6,2.8-0.9,4.3-0.9c1.6,0,3.2,0.4,4.7,1.1c4.7,2.3,7.7,7.2,7.5,12.5
	v86.3h3.3C221.2,126.3,222.9,126.6,224.6,127.2L224.6,127.2z"/>
<path class="st0" d="M184.8,61.4c1.5,2.7,2.3,5.8,2.3,9c-0.1,1.1-0.5,2.2-1.1,3.1c-0.5,0.7-1.1,1.2-1.8,1.5
	c-2.5,1.2-5.6,0.1-6.8-2.4c-0.1-0.2-0.2-0.5-0.3-0.8c-0.3-1.1-0.5-2.3-0.3-3.4c0.4-2.6,1.2-5.1,2.4-7.4c0.8-1.5,2.7-2.1,4.2-1.3
	C184,60,184.6,60.6,184.8,61.4z"/>
<path class="st0" d="M204.1,46.4c0,3.5-2.8,6.3-6.3,6.3c-5.1,0-11.9,0.4-17,0c-3.4-0.3-6-3.3-5.7-6.8c0-0.1,0-0.2,0-0.3
	c0.3-3.3,1.7-6.5,3.8-9c1.2-1.6,3-2.5,5-2.5h11.2c3.3,0,5.1,2.2,6.8,4.8C203.2,41.2,204,43.8,204.1,46.4L204.1,46.4z"/>
<path class="st0" d="M192.9,85.7c1.1,2.2,1.8,4.6,2,7c0.3,2.3-0.8,4.6-2.8,5.8c-0.9,0.4-1.9,0.6-2.9,0.5c-0.6-0.1-1.2-0.2-1.7-0.5
	c-2.3-1.3-3.5-3.9-3-6.5c0.3-2.3,1-4.5,2-6.5c0.1-0.4,0.3-0.7,0.5-1.1c1-1.4,3-1.8,4.4-0.8c0.4,0.2,0.7,0.6,0.9,1
	C192.6,84.9,192.8,85.3,192.9,85.7L192.9,85.7z"/>
<path class="st0" d="M224.9,163.8c-1.6,6-3.6,11.8-6.1,17.5c-5.4,12.5-12.9,24-22.1,34.1l0,0c-1.2,1.3-2.9,2-4.6,2H188v8.1
	c0,2.3-1.9,4.2-4.2,4.2h-17.4c-2.3,0-4.2-1.9-4.2-4.2v-8.1H85.5v8.1c0,2.3-1.9,4.2-4.2,4.2c0,0,0,0,0,0H64c-2.3,0-4.2-1.9-4.2-4.2
	v-8.1h-1.9c-1.9,0-3.7-0.9-4.9-2.3c-9.1-10-16.5-21.4-21.8-33.8c-2.4-5.7-4.5-11.5-6.1-17.5c1.7,0.8,3.6,1.2,5.5,1.2h8
	c1.2,3.8,2.6,7.6,4.2,11.3c4.4,10.4,10.5,20,17.9,28.5h128.7c7.4-8.5,13.5-18.1,17.9-28.5c1.6-3.7,3-7.4,4.2-11.3h8
	C221.3,164.9,223.2,164.5,224.9,163.8L224.9,163.8z M179.4,217.5h-8.8v3.8h8.8V217.5z M77,217.5h-8.8v3.8H77V217.5z"/>
<path class="st0" d="M21.3,161.4c2.5,2.3,5.8,3.5,9.1,3.5h189.1c7.4-0.1,13.4-6.1,13.5-13.5v-11.6c-0.8-7.5-5.4-13.5-13.5-13.5H30.4
	c-7.4,0.1-13.4,6.1-13.5,13.5v11.7c0,3.5,1.4,6.9,3.8,9.4C20.9,161.1,21.1,161.3,21.3,161.4z M30.4,139h189.1c0.4,0,0.8,0.4,0.8,0.8
	v11.7c0,0.4-0.4,0.8-0.8,0.8H30.4c-0.4,0-0.8-0.4-0.8-0.8v-11.7C29.6,139.4,30,139,30.4,139z"/>
<path class="st0" d="M200.4,61.4c1.5,2.7,2.3,5.8,2.3,9c-0.1,1.1-0.5,2.2-1.1,3.1c-0.5,0.7-1.1,1.2-1.8,1.5
	c-2.6,1.2-5.6,0.1-6.8-2.4c-0.1-0.2-0.2-0.5-0.3-0.7c-0.4-1.1-0.5-2.3-0.3-3.4c0.4-2.6,1.2-5.1,2.4-7.4c0.8-1.5,2.6-2.1,4.2-1.4
	C199.5,60,200.1,60.6,200.4,61.4z"/>
<path class="st0" d="M170.5,85c-1.5,2.7-2.3,5.8-2.3,9c0.1,1.1,0.5,2.2,1.1,3.1c0.5,0.7,1.1,1.2,1.8,1.6c2.6,1.2,5.6,0.1,6.8-2.4
	c0.1-0.2,0.2-0.5,0.3-0.7c0.4-1.1,0.5-2.3,0.3-3.4c-0.4-2.6-1.1-5-2.4-7.3c-0.8-1.5-2.6-2.1-4.2-1.4C171.4,83.7,170.8,84.3,170.5,85
	L170.5,85z"/>
<path class="st0" d="M207.8,85c1.5,2.7,2.3,5.8,2.3,9c-0.1,1.1-0.5,2.2-1.1,3.1c-0.5,0.7-1.1,1.2-1.8,1.6c-2.6,1.2-5.6,0.1-6.8-2.4
	c-0.1-0.2-0.2-0.5-0.3-0.7c-0.4-1.1-0.5-2.3-0.3-3.4c0.4-2.6,1.1-5,2.4-7.3c0.8-1.5,2.6-2.1,4.2-1.4C207,83.7,207.6,84.3,207.8,85
	L207.8,85z"/>
</svg>
