<svg style="display:none" xmlns="http://www.w3.org/2000/svg">

    <symbol id="svg-pencil" viewBox="0 0 140 140">
        <path fill="currentColor" d="M133.23,33.35c-.27-3.43-1.87-9.67-8.89-16.69S111.08,8,107.65,7.77a5.37,5.37,0,0,0-4.26,1.57l-7,7,28.28,28.27,7-7A5.37,5.37,0,0,0,133.23,33.35Z"/>
        <path fill="currentColor" d="M42.38,113.11a2.09,2.09,0,0,0-.61,1.39l-.14,3.25-17.27,5a14.11,14.11,0,0,0-2.53-3.6,13.37,13.37,0,0,0-3.6-2.52l5-17.28,3.25-.14a2.13,2.13,0,0,0,1.4-.61L99.07,27.45l-6.89-6.9L19.85,92.88a8.22,8.22,0,0,0-2.13,3.66L8.84,129.12a2.43,2.43,0,0,0,.64,2.4,2.48,2.48,0,0,0,2.4.65l32.57-8.89a8.29,8.29,0,0,0,3.68-2.13l72.32-72.32-6.9-6.9Z"/>
        <path fill="currentColor" d="M33.78,109.27l3.55.16a2.12,2.12,0,0,0,1.58-.62L109.62,38.1l-6.71-6.71L32.19,102.1a2.12,2.12,0,0,0-.61,1.58l.15,3.55A2.13,2.13,0,0,0,33.78,109.27Z"/>
    </symbol>

    <symbol id="svg-bell" viewBox="0 0 140 140">
        <path fill="currentColor" d="M108.81,76.67V56.78a39.8,39.8,0,0,0-26.7-37.57,13.27,13.27,0,1,0-26.15,0,39.8,39.8,0,0,0-26.7,37.57V76.67c0,9.26-.32,23.38-13.26,34.8v5H122.07v-5C109.13,100.05,108.81,85.93,108.81,76.67Z"/>
        <path fill="currentColor" d="M69,121.42H54.45a14.59,14.59,0,0,0,29.17,0Z"/>
    </symbol>

    <symbol id="svg-area" viewBox="0 0 140 140">
        <path fill="currentColor" d="M88.08,99.94v18h-66v-66h18v-6h-24a6,6,0,0,0-6,6v72a6,6,0,0,0,6,6h72a6,6,0,0,0,6-6v-24Z"/>
        <path fill="currentColor" d="M124.08,9.94h-72a6,6,0,0,0-6,6v24h6v-18h66v66h-18v6h24a6,6,0,0,0,6-6v-72A6,6,0,0,0,124.08,9.94Z"/>
        <path fill="currentColor" d="M49.08,45.94v48h42v-48Zm6,42v-36h30v36Z"/>
    </symbol>

    <symbol id="svg-heart" viewBox="0 0 140 140">
        <path fill="currentColor" d="M117.82,18.06a38,38,0,0,0-47.64,9.06A38.05,38.05,0,0,0,2.81,51.41,37.41,37.41,0,0,0,4.7,63.12c6.52,29.36,65.48,66.37,65.48,66.37s58.89-37,65.43-66.37a37.41,37.41,0,0,0,1.89-11.71,38.09,38.09,0,0,0-19.68-33.35Zm0,0"/>
    </symbol>

    <symbol id="svg-calendar" viewBox="0 0 140 140">
        <rect fill="currentColor" x="63.6" y="61.92" width="12.8" height="12.92"/>
        <rect fill="currentColor" x="84.08" y="61.92" width="12.8" height="12.92"/>
        <rect fill="currentColor" x="104.56" y="61.92" width="12.8" height="12.92"/>
        <rect fill="currentColor" x="63.6" y="82.6" width="12.8" height="12.92"/>
        <rect fill="currentColor" x="84.08" y="82.6" width="12.8" height="12.92"/>
        <rect fill="currentColor" x="104.56" y="82.6" width="12.8" height="12.92"/>
        <rect fill="currentColor" x="22.64" y="82.6" width="12.8" height="12.92"/>
        <rect fill="currentColor" x="43.12" y="82.6" width="12.8" height="12.92"/>
        <rect fill="currentColor" x="63.6" y="103.28" width="12.8" height="12.92"/>
        <rect fill="currentColor" x="84.08" y="103.28" width="12.8" height="12.92"/>
        <rect fill="currentColor" x="22.64" y="103.28" width="12.8" height="12.92"/>
        <rect fill="currentColor" x="43.12" y="103.28" width="12.8" height="12.92"/>
        <path fill="currentColor" d="M32.88,32.2a7.08,7.08,0,0,1-7-7.11v-11a7,7,0,1,1,14.08,0v11A7.08,7.08,0,0,1,32.88,32.2Z"/>
        <path fill="currentColor" d="M114.16,14.11v11a7,7,0,1,1-14.08,0v-11a7,7,0,1,1,14.08,0Z"/>
        <path fill="currentColor" d="M114.16,14.11v11a7,7,0,1,1-14.08,0v-11a7,7,0,1,1,14.08,0Z"/>
        <path fill="currentColor" d="M127.6,19.6H117.36v5.49a10.29,10.29,0,0,1-10.24,10.34h0A10.29,10.29,0,0,1,96.88,25.09V19.6H43.12v5.49A10.29,10.29,0,0,1,32.88,35.43h0A10.29,10.29,0,0,1,22.64,25.09V19.6H12.4A6.43,6.43,0,0,0,6,26.06V126.54A6.43,6.43,0,0,0,12.4,133H127.6a6.43,6.43,0,0,0,6.4-6.46V26.06A6.43,6.43,0,0,0,127.6,19.6ZM125,124H15V54.17H125Z"/>
    </symbol>

    <symbol id="svg-bath" viewBox="0 0 140 140">
        <path fill="currentColor" d="M115,112.31l3.08,4.64a6.1,6.1,0,1,1-7.45,5.94A6,6,0,0,1,111,121l-3.37-5a23.46,23.46,0,0,1-6.18.89H38.59a23.48,23.48,0,0,1-6.19-.89L29,121a6,6,0,0,1,.35,1.94A6.1,6.1,0,1,1,21.92,117L25,112.31C20.51,109,9.06,100.5,9.06,84.21H130.94C130.94,100.5,119.49,109,115,112.31Zm16-44.38H118.75V31.29A16.27,16.27,0,0,0,102.5,15a16,16,0,0,0-6.68,1.47l-.06-.06a12.52,12.52,0,0,0-12.64.64,2.09,2.09,0,0,0-.32,3.22L97.25,34.75a2.1,2.1,0,0,0,1.68.6,2.06,2.06,0,0,0,1.53-.92,12.58,12.58,0,0,0,1.11-11.6c.31,0,.61-.09.93-.09a8.14,8.14,0,0,1,8.12,8.14V67.93H9.06A4.07,4.07,0,0,0,5,72v4.07a4.07,4.07,0,0,0,4.06,4.07H130.94A4.07,4.07,0,0,0,135,76.07V72A4.07,4.07,0,0,0,130.94,67.93ZM80.16,31.29a2,2,0,1,0-2-2A2,2,0,0,0,80.16,31.29Zm10.15,6.1a2,2,0,1,0-2,2A2,2,0,0,0,90.31,37.39ZM72,35.36a2,2,0,1,0-2-2A2,2,0,0,0,72,35.36ZM84.22,47.57a2,2,0,1,0-2-2A2,2,0,0,0,84.22,47.57ZM63.91,39.43a2,2,0,1,0-2-2A2,2,0,0,0,63.91,39.43ZM80.16,51.64a2,2,0,1,0,2,2A2,2,0,0,0,80.16,51.64ZM76.09,43.5a2,2,0,1,0-2-2A2,2,0,0,0,76.09,43.5ZM68,51.64a2,2,0,1,0-2-2A2,2,0,0,0,68,51.64Z"/>
    </symbol>

    <symbol id="svg-beds" viewBox="0 0 140 140">
        <path fill="currentColor" d="M127.2,83H136v30.12a4.94,4.94,0,0,1-4.95,4.93h-3.3a4.94,4.94,0,0,1-5-4.93V100.48H17.2v12.59A4.94,4.94,0,0,1,12.25,118H9A4.94,4.94,0,0,1,4,113.07V30.93A4.94,4.94,0,0,1,9,26h3.3a4.94,4.94,0,0,1,4.95,4.93V83h110Zm-11-35.05h-55a8.78,8.78,0,0,0-8.8,8.77v21.9H136V67.62A19.76,19.76,0,0,0,116.2,47.9ZM48,65.43A13.2,13.2,0,1,0,34.8,78.57,13.17,13.17,0,0,0,48,65.43Z"/>
    </symbol>

    <symbol id="svg-person" viewBox="0 0 250 250">
        <path fill="currentColor" d="M218.3,237.1H237c0-61.9-50.1-112-112-112s-112,50.1-112,112h18.7c0-51.5,41.9-93.3,93.3-93.3
        	S218.3,185.6,218.3,237.1z"/>
        <path fill="currentColor" d="M125,140c36.1,0,65.3-29.3,65.3-65.3S161.1,9.4,125,9.4S59.7,38.6,59.7,74.7S88.9,140,125,140z M125,26.9
        	c26.4,0,47.8,21.5,47.8,47.8c0,26.4-21.5,47.8-47.8,47.8s-47.8-21.5-47.8-47.8C77.2,48.3,98.6,26.9,125,26.9z"/>
    </symbol>

    <symbol id="svg-tag-euro" viewBox="0 0 250 250">
        <g>
        	<path fill="currentColor" d="M13,153.2l86.6,86.6L229,110.4V23.8h-86.6L13,153.2z M220.1,32.7v74L99.6,227.2l-74-74L146.1,32.7H220.1z"/>
        	<path fill="currentColor" d="M187,81.7c11.3,1.1,20.7-8.3,19.6-19.6c-0.8-8.3-7.6-15.1-15.9-15.9c-11.3-1.1-20.7,8.3-19.6,19.6
        		C171.9,74.1,178.7,80.8,187,81.7z M187.3,55.1c6.1-1,11.3,4.2,10.3,10.3c-0.6,3.7-3.6,6.7-7.3,7.3c-6.1,1-11.3-4.2-10.3-10.3
        		C180.7,58.7,183.6,55.7,187.3,55.1z"/>
        </g>
        <g>
        	<path fill="currentColor" d="M124.9,173c-4.9,0-9.8-0.9-14.5-2.7c-4.7-1.8-8.8-4.4-12.2-7.8c-3.8-3.8-6.6-8.1-8.4-12.8
        		c-1.8-4.7-2.5-9.6-2.1-14.5c0.4-4.9,1.8-9.6,4.3-13.9l-6.7-6.7l4.2-4.2l6,6c0.9-1.1,1.6-1.9,2.2-2.5c0.7-0.7,1.2-1.1,1.5-1.4
        		l-5.9-5.9l4.2-4.2l6.5,6.5c4.4-2.7,9.1-4.2,14.1-4.6c5.1-0.4,10,0.3,15,2.1c4.9,1.8,9.4,4.7,13.3,8.7c3.4,3.4,6,7.3,7.9,11.9
        		c1.9,4.6,2.8,9.2,2.8,13.8l-11.9,1.3c0.2-3.6-0.3-7.1-1.5-10.4c-1.2-3.4-2.9-6.2-5.2-8.5c-3.4-3.4-7.4-5.5-12-6.4
        		c-4.6-0.8-8.9-0.3-13,1.6l17.2,17.2l-4.2,4.2l-18.1-18.1c-0.4,0.3-0.8,0.7-1.4,1.3c-0.9,0.9-1.6,1.8-2.3,2.7l18,18l-4.2,4.2
        		L101.8,131c-1.5,4-1.8,8.1-0.8,12.3c0.9,4.2,3,7.9,6.2,11.1c2.2,2.2,5,4,8.2,5.3c3.2,1.3,6.6,1.9,10.1,2L124.9,173z"/>
        </g>
    </symbol>

    <symbol id="svg-tag-gbp" viewBox="0 0 250 250">
        <path fill="currentColor" d="M594.3,237.1H613c0-61.9-50.1-112-112-112s-112,50.1-112,112h18.7c0-51.5,41.9-93.3,93.3-93.3
        	S594.3,185.6,594.3,237.1z"/>
        <path fill="currentColor" d="M501,140c36.1,0,65.3-29.3,65.3-65.3S537.1,9.4,501,9.4s-65.3,29.3-65.3,65.3S464.9,140,501,140z M501,26.9
        	c26.4,0,47.8,21.5,47.8,47.8c0,26.4-21.5,47.8-47.8,47.8s-47.8-21.5-47.8-47.8C453.2,48.3,474.6,26.9,501,26.9z"/>
        <path fill="currentColor" d="M269.6-115.2c32.9,32.9,86.3,32.9,119.2,0c32.9-32.9,32.9-86.3,0-119.2c-32.9-32.9-86.3-32.9-119.2,0
        	C236.8-201.5,236.8-148,269.6-115.2z M282.3-221.7c25.9-25.9,67.9-25.9,93.8,0c25.9,25.9,25.9,67.9,0,93.8
        	c-25.9,25.9-67.9,25.9-93.8,0C256.5-153.7,256.5-195.8,282.3-221.7z"/>
        <path fill="currentColor" d="M394.2-121.5l2.9-3.5l59,59c3.8,3.8,2.9,10.8-2.4,16.1c-5.3,5.3-12.6,6.5-16.4,2.7l-59-59l3.8-3.2
        	C386.5-113.2,390.6-117.2,394.2-121.5z"/>
        <polyline fill="currentColor" points="354.9,-177 354.9,-147 338.2,-147 338.2,-168.3 322.9,-168.3 322.9,-147 306.2,-147 306.2,-177 "/>
        <polyline fill="currentColor" points="298.5,-177 330.5,-209 362.5,-177 "/>
        <polyline fill="currentColor" points="317,-203.4 306.2,-203.4 306.2,-193 "/>
        <g>
        	<path fill="currentColor" d="M13,153.2l86.6,86.6L229,110.4V23.8h-86.6L13,153.2z M220.1,32.7v74L99.6,227.2l-74-74L146.1,32.7H220.1z"/>
        	<path fill="currentColor" d="M187,81.7c11.3,1.1,20.7-8.3,19.6-19.6c-0.8-8.3-7.6-15.1-15.9-15.9c-11.3-1.1-20.7,8.3-19.6,19.6
        		C171.9,74.1,178.7,80.8,187,81.7z M187.3,55.1c6.1-1,11.3,4.2,10.3,10.3c-0.6,3.7-3.6,6.7-7.3,7.3c-6.1,1-11.3-4.2-10.3-10.3
        		C180.7,58.7,183.6,55.7,187.3,55.1z"/>
        </g>
        <g>
        	<path fill="currentColor" d="M101.4,147l20.4,21.2l-8.4,8.1L77,138.5l8.4-8.1l6,6.3l16.2-15.6l-6-6.3l4.8-4.6l6,6.3l7.7-7.4
        		c5.6-5.4,11.3-8,17.2-8c5.9,0,11.4,2.8,16.7,8.2c2.9,3,5,6.4,6.4,10.2c1.4,3.8,1.9,7.8,1.7,12l-11.9,3.7c0.5-7-1-12.3-4.5-16
        		c-2.4-2.5-4.9-3.7-7.6-3.6c-2.7,0.1-5.4,1.4-8.2,4.1l-7.5,7.2l13,13.5l-4.8,4.6l-13-13.5L101.4,147z"/>
        </g>
    </symbol>

    <symbol id="svg-area-v2" viewBox="0 0 250 250">
        <path fill="currentColor" d="M20.7,84.5h-9.4V14.1h70.5v9.4H20.7V84.5z M166.5,14.1v9.4h61.1v61h9.4V14.1H166.5z M227.6,230.3h-61.1v9.4H237
        	v-70.5h-9.4V230.3z M20.7,169.2h-9.4v70.5h70.5v-9.4H20.7V169.2z M194.7,63v31h9.4v-47h-47v9.4h31L53.6,190.8v-31h-9.4v47h47v-9.4
        	h-31L194.7,63z"/>
    </symbol>

    <symbol id="svg-beds-v2" viewBox="0 0 250 250">
        <path fill="currentColor" d="M220.7,109V78.5c0-15.1-12.2-27.3-27.3-27.3H57c-15.1,0-27.3,12.2-27.3,27.3V109c-11.1,1.7-19.2,11.2-19.3,22.3
        	v36.8c0,1.2,1,2.2,2.2,2.2c0,0,0,0,0,0H24v22.9c0,1.2,1,2.2,2.2,2.2h0h17.1c1.2,0,2.2-1,2.2-2.2l0,0v-22.9H205v22.9
        	c0,1.2,1,2.2,2.2,2.2c0,0,0,0,0,0h17.2c1.2,0,2.2-1,2.2-2.1c0,0,0,0,0,0v-22.9h11.3c1.2,0,2.2-1,2.2-2.2c0,0,0,0,0,0v-36.8
        	C240,120.2,231.8,110.7,220.7,109z M34,78.5c0-12.7,10.3-23,23-23h136.3c12.7,0,23,10.3,23,23v30.1h-24.2V79.8
        	c0-0.7-0.3-1.4-0.9-1.8c-0.6-0.4-1.3-0.5-2-0.3c-16.4,5.6-34.2,5.6-50.7,0c-1.1-0.4-2.4,0.2-2.7,1.4c-0.1,0.2-0.1,0.4-0.1,0.7v28.9
        	h-21.3V79.8c0-0.7-0.3-1.4-0.9-1.8c-0.6-0.4-1.3-0.5-2-0.3c-16.4,5.6-34.2,5.6-50.7,0c-1.1-0.4-2.4,0.2-2.7,1.4
        	c-0.1,0.2-0.1,0.4-0.1,0.7v28.9H34V78.5z M187.9,108.7h-47.7V82.8c15.6,4.7,32.2,4.7,47.7,0V108.7z M110.2,108.7H62.5V82.8
        	c15.6,4.7,32.2,4.7,47.7,0V108.7z M33.1,113h184.2c10.1,0,18.3,8.2,18.3,18.3v21.5H14.9v-21.5C14.9,121.3,23,113.1,33.1,113z
        	 M41.1,191.1H28.3v-20.8h12.7V191.1z M222.1,191.1h-12.7v-20.8h12.7V191.1z M224.3,165.9H14.9v-8.8h220.8v8.8L224.3,165.9z"/>
    </symbol>

    <symbol id="svg-baths-v2" viewBox="0 0 250 250">
        <path fill="currentColor" d="M224.6,127.2V40c0.2-8.5-4.6-16.4-12.3-20.1c-2.5-1.2-5.3-1.9-8.1-1.9c-2.8-0.1-5.6,0.5-8.2,1.7
        	c-4.8,2.4-8.7,7-10.1,14.4h8.7c0.6-2.9,2.5-5.4,5.1-6.8c1.3-0.6,2.8-0.9,4.3-0.9c1.6,0,3.2,0.4,4.7,1.1c4.7,2.3,7.7,7.2,7.5,12.5
        	v86.3h3.3C221.2,126.3,222.9,126.6,224.6,127.2L224.6,127.2z"/>
        <path fill="currentColor" d="M184.8,61.4c1.5,2.7,2.3,5.8,2.3,9c-0.1,1.1-0.5,2.2-1.1,3.1c-0.5,0.7-1.1,1.2-1.8,1.5
        	c-2.5,1.2-5.6,0.1-6.8-2.4c-0.1-0.2-0.2-0.5-0.3-0.8c-0.3-1.1-0.5-2.3-0.3-3.4c0.4-2.6,1.2-5.1,2.4-7.4c0.8-1.5,2.7-2.1,4.2-1.3
        	C184,60,184.6,60.6,184.8,61.4z"/>
        <path fill="currentColor" d="M204.1,46.4c0,3.5-2.8,6.3-6.3,6.3c-5.1,0-11.9,0.4-17,0c-3.4-0.3-6-3.3-5.7-6.8c0-0.1,0-0.2,0-0.3
        	c0.3-3.3,1.7-6.5,3.8-9c1.2-1.6,3-2.5,5-2.5h11.2c3.3,0,5.1,2.2,6.8,4.8C203.2,41.2,204,43.8,204.1,46.4L204.1,46.4z"/>
        <path fill="currentColor" d="M192.9,85.7c1.1,2.2,1.8,4.6,2,7c0.3,2.3-0.8,4.6-2.8,5.8c-0.9,0.4-1.9,0.6-2.9,0.5c-0.6-0.1-1.2-0.2-1.7-0.5
        	c-2.3-1.3-3.5-3.9-3-6.5c0.3-2.3,1-4.5,2-6.5c0.1-0.4,0.3-0.7,0.5-1.1c1-1.4,3-1.8,4.4-0.8c0.4,0.2,0.7,0.6,0.9,1
        	C192.6,84.9,192.8,85.3,192.9,85.7L192.9,85.7z"/>
        <path fill="currentColor" d="M224.9,163.8c-1.6,6-3.6,11.8-6.1,17.5c-5.4,12.5-12.9,24-22.1,34.1l0,0c-1.2,1.3-2.9,2-4.6,2H188v8.1
        	c0,2.3-1.9,4.2-4.2,4.2h-17.4c-2.3,0-4.2-1.9-4.2-4.2v-8.1H85.5v8.1c0,2.3-1.9,4.2-4.2,4.2c0,0,0,0,0,0H64c-2.3,0-4.2-1.9-4.2-4.2
        	v-8.1h-1.9c-1.9,0-3.7-0.9-4.9-2.3c-9.1-10-16.5-21.4-21.8-33.8c-2.4-5.7-4.5-11.5-6.1-17.5c1.7,0.8,3.6,1.2,5.5,1.2h8
        	c1.2,3.8,2.6,7.6,4.2,11.3c4.4,10.4,10.5,20,17.9,28.5h128.7c7.4-8.5,13.5-18.1,17.9-28.5c1.6-3.7,3-7.4,4.2-11.3h8
        	C221.3,164.9,223.2,164.5,224.9,163.8L224.9,163.8z M179.4,217.5h-8.8v3.8h8.8V217.5z M77,217.5h-8.8v3.8H77V217.5z"/>
        <path fill="currentColor" d="M21.3,161.4c2.5,2.3,5.8,3.5,9.1,3.5h189.1c7.4-0.1,13.4-6.1,13.5-13.5v-11.6c-0.8-7.5-5.4-13.5-13.5-13.5H30.4
        	c-7.4,0.1-13.4,6.1-13.5,13.5v11.7c0,3.5,1.4,6.9,3.8,9.4C20.9,161.1,21.1,161.3,21.3,161.4z M30.4,139h189.1c0.4,0,0.8,0.4,0.8,0.8
        	v11.7c0,0.4-0.4,0.8-0.8,0.8H30.4c-0.4,0-0.8-0.4-0.8-0.8v-11.7C29.6,139.4,30,139,30.4,139z"/>
        <path fill="currentColor" d="M200.4,61.4c1.5,2.7,2.3,5.8,2.3,9c-0.1,1.1-0.5,2.2-1.1,3.1c-0.5,0.7-1.1,1.2-1.8,1.5
        	c-2.6,1.2-5.6,0.1-6.8-2.4c-0.1-0.2-0.2-0.5-0.3-0.7c-0.4-1.1-0.5-2.3-0.3-3.4c0.4-2.6,1.2-5.1,2.4-7.4c0.8-1.5,2.6-2.1,4.2-1.4
        	C199.5,60,200.1,60.6,200.4,61.4z"/>
        <path fill="currentColor" d="M170.5,85c-1.5,2.7-2.3,5.8-2.3,9c0.1,1.1,0.5,2.2,1.1,3.1c0.5,0.7,1.1,1.2,1.8,1.6c2.6,1.2,5.6,0.1,6.8-2.4
        	c0.1-0.2,0.2-0.5,0.3-0.7c0.4-1.1,0.5-2.3,0.3-3.4c-0.4-2.6-1.1-5-2.4-7.3c-0.8-1.5-2.6-2.1-4.2-1.4C171.4,83.7,170.8,84.3,170.5,85
        	L170.5,85z"/>
        <path fill="currentColor" d="M207.8,85c1.5,2.7,2.3,5.8,2.3,9c-0.1,1.1-0.5,2.2-1.1,3.1c-0.5,0.7-1.1,1.2-1.8,1.6c-2.6,1.2-5.6,0.1-6.8-2.4
        	c-0.1-0.2-0.2-0.5-0.3-0.7c-0.4-1.1-0.5-2.3-0.3-3.4c0.4-2.6,1.1-5,2.4-7.3c0.8-1.5,2.6-2.1,4.2-1.4C207,83.7,207.6,84.3,207.8,85
        	L207.8,85z"/>
    </symbol>

    <symbol id="svg-key" viewBox="0 0 250 250">
        <path fill="currentColor" d="M66.1,80c7.7,0.3,17.7,1.7,17.7,1.7c3.8,8.6,17.1,16.5,20.1,19c8,6.6,24.2,7.8,30.5,12.5
    		c9,6.8,16.4,14.8,28,15c13.6,0.2,14.8-9,13.3-14c-1.3-4.6-2.6-9.7-12.6-14.8c-6.7-3.4-14.6-6.2-18.3-14.1c-2-4.5-3.6-9-2.9-12.9
    		c1.2-6.5,7.9-7.4,11.4-6.9c5.7,0.8,21.1,16.5,24.9,20c-1,3.4-3.9,10-4.1,16c-0.4,16.3,7.4,27.4,12.8,27.4c9.7,0,8.8-11.8,10.8-20.9
    		c1.5-6.7,8.4-32.2,6-36.2c-2.4-4-26.6-32.6-33.2-34.6c-6.6-2-46.2-15.3-60.9-15.3c-14.7,0-43.6,0-43.6,0"/>
    	<rect x="37" y="17" fill="currentColor" width="29.1" height="72.7"/>
    	<path fill="currentColor" d="M172.7,143c-13.4,0-24.2,10.9-24.2,24.2c0,9.9,6,18.4,14.5,22.2v6.9l4.8,4.8l-4.8,4.8v9.7l4.8,4.8l-4.8,4.8
    		V240h9.7l9.7-9.7v-40.8c8.6-3.7,14.5-12.3,14.5-22.2C197,153.9,186.1,143,172.7,143z"/>
    	<path fill="currentColor" d="M143.7,149.8c-6.2,0-12.4,2.4-17.1,7.1c-7,7-8.8,17.3-5.4,26l-16.2,16.2v7l-9.7,2.7l-9.8,9.8l6.9,6.9h12.6
    		l29.1-29.1c6,2.4,13.2,2.3,19.4-0.2"/>
    	<line fill="currentColor" x1="172.7" y1="162.4" x2="172.7" y2="123.7"/>
    </symbol>

    <symbol id="svg-marker-v2" viewBox="0 0 140 140">
        <path fill="currentColor" d="M25,49.49C25,60.69,29.37,70.55,35.23,79,44.84,92.87,70,137,70,137s25.16-44.13,34.77-58C110.63,70.55,115,60.69,115,49.49,115,23.81,94.85,3,70,3S25,23.81,25,49.49Zm20.45-3.6a24.55,24.55,0,1,1,49.1,0,24.56,24.56,0,1,1-49.1,0Z"/>
    </symbol>

    <symbol id="svg-globe" viewBox="0 0 140 140">
        <path fill="currentColor" d="M105.46,102.43c1.91-1.63,2.32-5.62,2.53-8C101.36,94.06,103.58,103.92,105.46,102.43Z"/>
        <path fill="currentColor" d="M108,94.44Z"/>
        <path fill="currentColor" d="M69.71,8.48a61.71,61.71,0,1,0,61.71,61.71A61.78,61.78,0,0,0,69.71,8.48ZM13,70.19a56.14,56.14,0,0,1,2.89-17.81c.1-.3.21-.6.31-.89-.33,7-1.35,13.67,2.28,20.48a1.17,1.17,0,0,0,.68-1.71c3.18,4.17,7.39,9.66,12.42,11.86.52.23,3.58.61,3.45.32,1.61,3.46-3.19,6.17-1,9.64,3.94,6.18,6.09,7.83,6.4,15.27.15,2.17.25,4.31.5,6.48a40.3,40.3,0,0,0,1,5.53A56.35,56.35,0,0,1,13,70.19ZM124.38,81.76a56.29,56.29,0,0,1-79.11,39.36c-2.73-6.64,9.64-17.65,12.21-22.12,4.8-8.36-5.62-13.07-11.73-17.24-4.77-3.25-6.83-1.08-11.51-.1-3.77.78-1.73-6.71-3.51-8.35a10.35,10.35,0,0,1-3.87,1.06c-1.95-.62-1.89-3.32-.83-4.72,4.07-5.41,6.32,2.41,9.33,2,.58-3.11,4.76-5.92,4.76-8.94,2.08-1.91,8-2.63,9-5.18-.14,0-2.23-.6-2.07-1.1.23-.94,3-.83,3.88-1.15-1,1.92-.1,3.67,2.5,2.06-2.07-2.54-.31-11.55-5.69-9.82a3.33,3.33,0,0,0,.16-2.66c2.16.39,3-1.58,2.46-3.39q1.14,2.89,2.64.13c-1.12-1.74-1.76-3.73-2.8-5.5a7.62,7.62,0,0,0-4.75-3.69A11.08,11.08,0,0,0,48,31.75,3.09,3.09,0,0,0,46,30.26c2.62-.44,5.54-2.63,8.12-2.63-.15.08-2.71,1.76-1.83,2.57-1.43,3.28,1.87.74,2.45,2.29,1.81,4.85-.18,12.8,4.87,15.78,1.88-3.3,5.7-4.45,8.67-6.45,3.33-2.26,3.53-5.06,4.14-8.74.2-1.57,1.15-3.74,2.74-4.38-6.34-2.1-14.2-4.61-20.92-4.61-5-2.19-9.85,2.31-14.67.12-.07,2,2.26,4.49,3,6.29-.58,0-3.58-4.55-4-2.57.15-.8-1.74-1.69-3.76-2.28.13-.09.25-.2.37-.29s.23-.17.34-.26a56.23,56.23,0,0,1,68,.48l.49.38,1,.78h0A58,58,0,0,1,111.54,33c-2,1.08-3.79,1.82-4.33,5.13-5.91-1.33-4.24-4.21-.27-7.1-3.62-1.43-8.28,4.26-4.09,6.63,5.27,3-5.13,0-4.53,4.36-2.8-2.21-9.4-3-12.27-.28-3.65,3.52-1.44,10.48-5.62,13.5,0-1.62.08-4.91-1.87-5.67-3.08-1.19-2.79,3.59-4.84,5.09.86,1,3.45,1.69,4.74,1.69A2.08,2.08,0,0,0,78,58.88c.64,1.52-7.81,5.39-1.65,7.25-6.56,2.14-8.87,14.12-2.7,17.73,2.76,1.62,5.68,1,8.62,1.72,4.61,1.14,5,7.77,5.2,11.54.57,8.44,2.77,16.26,9.77,6.77,1.85-2.5,2.32-5.16,3.72-7.91,2.56-5,7.14-9.85,7.62-15.71a7.83,7.83,0,0,1-4.74-.09c4.91-1.7,7.19-3.08,7.19-8.48C117.29,71.7,121.61,76.6,124.38,81.76Z"/>
        <path fill="currentColor" d="M133.72,83.33l-.09-.07C133.56,83.42,134.42,83.83,133.72,83.33Z"/>
    </symbol>

    <symbol id="svg-headphones" viewBox="0 0 140 140">
        <path fill="currentColor" d="M98.66,86.4V99.81a1.64,1.64,0,0,1-3.28,0V67.88a1.64,1.64,0,0,1,3.28,0V86.4Zm13.51-9.59a2.7,2.7,0,0,1,2.7-2.7.67.67,0,0,1,.67.67V92.91a.67.67,0,0,1-.67.67,2.7,2.7,0,0,1-2.7-2.7V76.81Zm-77-10.56a1.64,1.64,0,0,1,1.64,1.63V99.81a1.64,1.64,0,0,1-3.28,0V67.88a1.62,1.62,0,0,1,.73-1.36,1.65,1.65,0,0,1,.91-.27ZM20,90.88a2.7,2.7,0,0,1-2.7,2.7.67.67,0,0,1-.67-.67V74.78a.67.67,0,0,1,.67-.67,2.7,2.7,0,0,1,2.7,2.7V90.88Zm58.11-78.1a4.84,4.84,0,0,0-4.8-4.21H58.86a4.84,4.84,0,0,0-4.8,4.21A37,37,0,0,0,29.14,47.71v14h-1.4a5.28,5.28,0,0,0-5.25,4.7.67.67,0,0,1-.67.59H19.25a4,4,0,0,0-4,4V96.66a4,4,0,0,0,4,4h2.57a.67.67,0,0,1,.67.59,5.28,5.28,0,0,0,5.25,4.7h7.74a6,6,0,0,0,6-6V67.68a6,6,0,0,0-6-6H34.25v-14A31.89,31.89,0,0,1,55.87,17.56a4.79,4.79,0,0,0,3,1H73.32a4.81,4.81,0,0,0,3-1A31.9,31.9,0,0,1,97.92,47.71v14H96.7a6,6,0,0,0-6,6V100a6,6,0,0,0,6,6h7.73a5.28,5.28,0,0,0,5.26-4.7.67.67,0,0,1,.67-.59h2.56a4,4,0,0,0,4-4v-5h1.83a2.51,2.51,0,0,0,2.51-2.51V86.23A8.6,8.6,0,0,1,127,94.34v13.39a8.57,8.57,0,0,1-6.67,8.39L73,127H73a3.87,3.87,0,0,0-3.65-2.58H59a3.87,3.87,0,0,0,0,7.74H69.3a3.82,3.82,0,0,0,2.45-.88A12.65,12.65,0,0,0,74,131l47.31-10.91a12.64,12.64,0,0,0,9.84-12.38V94.34A12.73,12.73,0,0,0,121.29,82V78.26a2.5,2.5,0,0,0-2.51-2.5H117V71a4,4,0,0,0-4-4h-2.56a.67.67,0,0,1-.67-.59,5.28,5.28,0,0,0-5.26-4.7H103v-14A37,37,0,0,0,78.12,12.78Z"/>
    </symbol>

    <symbol id="svg-hub" viewBox="0 0 140 140">
        <path fill="currentColor" d="M128.14,90.65a15.85,15.85,0,0,0-15.27-11.73,15.87,15.87,0,0,0-10.82,4.3L89.58,76a20.58,20.58,0,0,0,0-12l12.48-7.2a15.79,15.79,0,1,0-4.6-7.92L85,56.07a20.47,20.47,0,0,0-10.4-6V35.65a15.82,15.82,0,1,0-9.16,0v14.4a20.47,20.47,0,0,0-10.4,6L42.54,48.86a15.82,15.82,0,0,0-29.1-11.52A15.82,15.82,0,0,0,27.13,61.08,15.87,15.87,0,0,0,38,56.78L50.42,64a20.37,20.37,0,0,0,0,12L38,83.22A15.77,15.77,0,0,0,19.23,81a15.82,15.82,0,1,0,23.31,10.1L55,83.93a20.47,20.47,0,0,0,10.4,6v14.4a15.82,15.82,0,1,0,9.16,0V90a20.47,20.47,0,0,0,10.4-6l12.48,7.21a15.82,15.82,0,0,0,29.1,11.52A15.67,15.67,0,0,0,128.14,90.65ZM109.52,39.48a6.67,6.67,0,1,1-2.44,9.11A6.66,6.66,0,0,1,109.52,39.48Zm-76.6,9.11A6.66,6.66,0,0,1,23.8,51,6.62,6.62,0,0,1,20.7,47a6.54,6.54,0,0,1,.67-5.06,6.67,6.67,0,1,1,11.55,6.67Zm-2.44,51.93a6.66,6.66,0,0,1-9.12-2.44A6.68,6.68,0,0,1,23.8,89a6.67,6.67,0,1,1,6.68,11.55Zm32.85-80A6.67,6.67,0,1,1,70,27.18,6.67,6.67,0,0,1,63.33,20.51Zm13.34,99A6.67,6.67,0,1,1,70,112.82,6.67,6.67,0,0,1,76.67,119.49ZM70,81.33A11.33,11.33,0,1,1,81.33,70,11.34,11.34,0,0,1,70,81.33Zm48.64,16.75a6.71,6.71,0,0,1-5.79,3.34,6.59,6.59,0,0,1-3.32-.9A6.67,6.67,0,1,1,119.3,93,6.58,6.58,0,0,1,118.64,98.08Z"/>
    </symbol>

    <symbol id="svg-industrial" viewBox="0 0 140 140">
        <path fill="currentColor" d="M33.9,14.35A26,26,0,0,1,60,43.78L73,55.31l-13.35,15c-4.06-3.61-9.13-2.87-12.91.77l-6.13-5.47A26,26,0,0,1,8.35,43L11,40.06,25.27,52.8,42,47.28,45.57,30,31.27,17.29l2.63-2.94Zm54.47,54.7L101,80.34a26,26,0,0,1,32.22,22.59l-2.62,2.94L116.34,93.13,99.61,98.65,96,115.9l14.29,12.74-2.62,3a26,26,0,0,1-26.13-29.43l-5.85-5.22C78.91,92.77,79.19,87.75,75,84l13.36-15Z"/>
        <path fill="currentColor" d="M55.63,74.05,71.74,88.41A3.25,3.25,0,0,1,72,92.87L46.44,126.35c-4.07,5.33-12.21,5.45-17.21,1l-7.42-6.61c-5-4.46-5.82-12.56-1-17.21L51.17,74.3a3.26,3.26,0,0,1,4.46-.25ZM96.56,37,62.67,75l7.27,6.49,33.89-38c1.51-.38,6.84.44,7.82-.94l10.72-15.12a1.38,1.38,0,0,0-.1-1.85l-10-8.94a1.37,1.37,0,0,0-1.84.11L96.59,29.16c-1.25,1.13.17,6.34,0,7.88ZM54.81,79.29l1.77,1.58a3,3,0,0,0-2.63.84L27.62,107.06a9.89,9.89,0,0,0-1.86,11.19c-3.78-3.84-4.26-10.3-.35-14.07L51,79.5a2.76,2.76,0,0,1,3.77-.21Z"/>
    </symbol>

    <symbol id="svg-laptop" viewBox="0 0 140 140">
        <path fill="currentColor" d="M133.1,98.46H83.34a5.11,5.11,0,0,1-5.11,5.11H62.92a5.1,5.1,0,0,1-5.1-5.11H8.05a1.28,1.28,0,0,0-1.28,1.28h0a11.48,11.48,0,0,0,11.49,11.48H122.9a11.48,11.48,0,0,0,11.48-11.48h0A1.28,1.28,0,0,0,133.1,98.46Z"/>
        <path fill="currentColor" d="M120.34,21.9H20.81a2.55,2.55,0,0,0-2.55,2.55V90.81a2.55,2.55,0,0,0,2.55,2.55h99.53a2.56,2.56,0,0,0,2.56-2.55V24.45A2.56,2.56,0,0,0,120.34,21.9ZM70.58,23.81a1.92,1.92,0,1,1-1.92,1.92A1.92,1.92,0,0,1,70.58,23.81ZM115.24,85.7H25.91V29.56h89.33Z"/>
    </symbol>

    <symbol id="svg-legal" viewBox="0 0 140 140">
        <polygon fill="currentColor" points="116.97 32.8 103.69 41.3 124.73 74.61 138 66.11 116.97 32.8"/>
        <path fill="currentColor" d="M48.3,92.91,49.6,91a3.74,3.74,0,0,0-1.05-5.25,3.67,3.67,0,0,0-2-.6,3.75,3.75,0,0,0-3.11,1.63l-3.79,5.54-.09.18C38.12,94.56,36.47,97,35.07,99c-.06.09-.14.16-.21.25l-1,1.42a3.78,3.78,0,0,0,.94,5.18,3.77,3.77,0,0,0,5.27-1l.66-1a6.45,6.45,0,0,1,.31-.58L48.2,93Z"/>
        <path fill="currentColor" d="M99.06,49.23a5.7,5.7,0,0,1-3.29.29L85.59,47.38a41.61,41.61,0,0,0-16.19-.19L59.82,49a10,10,0,0,0-6.09,3.73L45.57,63.32a2.51,2.51,0,0,0,.48,3.54,2.54,2.54,0,0,0,2.69.23L66.07,58a5.71,5.71,0,0,1,5.72.27l37.3,24.17a8.43,8.43,0,0,1,1.14.91l10.2-9.64-16.67-26.4Z"/>
        <path fill="currentColor" d="M61.71,103.57a3,3,0,0,0-1.93-.7l-.43,0A3,3,0,0,0,57.44,104l-3.93,5.7a3,3,0,0,0,5.29,3l3.47-5A3.06,3.06,0,0,0,61.71,103.57Z"/>
        <path fill="currentColor" d="M54.84,102.19,57,99.07a3.76,3.76,0,0,0-.74-5,3.67,3.67,0,0,0-2.34-.84,3.39,3.39,0,0,0-.55,0A3.69,3.69,0,0,0,50.9,94.7l-7.55,11.08A3.72,3.72,0,0,0,45,110.6a3.75,3.75,0,0,0,4.87-1.17l1.06-1.55c.1-.17.17-.35.29-.52l3.47-5A1.46,1.46,0,0,1,54.84,102.19Z"/>
        <path fill="currentColor" d="M107.37,85.12,70.08,60.94a2.54,2.54,0,0,0-2.54-.12L50.2,69.89a5.71,5.71,0,0,1-6.06-.51,5.67,5.67,0,0,1-1.07-8l7-9.13-7.45-1.18a6,6,0,0,1-1.73-.57l-5-2.62L19.91,73.13l8.58,11.3A6.86,6.86,0,0,1,40.14,86l.66-1a7,7,0,0,1,9.47-1.89,6.88,6.88,0,0,1,3,4.43,7.11,7.11,0,0,1,0,2.56,6.84,6.84,0,0,1,4.94,1.48,6.94,6.94,0,0,1,2,8.16,6.22,6.22,0,0,1,4.66,9.75l-1.38,2,10.43,1.6a11.16,11.16,0,0,0,8.7-2.35L71.3,105a1.58,1.58,0,1,1,1.43-2.82l12.21,6.2a4.66,4.66,0,0,0,6-1.65,3,3,0,0,0,.59-2.42,2.91,2.91,0,0,0-1.36-2l-2.82-1.72L76,94.36a1.58,1.58,0,1,1,1.51-2.77l15.77,8.59A5.11,5.11,0,0,0,100,98.51a3.11,3.11,0,0,0-1-4.38l-1.14-.68L80.87,83.31A1.58,1.58,0,1,1,82.5,80.6l16.13,9.66h0l.8.47,3.24,1.94a4.45,4.45,0,0,0,4.7-7.55Z"/><path fill="currentColor" d="M37.46,87.91a3.61,3.61,0,0,0-1.66-2.35,3.71,3.71,0,0,0-2-.57,3.66,3.66,0,0,0-3,1.55L26.31,93a3.67,3.67,0,0,0,.88,5.08l.14.1a3.63,3.63,0,0,0,4.92-.67l4.75-7A3.55,3.55,0,0,0,37.46,87.91Z"/>
        <rect fill="currentColor" x="-1.16" y="47.04" width="39.4" height="15.55" transform="translate(-37.71 41.23) rotate(-57.73)"/>
    </symbol>

    <symbol id="svg-money" viewBox="0 0 140 140">
        <path fill="currentColor" d="M110.82,40.26H7.13v64.87H132.87V40.26ZM126,83.09a18.92,18.92,0,0,0-15.16,15.15H29.18A18.92,18.92,0,0,0,14,83.09V62.31A18.93,18.93,0,0,0,29.18,47.15h81.64A18.93,18.93,0,0,0,126,62.31Z"/>
        <path fill="currentColor" d="M104.45,68.39a4.31,4.31,0,1,0,4.31,4.31A4.31,4.31,0,0,0,104.45,68.39Z"/>
        <path fill="currentColor" d="M35.55,68.39a4.31,4.31,0,1,0,4.31,4.31A4.31,4.31,0,0,0,35.55,68.39Z"/>
        <path fill="currentColor" d="M70,49.17A23.53,23.53,0,1,0,93.53,72.7,23.53,23.53,0,0,0,70,49.17Z"/>
    </symbol>

    <symbol id="svg-house-man" viewBox="0 0 140 140">
        <path fill="currentColor" d="M42.46,28.23,35,28.2l0,13.16-9.06,7.36A1.5,1.5,0,0,0,25.74,51l3.05,3.18a1.86,1.86,0,0,0,2.44.14L52.72,36.82,74.1,54.42a1.85,1.85,0,0,0,2.44-.13l3.08-3.15a1.51,1.51,0,0,0-.14-2.25L54.06,28a1.82,1.82,0,0,0-1.31-.39,1.8,1.8,0,0,0-1.31.38l-9,7.32,0-7Zm79.19,9.37C130,38.34,134,41,135,49.06l-.08,27.84c0,2.13-2.18,3.86-4.31,3.86S126.3,79,126.3,76.9l.08-24.58c0-3.67-.71-5.77-4.23-5.9h-.5v62.64c0,8.67-3.8,18.91-7.58,18.9s-7.59-10.28-7.59-18.9V37.6Zm-8.21-16h1.74c3.71,0,6.75,4.35,6.75,7.05v4.54H106.69V28.62c0-2.71,3-7,6.75-7ZM7.56,10.55H97.8L97.37,128,8,127.91,7.56,10.55Zm82.1,8.14h-74l.43,100,73.1-.26.43-99.71ZM79.94,94.76H25.42V87.33H79.94v7.43Zm0,12.83H25.42v-7.43H79.94v7.43ZM33,56.19,33,80.3l14.21,0V60.79h11v19.6l14.09,0,.08-24.11-16.58-14a4.19,4.19,0,0,0-3-.92,4.25,4.25,0,0,0-3,.9L33,56.19Z"/>
    </symbol>

    <symbol id="svg-new-dev" viewBox="0 0 140 140">
        <path fill="currentColor" d="M100.68,10.24h10.86a2,2,0,0,1,1.95,1.95V42.61L98.74,27.86V12.19a2,2,0,0,1,1.94-1.95ZM72.93,10l.94.94,61.52,61.52a4.54,4.54,0,0,1,0,6.4l-.94.94a4.54,4.54,0,0,1-6.4,0L69.73,21.43,11.41,79.76a4.54,4.54,0,0,1-6.4,0l-.94-.94a4.54,4.54,0,0,1,0-6.4L65.59,10.9l.94-.94a4.54,4.54,0,0,1,6.4,0Zm45.34,68.67v48.42a2.74,2.74,0,0,1-2.73,2.73H23.91a2.74,2.74,0,0,1-2.73-2.73V78.63L69.73,30.08l48.54,48.55ZM54.79,78H84.66a2.94,2.94,0,0,1,2.94,2.94v24.76a2.94,2.94,0,0,1-2.94,2.94H54.79a3,3,0,0,1-2.94-2.94V80.93A3,3,0,0,1,54.79,78Z"/>
    </symbol>

    <symbol id="svg-nolargegroups" viewBox="0 0 140 140">
        <path fill="currentColor" d="M90.15,51.35c-3.29,11.4-12.23,19.71-20.73,20.12-8.53-.41-17.5-8.77-20.76-20.22l-1.61.25a3.37,3.37,0,0,1-3.82-2.8L41.66,38.57a3.34,3.34,0,0,1,2.79-3.81l1.14-.18a16.44,16.44,0,0,1-.79-5V25.81A16.65,16.65,0,0,1,61.4,9.22h2a2,2,0,0,1,.12-.89c1-2.69,7.83-2.61,15.2.19a36.83,36.83,0,0,1,4.37,2A16.65,16.65,0,0,1,93.31,25.81v3.74a16.44,16.44,0,0,1-.79,5l1.15.18a3.35,3.35,0,0,1,2.79,3.81L94.88,48.7a3.36,3.36,0,0,1-3.82,2.8l-.91-.15ZM86.44,115.9h17.94v3.88H86.44V115.9ZM69.5,82.46l7.71.22-4.37,8.67,5.39,41.56H60.77l5.39-41.56-4.37-8.67,7.71-.22ZM15,132.91l-3-30.27V99.79c0-6.33,6.41-10,11.75-11.07,4.89-1,19-5,24.93-9l.36-.06,9.85,53.29Zm109,0H80.11L90,79.62l.36.06c5.91,4.09,20,8,24.92,9C120.59,89.81,127,93.47,127,99.79v2.85l-3,30.27Z"/>
    </symbol>

    <symbol id="svg-padlock" viewBox="0 0 140 140">
        <path fill="currentColor" d="M107.22,58.5h0V44.18A37.68,37.68,0,0,0,69.55,6.5h-1.1A37.68,37.68,0,0,0,30.77,44.18V58.5h0a10.77,10.77,0,0,0-6.63,9.94v54.92a10.77,10.77,0,0,0,10.77,10.77h68.18a10.77,10.77,0,0,0,10.77-10.77V68.44A10.76,10.76,0,0,0,107.22,58.5Zm-72.59-.82h0ZM32,58.07Zm.25-.06h0Zm.26-.07h0Zm.26,0h0Zm.25,0h0Zm.27,0h0Zm.26,0h0Zm.27,0h0Zm.27,0h0Zm.27,0h0ZM75.24,96.42v10.85a6.24,6.24,0,1,1-12.48,0V96.42a10.14,10.14,0,1,1,12.48,0ZM43.33,57.67V44.18A25.15,25.15,0,0,1,68.45,19.06h1.1A25.15,25.15,0,0,1,94.67,44.18V57.67Zm60,0h0Zm2.63.39h0Zm-.25-.06h0Zm-.26-.07h0Zm-.26,0h0Zm-.26,0h0Zm-.26,0h0Zm-.26,0h0Zm-.27,0h0Zm-.27,0h0Zm-.27,0h0Z"/>
    </symbol>

    <symbol id="svg-paperclip" viewBox="0 0 140 140">
        <path fill="currentColor" d="M96,34.65a3.82,3.82,0,0,0-3.83,3.89l-.07,65.35c0,14.7-10,21.27-19.18,21.21s-19.16-6.85-19.13-21.51c0-11.24.07-56.26.1-78.77,0-5.16,2-9.19,5.64-11.3a11.66,11.66,0,0,1,11.74.1c3.62,2.18,5.6,6.24,5.6,11.4l-.1,75.32a9.35,9.35,0,0,1-1.57,5.73,3,3,0,0,1-2.32,1.28c-1.88,0-3.82-2.45-3.79-7,0,0,.07-55.79.1-57.93a3.83,3.83,0,1,0-7.65,0l-.1,57.94c0,9.73,5.77,14.86,11.48,14.93a10.4,10.4,0,0,0,8.25-4.16,17.1,17.1,0,0,0,3.25-10.67l.1-75.32c0-8-3.42-14.62-9.42-18.21a19.27,19.27,0,0,0-19.43-.17c-6,3.52-9.46,10.1-9.49,18.08,0,22.48-.07,67.5-.1,78.77,0,19.19,13.45,29.32,26.77,29.46a26.27,26.27,0,0,0,18.89-7.75c4.76-4.87,8-12,8-21.27l0-65.39A3.76,3.76,0,0,0,96,34.65Z"/>
    </symbol>

    <symbol id="svg-piggyback" viewBox="0 0 140 140">
        <path fill="currentColor" d="M20.71,55.61l.19.21a21.58,21.58,0,0,0-3.12,11,22.16,22.16,0,0,0,4.69,13.35l5.54,21a3.61,3.61,0,0,0,3.61,3.61h6a3.61,3.61,0,0,0,3.61-3.61V93.34a66.27,66.27,0,0,0,23.47,4.1A70.65,70.65,0,0,0,72.49,97s4.06,8.38,6.05,8.38h6a3.62,3.62,0,0,0,3.61-3.63V93.65a36.42,36.42,0,0,0,13.53-4c4.75-2.21,6.63-7.17,8.88-8.69,2.53-1.67,8.46-1.69,8.46-1.69,2,0,4.48-11.55,3.19-12.89-1.14-1.18-7.43-2.07-9.09-3.16-4.38-2.87-6.67-11.62-12.56-16.19a1.5,1.5,0,0,0,0-.2,20.22,20.22,0,0,1,.49-2.15c.12-.35.23-.71.34-1.06s.3-.68.44-1,.32-.68.5-1,.36-.68.58-1l.62-.93c.22-.3.45-.58.68-.86.44-.58,1-1.06,1.39-1.54a7,7,0,0,1,.68-.65l.63-.58c.4-.38.77-.66,1.07-.91.62-.5,1-.77,1-.77s-.46,0-1.25.06c-.4,0-.9,0-1.48.11l-.88.11c-.33,0-.67.08-1,.15a20.24,20.24,0,0,0-2.28.51c-.41.11-.85.23-1.27.36l-1.3.49a13.36,13.36,0,0,0-1.37.58c-.44.21-.92.44-1.35.7s-.92.53-1.36.82-.89.61-1.33.94a27.52,27.52,0,0,0-2.48,2.1l-.29.28A65.4,65.4,0,0,0,64.71,36.2c-17.13,0-32.11,6-40.3,14.93l-.14-.05a10.77,10.77,0,0,1-1.17-.52c-.19-.1-.38-.22-.57-.34a4.17,4.17,0,0,1-.56-.37A8.75,8.75,0,0,1,20.91,49,10.54,10.54,0,0,1,20,48a10.24,10.24,0,0,1-.7-1.11l-.24-.57L19,46c0-.09-.06-.18-.08-.26s-.1-.37-.15-.53a3.43,3.43,0,0,1-.09-.49,6.13,6.13,0,0,1-.1-.83v-.75l-.35.67a5.3,5.3,0,0,0-.33.83,2.84,2.84,0,0,0-.16.54c-.05.19-.09.39-.14.61s-.05.23-.06.33,0,.25,0,.35,0,.5,0,.76a10.55,10.55,0,0,0,.11,1.65,11.62,11.62,0,0,0,.39,1.76,14.79,14.79,0,0,0,.7,1.77,8.6,8.6,0,0,0,.45.85c.16.28.32.56.49.83A17.3,17.3,0,0,0,20.71,55.61Zm74.68,3.21a2.71,2.71,0,1,1,2.71,2.71A2.71,2.71,0,0,1,95.39,58.82ZM41.13,45.3c10.66-5.5,21.63-6.55,30.08-2.87a1.81,1.81,0,0,1-1.45,3.32c-7.34-3.22-17.42-2.18-27,2.77a1.88,1.88,0,0,1-.83.2,1.81,1.81,0,0,1-.83-3.42Z"/>
    </symbol>

    <symbol id="svg-pool" viewBox="0 0 140 140">
        <path fill="currentColor" d="M31.84,93a2.39,2.39,0,0,1-2.38-2.39V30.21a12.19,12.19,0,1,1,24.38,0v1.46a2.39,2.39,0,1,1-4.77,0V30.21a7.42,7.42,0,1,0-14.84,0V90.62A2.39,2.39,0,0,1,31.84,93Z"/>
        <path fill="currentColor" d="M82.74,93a2.39,2.39,0,0,1-2.39-2.39V30.21a12.2,12.2,0,1,1,24.39,0v1.46a2.39,2.39,0,1,1-4.77,0V30.21a7.42,7.42,0,1,0-14.84,0V90.62A2.39,2.39,0,0,1,82.74,93Z"/>
        <path fill="currentColor" d="M82.74,44.51H31.84a2.39,2.39,0,0,1,0-4.77h50.9a2.39,2.39,0,1,1,0,4.77Z"/>
        <path fill="currentColor" d="M82.74,60.82H31.84a2.39,2.39,0,0,1,0-4.78h50.9a2.39,2.39,0,1,1,0,4.78Z"/>
        <path fill="currentColor" d="M82.74,77.12H31.84a2.39,2.39,0,0,1,0-4.78h50.9a2.39,2.39,0,0,1,0,4.78Z"/>
        <path fill="currentColor" d="M95.48,100.1a17.3,17.3,0,0,1-12.73-5.57,17.32,17.32,0,0,1-25.45,0,17.33,17.33,0,0,1-25.46,0A17.33,17.33,0,0,1,4.37,91.89a2.39,2.39,0,1,1,4-2.54,12.58,12.58,0,0,0,21.41,0,2.38,2.38,0,0,1,2-1.12h0a2.37,2.37,0,0,1,2,1.12,12.59,12.59,0,0,0,21.42,0,2.37,2.37,0,0,1,2-1.12h0a2.38,2.38,0,0,1,2,1.12,12.58,12.58,0,0,0,21.41,0,2.47,2.47,0,0,1,4,0,12.59,12.59,0,0,0,21.42,0,2.38,2.38,0,0,1,3.29-.76,2.4,2.4,0,0,1,.75,3.3A17.34,17.34,0,0,1,95.48,100.1Z"/>
        <path fill="currentColor" d="M120.89,122a17.28,17.28,0,0,1-12.73-5.57,17.33,17.33,0,0,1-25.46,0,17.32,17.32,0,0,1-25.45,0,17.34,17.34,0,0,1-27.48-2.65,2.39,2.39,0,1,1,4-2.54,12.58,12.58,0,0,0,21.42,0,2.38,2.38,0,0,1,2-1.12h0a2.41,2.41,0,0,1,2,1.12,12.57,12.57,0,0,0,21.41,0,2.48,2.48,0,0,1,4,0,12.58,12.58,0,0,0,21.42,0,2.48,2.48,0,0,1,4,0,12.57,12.57,0,0,0,21.41,0,2.39,2.39,0,0,1,4,2.54A17.31,17.31,0,0,1,120.89,122Z"/>
    </symbol>

    <symbol id="svg-public-realm" viewBox="0 0 140 140">
        <path fill="currentColor" d="M115,88.87C109.2,86.39,89.43,83.1,85.72,79a17.71,17.71,0,0,1-4.07-9c-3.51,3.86-7.49,6.33-11.19,6.33S62.79,73.82,59.28,70a17.71,17.71,0,0,1-4.07,9C51.5,83.1,31.73,86.39,26,88.87s-7.41,29.65-7.41,29.65,23.08,14.83,51.91,14.83,51.92-14.83,51.92-14.83S120.73,91.34,115,88.87Z"/>
        <path fill="currentColor" d="M86.35,66l.45,3.21a12.51,12.51,0,0,0,2.74,6.21c1.44,1.26,7.24,3,12.18,4.28C99.93,71.46,98,60.4,98.21,51.31c.32-16.87,2-22.71-3.89-34.06C88.85,6.62,70.47,6.86,70.47,6.86S52.08,6.62,46.61,17.25C40.77,28.6,42.4,34.44,42.72,51.31,42.9,60.4,41,71.46,39.21,79.74c4.94-1.32,10.74-3,12.18-4.28a12.51,12.51,0,0,0,2.74-6.21l.73-5.3c-2.37-4-4.22-15-5.13-19.63,3.49-.68,15.72-3.51,20.14-10.38C75.05,42,91,44.49,91,44.49a49.86,49.86,0,0,1-3.52,13.83l-1.08,3.35"/>
    </symbol>

    <symbol id="svg-speach-bubbles" viewBox="0 0 708.66 708.66">
        <path fill="currentColor" d="M545.2,505.05c23.16-19.86,37.23-45.88,37.23-74.4,0-23-9.16-44.39-24.85-62.22A187.12,187.12,0,0,1,534.36,398c7.27,10,11.38,21.08,11.38,32.7,0,41.25-51.75,76.1-113,76.1-37.53,0-71.47-13.09-92.15-32.7l-1.1,0a314.16,314.16,0,0,1-46.79-3.48c21.41,42.57,76,72.84,140,72.84a192.39,192.39,0,0,0,58.36-8.88l83.57,41.72c4.51,2.26,6.36.41,4.1-4.1Z"/>
        <path fill="currentColor" d="M554.9,284.27c0-89.61-96.45-162.27-215.42-162.27S124.07,194.66,124.06,284.28c0,41,20.26,78.47,53.59,107L127.56,491.49c-2.26,4.52-.41,6.36,4.1,4.11L255.5,433.76a276.52,276.52,0,0,0,84,12.79C458.45,446.55,554.9,373.9,554.9,284.27ZM434.49,253.94a30.18,30.18,0,1,1-30.17,30.18A30.18,30.18,0,0,1,434.49,253.94ZM244.55,314.3a30.18,30.18,0,1,1,30.18-30.18A30.18,30.18,0,0,1,244.55,314.3Zm64.91-30.18a30.18,30.18,0,1,1,30.18,30.18A30.18,30.18,0,0,1,309.46,284.12Z"/>
    </symbol>

    <symbol id="svg-star" viewBox="0 0 140 140">
        <path fill="currentColor" d="M48.84,45.17,6.57,49.86A4,4,0,0,0,3.2,52.62,4,4,0,0,0,4.32,56.8C16.88,68.29,35.76,85.48,35.76,85.48s-5.18,25-8.61,41.7a4,4,0,0,0,1.57,4.06,4,4,0,0,0,4.31.23c14.8-8.42,37-21.08,37-21.08l36.94,21.09a4,4,0,0,0,5.9-4.29c-3.43-16.7-8.59-41.71-8.59-41.71s18.88-17.19,31.44-28.65a4.06,4.06,0,0,0,1.13-4.21,4,4,0,0,0-3.37-2.74c-16.92-1.9-42.28-4.71-42.28-4.71S80.65,21.89,73.65,6.36A4.06,4.06,0,0,0,70,4a4,4,0,0,0-3.63,2.36C59.34,21.89,48.84,45.17,48.84,45.17Z"/>
    </symbol>

    <symbol id="svg-terrace" viewBox="0 0 140 140">
        <path fill="currentColor" d="M40.44,53.42l2.9-2.9L43.22,45l-5.61,5.61a13.09,13.09,0,0,1-2.36-5.69h8l-.09-4H68.07A20,20,0,1,0,43.61,62.41L43.45,55A12.84,12.84,0,0,1,40.44,53.42ZM61,40.9H53l5.68-5.68A13,13,0,0,1,61,40.9ZM50.13,30a13.05,13.05,0,0,1,5.68,2.36l-5.68,5.69Zm-4,0v8l-5.69-5.69A13,13,0,0,1,46.13,30Zm-8.52,5.19L43.3,40.9h-8A13.1,13.1,0,0,1,37.61,35.22Zm54.22,1.05,19.35-20.19-5.05-4.85L85.39,32.87,83.11,43.63H45.76l2.18,84.49H96.67l2.19-84.49h-8.6Zm-21.2,78.78a3.11,3.11,0,1,1,3.11-3.11A3.11,3.11,0,0,1,70.63,115.05ZM68.48,90.66a5.26,5.26,0,1,1,5.26-5.26A5.27,5.27,0,0,1,68.48,90.66ZM53.42,69.14l-.48-18.51H81.62L77.69,69.14Zm30.13,32.52a4.55,4.55,0,1,1,4.54-4.55A4.55,4.55,0,0,1,83.55,101.66Zm8.12-51-.48,18.51H84.85l3.93-18.51Z"/>
    </symbol>

    <symbol id="svg-marker" viewBox="0 0 154 154">
        <style type="text/css">
        	.st0{fill:none;stroke:#2F3435;stroke-width:5.5;stroke-miterlimit:10;}
        </style>
        <path fill="currentColor" d="M31,54.6c0,12,4.7,22.5,10.9,31.5C52.2,100.9,79,148,79,148s26.8-47.1,37.1-61.9c6.3-9,10.9-19.5,10.9-31.5
        	C127,27.2,105.5,5,79,5S31,27.2,31,54.6z M52.8,50.8c0-14.5,11.7-26.2,26.2-26.2s26.2,11.7,26.2,26.2c0.4,14.5-11,26.5-25.5,26.9
        	s-26.5-11-26.9-25.5C52.8,51.8,52.8,51.3,52.8,50.8z"/>
    </symbol>

    <symbol id="svg-houselens" viewBox="0 0 250 250">
        <polyline fill="currentColor" points="132,99.2 132,139.5 109.4,139.5 109.4,110.8 88.9,110.8 88.9,139.5 66.3,139.5 66.3,99.2 "/>
        <polyline fill="currentColor" points="56.1,99.2 99.2,56.1 142.2,99.2 "/>
        <polyline fill="currentColor" points="80.9,63.6 66.3,63.6 66.3,77.6 "/>
        <rect x="140.9" y="180.1" transform="matrix(0.7071 0.7071 -0.7071 0.7071 192.2 -79.6118)" fill="currentColor" width="102.6" height="24.1"/>
        <circle fill="currentColor" cx="98.1" cy="98.1" r="85.1"/>
    </symbol>

    <symbol id="svg-house-v2" viewBox="0 0 250 250">
        <g>
        	<polyline fill="currentColor" points="83.2,70.8 83.2,42.2 54.8,42.2 54.8,99.2 	"/>
        	<polyline fill="currentColor" points="206.8,146.8 206.8,218 40.5,218 40.5,146.8 	"/>
        	<polygon fill="currentColor" points="126,28 21.5,132.5 40.5,151.5 126,66 211.5,151.5 230.5,132.5 	"/>
        	<rect x="73.8" y="146.8" fill="currentColor" width="38" height="71.2"/>
        	<rect x="130.8" y="146.8" fill="currentColor" width="47.5" height="38"/>
        	<line fill="currentColor" x1="12" y1="218" x2="240" y2="218"/>
        </g>
    </symbol>

    <symbol id="svg-map-v2" viewBox="0 0 250 250">
        <g>
            <polygon fill="currentColor" points="-364,-15 -364,-5 -374,-5 -374,5 -384,5 -384,15 -394,15 -394,26 -353,26 -353,-15 	"/>
        </g>
        <g>
            <line fill="currentColor" x1="-289" y1="-18" x2="-289" y2="-6"/>
            <line fill="currentColor" x1="-285" y1="-18" x2="-285" y2="-6"/>
            <path fill="currentColor" d="M-293-18v12c0,5.6,2,5.2,4,6l-1,24c0,1.7,1.3,3.1,3,3.1s3-1.4,3-3.1l-1-24c2-0.8,4-0.4,4-6v-12"/>
            <path fill="currentColor" d="M-307-8c0,3.4,0,16,0,16l3,2l-1,14c0,1.7,1.3,3,3,3s3-1.3,3-3v-41C-299-17-307-16.1-307-8z"/>
        </g>
        <g>
            <polygon fill="currentColor" points="-236,8 -236,25 -233,25 -231,22 -197,22 -195,25 -192,25 -192,8 	"/>
            <polyline fill="currentColor" points="-194,0 -194,-14 -214,-14 	"/>
            <polyline fill="currentColor" points="-234,0 -234,-14 -214,-14 	"/>
            <polyline fill="currentColor" points="-226,-5 -226,-5 -230,-5 -233,8 	"/>
            <polyline fill="currentColor" points="-195,8 -198,-5 -202,-5 	"/>
            <path fill="currentColor" d="M-214-4c0,1.1-0.9,2-2,2h-8c-1.1,0-2-0.9-2-2v-2c0-1.1,0.9-2,2-2h8c1.1,0,2,0.9,2,2V-4z"/>
            <path fill="currentColor" d="M-202-4c0,1.1-0.9,2-2,2h-8c-1.1,0-2-0.9-2-2v-2c0-1.1,0.9-2,2-2h8c1.1,0,2,0.9,2,2V-4z"/>
        </g>
        <g>
            <path fill="currentColor" d="M12,193.4c0-12.6,9.8-24.6,24.5-24.6V27C21.8,27,12,38.9,12,51.5V193.4z"/>
            <path fill="currentColor" d="M36.5,56.3H237v161.4H36.6C23,217.8,12,206.5,12,193.3"/>
            <polyline fill="currentColor" points="124.5,119.9 124.5,159.1 70.7,159.1 70.7,85.7 124.5,85.7 124.5,105.3 	"/>
            <polyline fill="currentColor" points="124.5,85.7 202.8,85.7 202.8,134.6 183.2,134.6 	"/>
            <polyline fill="currentColor" points="163.6,134.6 183.2,134.6 183.2,188.4 104.9,188.4 104.9,159.1 	"/>
            <line fill="currentColor" x1="149" y1="134.6" x2="124.5" y2="134.6"/>
        </g>
        <g>
            <path fill="currentColor" d="M-39,27h-29c-1.1,0-2-0.9-2-2v-40c0-1.1,0.9-2,2-2h29c1.1,0,2,0.9,2,2v40C-37,26.1-37.9,27-39,27z"/>
            <circle fill="currentColor" cx="-53.5" cy="9.5" r="10.5"/>
            <line fill="currentColor" x1="-70" y1="-7" x2="-37" y2="-7"/>
            <line fill="currentColor" x1="-66" y1="-12" x2="-63" y2="-12"/>
            <line fill="currentColor" x1="-61" y1="-12" x2="-58" y2="-12"/>
            <path fill="currentColor" d="M-64,9.7c2.9-1.3,6.4-2.4,10,0c4.2,2.8,8.7,0.5,11-1"/>
        </g>
        <g>
            <path fill="currentColor" d="M-34,102v-4c0-1.7-1.3-3-3-3h-36c-1.7,0-3,1.3-3,3v4H-34z"/>
            <path fill="currentColor" d="M-71,90c0-7.2,7.2-11,16-11c8.8,0,16,3.8,16,11h1c0.6,0,1,0.4,1,1v3c0,0.6-0.4,1-1,1h-34c-0.6,0-1-0.4-1-1v-3
                c0-0.6,0.4-1,1-1H-71z"/>
            <line fill="currentColor" x1="-55" y1="75" x2="-55" y2="79"/>
            <line fill="currentColor" x1="-58" y1="75" x2="-52" y2="75"/>
            <line fill="currentColor" x1="-43" y1="68" x2="-43" y2="76"/>
            <line fill="currentColor" x1="-40" y1="77" x2="-35" y2="72"/>
            <line fill="currentColor" x1="-39" y1="80" x2="-32" y2="80"/>
            <line fill="currentColor" x1="-71" y1="90" x2="-68" y2="90"/>
            <line fill="currentColor" x1="-45" y1="90" x2="-39" y2="90"/>
        </g>
        <g>
            <path fill="currentColor" d="M-147,86h-10v2c0,0,3,0.8,3,3v5c0,2.8,2.2,5,5,5h15h15c2.8,0,5-2.2,5-5v-5c0-2.2,3-3,3-3v-2h-26"/>
            <line fill="currentColor" x1="-149" y1="101" x2="-150" y2="105"/>
            <line fill="currentColor" x1="-119" y1="101" x2="-118" y2="105"/>
            <rect x="-147" y="83" fill="currentColor" width="10" height="12"/>
            <line fill="currentColor" x1="-121" y1="71" x2="-125" y2="71"/>
            <path fill="currentColor" d="M-123,71v-2c0-2.2,1.8-4,4-4h1c2.2,0,4,1.8,4,4v17"/>
            <line fill="currentColor" x1="-121" y1="74" x2="-121" y2="77"/>
            <line fill="currentColor" x1="-125" y1="74" x2="-125" y2="77"/>
            <line fill="currentColor" x1="-123" y1="79" x2="-123" y2="82"/>
            <line fill="currentColor" x1="-127" y1="79" x2="-127" y2="82"/>
            <line fill="currentColor" x1="-119" y1="79" x2="-119" y2="82"/>
        </g>
        <g>
            <polyline fill="currentColor" points="-201,99 -201,105 -218,105 -218,92 -226,92 -226,105 -233,105 -233,83 	"/>
            <polyline fill="currentColor" points="-237,87 -215,65 -205,75 	"/>
            <polyline fill="currentColor" points="-224,74 -224,66 -229,66 -229,79 	"/>
            <circle fill="currentColor" cx="-204.5" cy="87.5" r="9.5"/>
            <line fill="currentColor" x1="-199" y1="95" x2="-191" y2="103"/>
        </g>
        <g>
            <path fill="currentColor" d="M-285.5,76c2,0,3.5-1.5,3.5-3.4v-1.1c0-1.9-1.5-3.4-3.5-3.4c-2,0-3.5,1.5-3.5,3.4v1.1
                C-289,74.5-287.5,76-285.5,76z"/>
            <path fill="currentColor" d="M-282,104v-9c0-0.9,0.3-1.4,0.7-2c0.6-0.9,1.3-1.9,1.3-4v-5c0-4.5-1.8-5-3.4-5c-0.4,0-0.9,0-2.6,0
                s-1.1,0-1.6,0c-1.6,0-3.4,0.5-3.4,5v5c0,2.1,0.7,3.1,1.3,4c0.4,0.6,0.7,1.1,0.7,2v9"/>
            <polyline fill="currentColor" points="-298,73 -302,69 -306,73 	"/>
            <line fill="currentColor" x1="-302" y1="69" x2="-302" y2="79"/>
            <polyline fill="currentColor" points="-298,88 -302,92 -306,88 	"/>
            <line fill="currentColor" x1="-302" y1="92" x2="-302" y2="82"/>
            <rect x="-313" y="63" fill="currentColor" width="38" height="44"/>
            <line fill="currentColor" x1="-316" y1="63" x2="-313" y2="63"/>
            <line fill="currentColor" x1="-275" y1="63" x2="-272" y2="63"/>
            <line fill="currentColor" x1="-316" y1="107" x2="-313" y2="107"/>
            <line fill="currentColor" x1="-275" y1="107" x2="-272" y2="107"/>
        </g>
        <g>
            <polygon fill="currentColor" points="-381,73 -381,64 -354,64 -354,98 -364,98 -364,106 -394,106 -394,73 	"/>
            <path fill="currentColor" d="M-383,88L-383,88c0-1.7,1.4-3,3-3l0,0c1.6,0,3,1.3,3,3l0,0v6"/>
            <path fill="currentColor" d="M-377,88L-377,88c0-1.7,1.4-3,3-3l0,0c1.6,0,3,1.3,3,3l0,0v6"/>
            <line fill="currentColor" x1="-383" y1="94" x2="-383" y2="84"/>
            <path fill="currentColor" d="M-364,81v2h-5v-1c3-3,4.1-3.6,4.6-4.6c0.4-0.8,0.7-3-1-3.5c-1.4-0.5-3.1-0.1-3.6,1.8 M-368.6,81.9"/>
        </g>
        <g>
            <path fill="currentColor" d="M-357.3,173.8l-4.2-3.3c-0.9-0.7-2.2-0.7-3.1,0.2l-1.6,1.6c-0.9,0.9-2.2,1-3.1,0.2l-2.4-2
                c-0.9-0.8-2.2-0.7-3,0.1l-1.8,1.7c-0.9,0.9-2.2,0.9-3.1,0.1l-2.2-1.9c-0.9-0.8-2.1-0.8-3,0l-2,1.8c-0.9,0.8-2.2,0.8-3.1,0l-1.9-1.8
                c-0.9-0.8-2.1-0.8-3-0.1l-2.2,1.9"/>
            <path fill="currentColor" d="M-351,179.5l-2.4-2c-0.9-0.8-2.2-0.7-3,0.1l-1.8,1.7c-0.9,0.9-2.2,0.9-3.1,0.1l-2.2-1.9c-0.9-0.8-2.1-0.8-3,0
                l-2,1.8c-0.9,0.8-2.2,0.8-3.1,0l-1.9-1.8c-0.9-0.8-2.1-0.8-3-0.1l-2.2,1.9c-0.9,0.8-2.2,0.7-3.1-0.1l-1.7-1.7
                c-0.9-0.9-2.1-0.9-3-0.2l-4.1,3.3"/>
            <path fill="currentColor" d="M-376,154c0-1.7-1.3-3-3-3c-1.7,0-3,1.3-3,3v17"/>
            <path fill="currentColor" d="M-365,154c0-1.7-1.3-3-3-3c-1.7,0-3,1.3-3,3v17"/>
            <line fill="currentColor" x1="-382" y1="159" x2="-373" y2="159"/>
            <line fill="currentColor" x1="-382" y1="165" x2="-373" y2="165"/>
        </g>
        <g>
            <path fill="currentColor" d="M10.1,376c7.7,0.3,17.7,1.7,17.7,1.7c3.8,8.6,17.1,16.5,20.1,19c8,6.6,24.2,7.8,30.5,12.5
                c9,6.8,16.4,14.8,28,15c13.6,0.2,14.8-9,13.3-14c-1.3-4.6-2.6-9.7-12.6-14.8c-6.7-3.4-14.6-6.2-18.3-14.1c-2-4.5-3.6-9-2.9-12.9
                c1.2-6.5,7.9-7.4,11.4-6.9c5.7,0.8,21.1,16.5,24.9,20c-1,3.4-3.9,10-4.1,16c-0.4,16.3,7.4,27.4,12.8,27.4c9.7,0,8.8-11.8,10.8-20.9
                c1.5-6.7,8.4-32.2,6-36.2c-2.4-4-26.6-32.6-33.2-34.6c-6.6-2-46.2-15.3-60.9-15.3c-14.7,0-43.6,0-43.6,0"/>
            <rect x="-19" y="313" fill="currentColor" width="29.1" height="72.7"/>
            <path fill="currentColor" d="M116.7,439c-13.4,0-24.2,10.9-24.2,24.2c0,9.9,6,18.4,14.5,22.2v6.9l4.8,4.8l-4.8,4.8v9.7l4.8,4.8l-4.8,4.8
                V536h9.7l9.7-9.7v-40.8c8.6-3.7,14.5-12.3,14.5-22.2C141,449.9,130.1,439,116.7,439z"/>
            <path fill="currentColor" d="M87.7,445.8c-6.2,0-12.4,2.4-17.1,7.1c-7,7-8.8,17.3-5.4,26l-16.2,16.2v7l-9.7,2.7l-9.8,9.8l6.9,6.9h12.6
                L78,492.4c6,2.4,13.2,2.3,19.4-0.2"/>
            <line fill="currentColor" x1="116.7" y1="458.4" x2="116.7" y2="419.7"/>
        </g>
        <g>
            <line fill="currentColor" x1="-230" y1="156" x2="-215" y2="156"/>
            <path fill="currentColor" d="M-235,182c0-2.6,2-5,5-5v-27c-3,0-5,2.4-5,5V182z"/>
            <path fill="currentColor" d="M-197,156h4v31h-37c-2.8,0-5-2.3-5-5"/>
            <polyline fill="currentColor" points="-223,185 -223,171 -228,171 	"/>
            <polyline fill="currentColor" points="-228,166 -223,166 -223,158 	"/>
            <polyline fill="currentColor" points="-218,158 -218,175 -195,175 	"/>
            <polyline fill="currentColor" points="-218,185 -218,180 -195,180 	"/>
            <path fill="currentColor" d="M-206,144c5,0,9,3.9,9,8.8c0,2.1-0.3,3.6-1.5,5.5c-1.2,1.9-7.5,10.8-7.5,10.8s-6.2-8.8-7.5-10.8
                c-1.2-1.9-1.5-3.4-1.5-5.5C-215,147.9-211,144-206,144z"/>
            <path fill="currentColor" d="M-206,150C-206,150-206,150-206,150C-206,150-206,150-206,150c1.7,0,3,1.3,3,3c0,1.7-1.3,3-3,3c0,0,0,0,0,0
                s0,0,0,0c-1.7,0-3-1.3-3-3C-209,151.3-207.7,150-206,150z"/>
        </g>
        <g>
            <path fill="currentColor" d="M-113,186h-42c-1.1,0-2-0.9-2-2v-32c0-1.1,0.9-2,2-2h42c1.1,0,2,0.9,2,2v32C-111,185.1-111.9,186-113,186z"/>
            <line fill="currentColor" x1="-110" y1="145" x2="-158" y2="145"/>
            <line fill="currentColor" x1="-148" y1="143" x2="-148" y2="150"/>
            <line fill="currentColor" x1="-121" y1="143" x2="-121" y2="150"/>
            <polyline fill="currentColor" points="-142,162 -142,157 -138,157 	"/>
            <polyline fill="currentColor" points="-142,166 -142,162 -138,162 	"/>
            <path fill="currentColor" d="M-127,162h-2v-5h2c1.1,0,2,0.9,2,2v1C-125,161.1-125.9,162-127,162z"/>
            <path fill="currentColor" d="M-129,166v-4h1c1.7,0,3,1.3,3,3v1"/>
            <line fill="currentColor" x1="-136" y1="175" x2="-141" y2="175"/>
            <polyline fill="currentColor" points="-135,170 -141,170 -141,180 -135,180 	"/>
            <line fill="currentColor" x1="-116" y1="170" x2="-124" y2="170"/>
            <polyline fill="currentColor" points="-133,181 -133,170 -132,170 -127,180 -126,180 -126,169 	"/>
            <path fill="currentColor" d="M-147,176h-3v-6h3c1.7,0,3,1.3,3,3l0,0C-144,174.7-145.3,176-147,176z"/>
            <path fill="currentColor" d="M-150,181v-5h3c1.7,0,3,1.3,3,3v2"/>
            <line fill="currentColor" x1="-120" y1="170" x2="-120" y2="181"/>
            <path fill="currentColor" d="M-133,165h-2c-0.6,0-1-0.4-1-1v-6c0-0.6,0.4-1,1-1h2c0.6,0,1,0.4,1,1v6C-132,164.6-132.4,165-133,165z"/>
        </g>
        <g>
            <path fill="currentColor" d="M-33,186h-42c-1.1,0-2-0.9-2-2v-32c0-1.1,0.9-2,2-2h42c1.1,0,2,0.9,2,2v32C-31,185.1-31.9,186-33,186z"/>
            <line fill="currentColor" x1="-30" y1="145" x2="-78" y2="145"/>
            <line fill="currentColor" x1="-68" y1="143" x2="-68" y2="150"/>
            <line fill="currentColor" x1="-41" y1="143" x2="-41" y2="150"/>
            <polyline fill="currentColor" points="-62,162 -62,157 -58,157 	"/>
            <polyline fill="currentColor" points="-62,166 -62,162 -58,162 	"/>
            <path fill="currentColor" d="M-47,162h-2v-5h2c1.1,0,2,0.9,2,2v1C-45,161.1-45.9,162-47,162z"/>
            <path fill="currentColor" d="M-49,166v-4h1c1.7,0,3,1.3,3,3v1"/>
            <line fill="currentColor" x1="-39" y1="175" x2="-44" y2="175"/>
            <polyline fill="currentColor" points="-38,170 -44,170 -44,180 -38,180 	"/>
            <path fill="currentColor" d="M-53,165h-2c-0.6,0-1-0.4-1-1v-6c0-0.6,0.4-1,1-1h2c0.6,0,1,0.4,1,1v6C-52,164.6-52.4,165-53,165z"/>
            <path fill="currentColor" d="M-69,178L-69,178c0,1.1,0.9,2,2,2h2c1.1,0,2-0.9,2-2v-0.6c0-0.9-0.6-1.6-1.4-1.9l-3.3-1.1
                c-0.8-0.3-1.4-1-1.4-1.9V172c0-1.1,0.9-2,2-2h2c1.1,0,2,0.9,2,2l0,0"/>
            <path fill="currentColor" d="M-60,181v-9c0-1.1,0.9-2,2-2h2c1.1,0,2,0.9,2,2v9"/>
            <line fill="currentColor" x1="-60" y1="176" x2="-54" y2="176"/>
            <polyline fill="currentColor" points="-51,169 -51,180 -46,180 	"/>
        </g>
        <g>
            <path fill="currentColor" d="M-62,261c0.4-0.4,0.8-1,2-1c1.2,0,12.8,0,14,0c1.1,0,7.2-6.1,8-7c0.7-0.8,4.1-5.8,5-8c-0.6-0.8-2.1-1.4-4-1
                c-1.8,0.4-2.8,1.7-4,4l-4.6,2.4"/>
            <path fill="currentColor" d="M-56,254c0,0,7,0,8,0c4,0,4-5,0-5c-1,0-2.5,0-5.3,0c-0.8,0-2.4-2-3.7-2c-0.6,0-3.6,0-5,0c-1.4,0-3,1.1-4,2
                c-1.5,1.5-4,4-4,4"/>
            <rect x="-72" y="251" transform="matrix(0.7071 -0.7071 0.7071 0.7071 -203.5574 27.569)" fill="currentColor" width="7.1" height="17"/>
            <line fill="currentColor" x1="-72" y1="256" x2="-70" y2="258"/>
            <line fill="currentColor" x1="-41" y1="233" x2="-41" y2="247"/>
            <line fill="currentColor" x1="-61" y1="247" x2="-61" y2="233"/>
            <polyline fill="currentColor" points="-37,237 -51,223 -65,237 	"/>
            <line fill="currentColor" x1="-58" y1="225" x2="-58" y2="230"/>
            <polyline fill="currentColor" points="-54,249 -54,239 -48,239 -48,249 	"/>
        </g>
        <g>
            <polyline fill="currentColor" points="361.2,-29.2 361.2,-57.8 332.8,-57.8 332.8,-0.8 	"/>
            <polyline fill="currentColor" points="484.8,46.8 484.8,118 318.5,118 318.5,46.8 	"/>
            <polygon fill="currentColor" points="404,-72 299.5,32.5 318.5,51.5 404,-34 489.5,51.5 508.5,32.5 	"/>
            <rect x="351.8" y="46.8" fill="currentColor" width="38" height="71.2"/>
            <rect x="408.8" y="46.8" fill="currentColor" width="47.5" height="38"/>
            <line fill="currentColor" x1="290" y1="118" x2="518" y2="118"/>
        </g>
        <g>
            <polyline fill="currentColor" points="-222,228 -222,224 -206,224 -206,228 	"/>
            <rect x="-216" y="259" fill="currentColor" width="5" height="8"/>
            <polyline fill="currentColor" points="-220,246 -220,242 -216,242 -216,246 	"/>
            <polyline fill="currentColor" points="-220,254 -220,250 -216,250 -216,254 	"/>
            <polyline fill="currentColor" points="-211,246 -211,242 -207,242 -207,246 	"/>
            <polyline fill="currentColor" points="-220,238 -220,234 -216,234 -216,238 	"/>
            <polyline fill="currentColor" points="-211,238 -211,234 -207,234 -207,238 	"/>
            <polyline fill="currentColor" points="-211,254 -211,250 -207,250 -207,254 	"/>
            <polyline fill="currentColor" points="-228,267 -235,267 -235,240 -228,240 	"/>
            <polyline fill="currentColor" points="-232,240 -232,236 -228,236 	"/>
            <polyline fill="currentColor" points="-199,267 -193,267 -193,250 -199,250 	"/>
            <polyline fill="currentColor" points="-195,250 -195,246 -199,246 	"/>
            <rect x="-225" y="228" fill="currentColor" width="23" height="39"/>
        </g>
        <g>
            <polyline fill="currentColor" points="-278,245 -278,265 -283,265 -283,245 -305,245 -305,265 -310,265 -310,245 	"/>
            <polyline fill="currentColor" points="-316,247 -294,225 -272,247 	"/>
            <line fill="currentColor" x1="-303" y1="250" x2="-285" y2="250"/>
            <line fill="currentColor" x1="-303" y1="255" x2="-285" y2="255"/>
            <line fill="currentColor" x1="-303" y1="260" x2="-285" y2="260"/>
            <line fill="currentColor" x1="-303" y1="265" x2="-285" y2="265"/>
        </g>
        <g>
            <rect x="-388" y="253" fill="currentColor" width="14" height="14"/>
            <rect x="-374" y="253" fill="currentColor" width="14" height="14"/>
            <rect x="-381" y="239" fill="currentColor" width="14" height="14"/>
            <line fill="currentColor" x1="-393" y1="241" x2="-393" y2="268"/>
            <line fill="currentColor" x1="-355" y1="241" x2="-355" y2="268"/>
            <path fill="currentColor" d="M-374,226c-9.3,0-17.6,4.9-23,12l4,3c4.4-6.6,10.7-10,19-10s14.6,3.4,19,10l4-3
                C-356.4,230.9-364.7,226-374,226z"/>
            <rect x="-376" y="239" fill="currentColor" width="4" height="4"/>
            <rect x="-376" y="239" fill="currentColor" width="4" height="4"/>
            <rect x="-383" y="253" fill="currentColor" width="4" height="4"/>
            <rect x="-369" y="253" fill="currentColor" width="4" height="4"/>
        </g>
    </symbol>

</svg>
