<?xml version="1.0" encoding="utf-8"?>
<!-- Generator: Adobe Illustrator 15.1.0, SVG Export Plug-In . SVG Version: 6.00 Build 0)  -->
<!DOCTYPE svg PUBLIC "-//W3C//DTD SVG 1.1//EN" "http://www.w3.org/Graphics/SVG/1.1/DTD/svg11.dtd">
<svg version="1.1" xmlns="http://www.w3.org/2000/svg" xmlns:xlink="http://www.w3.org/1999/xlink" x="0px" y="0px" width="100px"
	 height="100px" viewBox="0 0 100 100" enable-background="new 0 0 100 100" xml:space="preserve">
<g id="Layer_1">
</g>
<g id="Isolation_Mode">
</g>
<g id="object">
</g>
<g id="Objects">
	<g>
		<rect x="18.647" y="2.254" fill="#454545" width="61.046" height="88.3"/>
		<g>
			<rect x="38.419" y="74.326" fill="#FFFFFF" width="10.301" height="16.229"/>
			<rect x="49.62" y="74.326" fill="#FFFFFF" width="10.3" height="16.229"/>
		</g>
		<rect x="52.326" y="8.958" fill="#FFFFFF" width="4.369" height="58.81"/>
		<g>
			<rect x="24.882" y="8.958" fill="#FFFFFF" width="10.3" height="10.268"/>
			<rect x="37.121" y="8.958" fill="#FFFFFF" width="10.301" height="10.268"/>
			<rect x="61.6" y="8.958" fill="#FFFFFF" width="10.301" height="10.268"/>
		</g>
		<g>
			<rect x="24.882" y="21.093" fill="#FFFFFF" width="10.3" height="10.268"/>
			<rect x="37.121" y="21.093" fill="#FFFFFF" width="10.301" height="10.268"/>
			<rect x="61.6" y="21.093" fill="#FFFFFF" width="10.301" height="10.268"/>
		</g>
		<g>
			<rect x="24.882" y="33.228" fill="#FFFFFF" width="10.3" height="10.269"/>
			<rect x="37.121" y="33.228" fill="#FFFFFF" width="10.301" height="10.269"/>
			<rect x="61.6" y="33.228" fill="#FFFFFF" width="10.301" height="10.269"/>
		</g>
		<g>
			<rect x="24.882" y="45.365" fill="#FFFFFF" width="10.3" height="10.268"/>
			<rect x="37.121" y="45.365" fill="#FFFFFF" width="10.301" height="10.268"/>
			<rect x="61.6" y="45.365" fill="#FFFFFF" width="10.301" height="10.268"/>
		</g>
		<g>
			<rect x="24.882" y="57.5" fill="#FFFFFF" width="10.3" height="10.268"/>
			<rect x="37.121" y="57.5" fill="#FFFFFF" width="10.301" height="10.268"/>
			<rect x="61.6" y="57.5" fill="#FFFFFF" width="10.301" height="10.268"/>
		</g>
		<rect x="15.66" y="90.555" fill="#454545" width="67.022" height="5.148"/>
	</g>
</g>
</svg>
