<?xml version="1.0" encoding="utf-8"?>
<!-- Generator: Adobe Illustrator 15.1.0, SVG Export Plug-In . SVG Version: 6.00 Build 0)  -->
<!DOCTYPE svg PUBLIC "-//W3C//DTD SVG 1.1//EN" "http://www.w3.org/Graphics/SVG/1.1/DTD/svg11.dtd">
<svg version="1.1" xmlns="http://www.w3.org/2000/svg" xmlns:xlink="http://www.w3.org/1999/xlink" x="0px" y="0px" width="100px"
	 height="100px" viewBox="0 0 100 100" enable-background="new 0 0 100 100" xml:space="preserve">
<g id="Layer_1">
</g>
<g id="Isolation_Mode">
	<path fill="#454545" d="M94.866,47.193v-27.88c0-5.603-4-13.938-15.035-13.938c-9.274,0-13.538,5.897-14.667,11.107
		c-4.491,1.338-7.758,5.194-7.758,9.802h22.31c0-4.33-2.869-8.025-6.938-9.568c0.705-2.016,2.491-4.371,7.053-4.371
		c6.866,0,7.491,5.356,7.518,6.968v27.88H4.674c-2.075,0-3.756,1.558-3.756,3.485v3.484c0,1.93,1.682,3.487,3.756,3.487v10.453
		c0,7.555,6.875,14.975,14.821,16.92c-0.371,1.7-1.33,3.989-3.548,3.989c-2.073,0-3.756,1.558-3.756,3.486
		c0,1.925,1.683,3.482,3.756,3.482c6.49,0,10.315-5.072,11.108-10.453h45.431c0.787,5.381,4.617,10.453,11.103,10.453
		c2.082,0,3.759-1.558,3.759-3.482c0-1.929-1.677-3.486-3.759-3.486c-2.215,0-3.175-2.289-3.551-3.989
		c7.955-1.945,14.829-9.365,14.829-16.92V57.649c2.076,0,3.759-1.558,3.759-3.487v-3.484C98.625,48.751,96.942,47.193,94.866,47.193
		 M87.349,68.103c0,4.982-5.9,10.452-11.272,10.452H23.464c-5.271,0-11.273-5.563-11.273-10.452V57.649h75.158V68.103z
		 M58.99,30.192l0.231-0.846c0.246-0.94,1.254-1.506,2.28-1.267c1.012,0.234,1.618,1.175,1.363,2.113l-0.229,0.84
		c-0.211,0.795-0.979,1.323-1.818,1.323c-0.154,0-0.3-0.019-0.458-0.056C59.354,32.069,58.748,31.125,58.99,30.192 M57.16,37.001
		l0.369-1.362c0.245-0.933,1.246-1.511,2.276-1.272c1.013,0.234,1.622,1.181,1.37,2.113l-0.372,1.363
		c-0.214,0.793-0.979,1.32-1.824,1.32c-0.147,0-0.298-0.016-0.451-0.05C57.521,38.876,56.904,37.929,57.16,37.001 M55.466,43.288
		l0.229-0.845c0.25-0.932,1.252-1.507,2.276-1.269c1.009,0.236,1.621,1.178,1.366,2.114l-0.231,0.844
		c-0.205,0.792-0.974,1.32-1.817,1.32c-0.151,0-0.303-0.017-0.457-0.054C55.818,45.166,55.212,44.216,55.466,43.288 M78.127,30.192
		c0.247,0.933-0.36,1.877-1.366,2.108c-0.149,0.037-0.308,0.056-0.457,0.056c-0.842,0-1.611-0.528-1.817-1.323l-0.229-0.84
		c-0.253-0.938,0.356-1.879,1.365-2.113c0.982-0.242,2.025,0.327,2.275,1.267L78.127,30.192z M79.963,37.001
		c0.247,0.933-0.364,1.875-1.369,2.112c-0.151,0.034-0.304,0.05-0.455,0.05c-0.842,0-1.61-0.526-1.822-1.32l-0.369-1.363
		c-0.243-0.932,0.365-1.879,1.371-2.113c0.982-0.241,2.024,0.339,2.273,1.272L79.963,37.001z M79.155,41.174
		c0.989-0.243,2.021,0.337,2.272,1.269l0.229,0.845c0.247,0.934-0.364,1.878-1.367,2.11c-0.148,0.037-0.307,0.054-0.458,0.054
		c-0.842,0-1.613-0.527-1.816-1.32l-0.23-0.844C77.538,42.352,78.145,41.41,79.155,41.174 M66.679,30.64v-0.871
		c0-0.961,0.848-1.741,1.882-1.741c1.036,0,1.878,0.78,1.878,1.741v0.871c0,0.963-0.842,1.744-1.878,1.744
		C67.526,32.383,66.679,31.603,66.679,30.64 M66.679,36.064c0-0.963,0.848-1.743,1.882-1.743c1.036,0,1.878,0.78,1.878,1.743v1.354
		c0,0.965-0.842,1.742-1.878,1.742c-1.034,0-1.882-0.777-1.882-1.742V36.064z M66.679,42.837c0-0.961,0.848-1.741,1.882-1.741
		c1.036,0,1.878,0.78,1.878,1.741v0.874c0,0.96-0.842,1.741-1.878,1.741c-1.034,0-1.882-0.781-1.882-1.741V42.837z"/>
</g>
</svg>
