<?xml version="1.0" encoding="utf-8"?>
<!-- Generator: Adobe Illustrator 15.1.0, SVG Export Plug-In . SVG Version: 6.00 Build 0)  -->
<!DOCTYPE svg PUBLIC "-//W3C//DTD SVG 1.1//EN" "http://www.w3.org/Graphics/SVG/1.1/DTD/svg11.dtd">
<svg version="1.1" xmlns="http://www.w3.org/2000/svg" xmlns:xlink="http://www.w3.org/1999/xlink" x="0px" y="0px" width="100px"
	 height="100px" viewBox="0 0 100 100" enable-background="new 0 0 100 100" xml:space="preserve">
<g id="Layer_1">
</g>
<g id="Isolation_Mode">
</g>
<g id="object">
</g>
<g id="Objects">
</g>
<g id="Layer_6_xA0_Image">
</g>
<g id="Social_Icons_Color">
</g>
<g id="Logo">
</g>
<g id="Shape_1_xA0_Image">
</g>
<g id="Shape_2_copy_2_xA0_Image">
</g>
<g id="Row_2">
	<g id="clock">
		<g>
			<path fill-rule="evenodd" clip-rule="evenodd" fill="#989898" d="M53.371,53.667V34.793c0-1.866-1.509-3.379-3.371-3.379
				c-1.861,0-3.371,1.513-3.371,3.379v20.273c0,0.896,0.355,1.756,0.988,2.389L57.73,67.592c0.658,0.66,1.521,0.99,2.384,0.989
				c0.862,0,1.726-0.33,2.383-0.989c1.317-1.319,1.317-3.459,0-4.778L53.371,53.667z M50,17.899
				c-20.48,0-37.083,16.641-37.083,37.167S29.52,92.232,50,92.232c20.481,0,37.084-16.64,37.084-37.166S70.481,17.899,50,17.899z
				 M50,85.475c-16.756,0-30.341-13.614-30.341-30.408c0-16.794,13.584-30.409,30.341-30.409c16.757,0,30.341,13.615,30.341,30.409
				C80.341,71.86,66.757,85.475,50,85.475z"/>
		</g>
	</g>
</g>
</svg>
