<?xml version="1.0" encoding="utf-8"?>
<!-- Generator: Adobe Illustrator 15.1.0, SVG Export Plug-In . SVG Version: 6.00 Build 0)  -->
<!DOCTYPE svg PUBLIC "-//W3C//DTD SVG 1.1//EN" "http://www.w3.org/Graphics/SVG/1.1/DTD/svg11.dtd">
<svg version="1.1" xmlns="http://www.w3.org/2000/svg" xmlns:xlink="http://www.w3.org/1999/xlink" x="0px" y="0px" width="100px"
	 height="100px" viewBox="0 0 100 100" enable-background="new 0 0 100 100" xml:space="preserve">
<g id="Layer_1">
</g>
<g id="Isolation_Mode">
</g>
<g id="object">
</g>
<g id="Objects">
</g>
<g id="Layer_6_xA0_Image">
</g>
<g id="Social_Icons_Color">
	<path id="Instagram_2_" fill-rule="evenodd" clip-rule="evenodd" fill="#527FA4" d="M76.884,41.666h-6.095
		c0.443,1.725,0.706,3.525,0.706,5.387c0,11.898-9.642,21.539-21.537,21.539c-11.895,0-21.537-9.641-21.537-21.539
		c0-1.861,0.264-3.662,0.707-5.387h-6.094v29.619c0,1.484,1.205,2.689,2.694,2.689h48.459c1.49,0,2.696-1.205,2.696-2.689V41.666z
		 M76.884,22.822c0-1.486-1.206-2.691-2.696-2.691h-8.074c-1.487,0-2.692,1.205-2.692,2.691V30.9c0,1.486,1.205,2.691,2.692,2.691
		h8.074c1.49,0,2.696-1.205,2.696-2.691V22.822z M49.958,33.592c-7.435,0-13.462,6.025-13.462,13.461
		c0,7.434,6.027,13.463,13.462,13.463s13.463-6.029,13.463-13.463C63.421,39.617,57.393,33.592,49.958,33.592 M76.884,82.055h-53.85
		c-4.459,0-8.075-3.617-8.075-8.08V20.131c0-4.461,3.616-8.076,8.075-8.076h53.85c4.46,0,8.075,3.615,8.075,8.076v53.844
		C84.959,78.438,81.344,82.055,76.884,82.055"/>
</g>
<g id="Logo">
</g>
</svg>
