<?xml version="1.0" encoding="utf-8"?>
<!-- Generator: Adobe Illustrator 15.1.0, SVG Export Plug-In . SVG Version: 6.00 Build 0)  -->
<!DOCTYPE svg PUBLIC "-//W3C//DTD SVG 1.1//EN" "http://www.w3.org/Graphics/SVG/1.1/DTD/svg11.dtd">
<svg version="1.1" xmlns="http://www.w3.org/2000/svg" xmlns:xlink="http://www.w3.org/1999/xlink" x="0px" y="0px" width="100px"
	 height="100px" viewBox="0 0 100 100" enable-background="new 0 0 100 100" xml:space="preserve">
<g id="Layer_1">
</g>
<g id="Isolation_Mode">
</g>
<g id="object">
</g>
<g id="Objects">
</g>
<g id="Layer_6_xA0_Image">
</g>
<g id="Social_Icons_Color">
	<path id="LinkedIn_1_" fill="#989898" d="M84.344,55.406v25.879H69.341V57.141c0-6.066-2.171-10.205-7.602-10.205
		c-4.146,0-6.612,2.789-7.698,5.488c-0.396,0.965-0.497,2.307-0.497,3.658v25.203H38.537c0,0,0.202-40.895,0-45.133h15.007v6.398
		c-0.03,0.047-0.069,0.1-0.099,0.146h0.099v-0.146c1.993-3.07,5.554-7.457,13.523-7.457C76.942,35.094,84.344,41.545,84.344,55.406z
		 M22.837,14.396c-5.135,0-8.493,3.369-8.493,7.797c0,4.332,3.262,7.803,8.294,7.803h0.101c5.233,0,8.488-3.471,8.488-7.803
		C31.128,17.766,27.972,14.396,22.837,14.396z M15.235,81.285h15.003V36.152H15.235V81.285z"/>
</g>
<g id="Logo">
</g>
</svg>
