<?xml version="1.0" encoding="utf-8"?>
<!-- Generator: Adobe Illustrator 15.1.0, SVG Export Plug-In . SVG Version: 6.00 Build 0)  -->
<!DOCTYPE svg PUBLIC "-//W3C//DTD SVG 1.1//EN" "http://www.w3.org/Graphics/SVG/1.1/DTD/svg11.dtd">
<svg version="1.1" xmlns="http://www.w3.org/2000/svg" xmlns:xlink="http://www.w3.org/1999/xlink" x="0px" y="0px" width="100px"
	 height="100px" viewBox="0 0 100 100" enable-background="new 0 0 100 100" xml:space="preserve">
<g id="Layer_1">
	<g>
		<path fill="#989898" d="M62.168,84.813c3.843,0,7.548-1.257,11.01-3.74l3.023-2.163c0.91-0.649,1.809-2.036,0.915-4.945
			c-1.254-4.073-6.724-12.215-10.613-12.215c-0.615,0-1.2,0.185-1.688,0.532l-3.027,2.17c-3.172,2.275-5.521,1.946-7.738-1.293
			L41.611,44.997c-1.089-1.591-1.525-3.023-1.3-4.261c0.225-1.254,1.155-2.471,2.761-3.621l3.027-2.166
			c0.889-0.637,1.761-1.999,0.872-4.878c-1.37-4.445-7.536-13.497-11.452-13.497c-0.603,0-1.17,0.178-1.646,0.519l-3.026,2.167
			c-9.704,6.947-11.063,19.153-3.385,30.373l16.646,24.309C48.839,80.852,55.42,84.813,62.168,84.813z M73.768,76.008l-2.725,1.949
			c-2.825,2.024-5.812,3.052-8.875,3.052c-5.516,0-10.987-3.372-15.011-9.248L30.509,47.45c-5.33-7.783-6.63-18.557,2.471-25.073
			l2.717-1.945c2.195,0.841,7.866,9.117,7.942,11.634l-2.699,1.932c-2.435,1.742-3.873,3.772-4.287,6.04
			c-0.414,2.281,0.229,4.684,1.911,7.141l12.438,18.16c3.355,4.895,8.017,5.739,12.922,2.228l2.735-1.962
			c0.657,0.303,2.402,1.777,4.357,4.628C72.946,73.053,73.709,75.216,73.768,76.008z"/>
	</g>
</g>
<g id="Isolation_Mode">
</g>
<g id="object">
</g>
<g id="Objects">
</g>
<g id="Layer_6_xA0_Image">
</g>
<g id="Social_Icons_Color">
</g>
<g id="Logo">
</g>
<g id="Shape_1_xA0_Image">
</g>
<g id="Shape_2_copy_2_xA0_Image">
</g>
</svg>
