<?xml version="1.0" encoding="utf-8"?>
<!-- Generator: Adobe Illustrator 15.1.0, SVG Export Plug-In . SVG Version: 6.00 Build 0)  -->
<!DOCTYPE svg PUBLIC "-//W3C//DTD SVG 1.1//EN" "http://www.w3.org/Graphics/SVG/1.1/DTD/svg11.dtd">
<svg version="1.1" xmlns="http://www.w3.org/2000/svg" xmlns:xlink="http://www.w3.org/1999/xlink" x="0px" y="0px" width="100px"
	 height="100px" viewBox="0 0 100 100" enable-background="new 0 0 100 100" xml:space="preserve">
<g id="Layer_1">
</g>
<g id="Isolation_Mode">
</g>
<g id="object">
</g>
<g id="Objects">
</g>
<g id="Layer_6_xA0_Image">
</g>
<g id="Social_Icons_Color">
</g>
<g id="Logo">
	<g>
		<path fill="#989898" d="M50.446,7.899c-20.303,0-36.764,16.49-36.764,36.831c0,15.081,9.054,28.036,22.006,33.733
			c-0.104-2.572-0.019-5.658,0.64-8.458c0.707-2.989,4.731-20.066,4.731-20.066s-1.175-2.352-1.175-5.828
			c0-5.458,3.158-9.534,7.091-9.534c3.344,0,4.959,2.516,4.959,5.53c0,3.369-2.144,8.405-3.248,13.07
			c-0.921,3.907,1.956,7.094,5.803,7.094c6.967,0,11.657-8.961,11.657-19.581c0-8.073-5.428-14.115-15.297-14.115
			c-11.152,0-18.1,8.331-18.1,17.637c0,3.21,0.944,5.472,2.425,7.225c0.68,0.806,0.774,1.127,0.527,2.052
			c-0.176,0.679-0.581,2.311-0.749,2.957c-0.244,0.932-1,1.265-1.84,0.92c-5.136-2.099-7.53-7.734-7.53-14.069
			c0-10.462,8.808-23.009,26.275-23.009c14.035,0,23.272,10.177,23.272,21.099c0,14.449-8.018,25.242-19.836,25.242
			c-3.97,0-7.703-2.15-8.982-4.592c0,0-2.134,8.485-2.586,10.124c-0.779,2.84-2.304,5.679-3.699,7.891
			c3.306,0.978,6.799,1.51,10.418,1.51c20.303,0,36.762-16.488,36.762-36.831C87.208,24.39,70.749,7.899,50.446,7.899z"/>
	</g>
</g>
</svg>
