<?xml version="1.0" encoding="utf-8"?>
<!-- Generator: Adobe Illustrator 15.1.0, SVG Export Plug-In . SVG Version: 6.00 Build 0)  -->
<!DOCTYPE svg PUBLIC "-//W3C//DTD SVG 1.1//EN" "http://www.w3.org/Graphics/SVG/1.1/DTD/svg11.dtd">
<svg version="1.1" xmlns="http://www.w3.org/2000/svg" xmlns:xlink="http://www.w3.org/1999/xlink" x="0px" y="0px" width="100px"
	 height="100px" viewBox="0 0 100 100" enable-background="new 0 0 100 100" xml:space="preserve">
<g id="Layer_1">
</g>
<g id="Isolation_Mode">
	<path fill="#454545" d="M73.524,31.466c-4.346-1.78-9.339,0.243-11.149,4.519c-1.81,4.276,0.246,9.187,4.597,10.965
		c4.346,1.781,9.338-0.242,11.149-4.518C79.931,38.156,77.873,33.246,73.524,31.466"/>
	<polygon fill="#454545" points="77.366,24.877 75.572,24.143 73.229,29.683 75.021,30.417 	"/>
	<polygon fill="#454545" points="67.267,48.735 65.475,48 63.13,53.541 64.922,54.273 	"/>
	<polygon fill="#454545" points="79.934,42.141 79.186,43.903 84.819,46.209 85.564,44.448 	"/>
	<polygon fill="#454545" points="55.677,32.208 54.931,33.971 60.563,36.277 61.308,34.514 	"/>
	<polygon fill="#454545" points="79.203,34.546 79.944,36.312 85.583,34.024 84.845,32.26 	"/>
	<polygon fill="#454545" points="55.651,46.158 61.292,43.871 60.552,42.106 54.912,44.393 	"/>
	<polygon fill="#454545" points="77.313,53.566 74.987,48.018 73.193,48.745 75.518,54.293 	"/>
	<polygon fill="#454545" points="67.301,29.672 64.978,24.125 63.183,24.852 65.508,30.399 	"/>
	<polygon fill="#454545" points="78.064,32.865 85.574,25.472 84.202,24.123 76.691,31.516 	"/>
	<polygon fill="#454545" points="76.696,46.897 84.214,54.285 85.586,52.935 78.068,45.547 	"/>
	<polygon fill="#454545" points="56.292,54.297 63.805,46.902 62.432,45.553 54.92,52.946 	"/>
	<polygon fill="#454545" points="63.8,31.521 56.281,24.133 54.91,25.483 62.426,32.872 	"/>
	<polyline fill="#454545" points="90.961,38.246 80.334,38.25 80.336,40.16 90.962,40.156 	"/>
	<polyline fill="#454545" points="71.226,59.582 71.224,49.13 69.281,49.131 69.284,59.583 	"/>
	<rect x="49.534" y="38.26" fill="#454545" width="10.626" height="1.91"/>
	<polyline fill="#454545" points="69.27,18.836 69.272,29.288 71.215,29.288 71.211,18.835 	"/>
</g>
<g id="object">
	<g>
		<path fill="#454545" d="M90.083,76.771c-2.906,0-5.789-1.35-8.12-3.799c-0.992-1.044-1.801-2.202-2.389-3.387
			c-0.531,1.169-1.261,2.31-2.155,3.329c-2.152,2.458-4.881,3.813-7.685,3.813c-4.297,0-8.251-3.308-10.119-7.026
			c-1.536,3.653-4.889,7.026-9.516,7.026c-4.702,0-8.198-3.372-9.839-6.981c-1.634,3.609-5.116,6.981-9.797,6.981
			c-2.865,0-5.615-1.352-7.744-3.809c-0.833-0.958-1.52-2.027-2.034-3.135c-1.714,3.753-5.425,6.943-9.857,6.943
			C4.141,76.728,0,70.837,0,65.381h2.069c0,4.127,3.521,8.548,8.759,8.548c5.295,0,8.808-5.144,8.808-8.548h2.07
			c0,3.013,3.325,8.548,8.757,8.548c5.081,0,8.759-5.106,8.759-8.548h2.07c0,3.013,3.343,8.548,8.806,8.548
			c5.505,0,8.386-5.566,8.386-8.548h2.07c0,2.925,3.875,8.548,9.179,8.548c5.349,0,8.76-5.613,8.76-8.548h2.068
			c0,2.939,4.021,8.592,9.521,8.592c5.037,0,8.045-3.213,8.045-8.592h2.07C100.198,72.405,96.323,76.771,90.083,76.771z"/>
		<path fill="#454545" d="M90.083,94.023c-2.906,0-5.789-1.35-8.12-3.799c-0.992-1.043-1.801-2.202-2.389-3.387
			c-0.531,1.17-1.261,2.31-2.155,3.33c-2.152,2.458-4.881,3.813-7.685,3.813c-4.297,0-8.251-3.305-10.119-7.025
			c-1.536,3.653-4.889,7.025-9.516,7.025c-4.702,0-8.198-3.37-9.839-6.979c-1.634,3.609-5.116,6.979-9.797,6.979
			c-2.865,0-5.615-1.351-7.744-3.805c-0.833-0.962-1.52-2.031-2.034-3.139c-1.714,3.753-5.425,6.943-9.857,6.943
			C4.141,93.98,0,88.092,0,82.634h2.069c0,4.129,3.521,8.549,8.759,8.549c5.295,0,8.808-5.145,8.808-8.549h2.07
			c0,3.014,3.325,8.549,8.757,8.549c5.081,0,8.759-5.106,8.759-8.549h2.07c0,3.014,3.343,8.549,8.806,8.549
			c5.505,0,8.386-5.564,8.386-8.549h2.07c0,2.928,3.875,8.549,9.179,8.549c5.349,0,8.76-5.613,8.76-8.549h2.068
			c0,2.941,4.021,8.594,9.521,8.594c5.037,0,8.045-3.213,8.045-8.594h2.07C100.198,89.658,96.323,94.023,90.083,94.023z"/>
	</g>
</g>
</svg>
