<?xml version="1.0" encoding="utf-8"?>
<!-- Generator: Adobe Illustrator 15.1.0, SVG Export Plug-In . SVG Version: 6.00 Build 0)  -->
<!DOCTYPE svg PUBLIC "-//W3C//DTD SVG 1.1//EN" "http://www.w3.org/Graphics/SVG/1.1/DTD/svg11.dtd">
<svg version="1.1" xmlns="http://www.w3.org/2000/svg" xmlns:xlink="http://www.w3.org/1999/xlink" x="0px" y="0px" width="100px"
	 height="100px" viewBox="0 0 100 100" enable-background="new 0 0 100 100" xml:space="preserve">
<g id="Layer_1">
</g>
<g id="Isolation_Mode">
	<g>
		<path fill="#454545" d="M100.342,84.668c-1.741,0.704-3.48,1.405-5.567,1.405c-4.175,0-6.958-2.811-11.133-2.811
			c-4.176,0-6.958,2.811-11.133,2.811s-6.959-2.811-11.134-2.811s-6.957,2.811-11.133,2.811c-4.175,0-6.958-2.811-11.133-2.811
			c-4.175,0-6.959,2.811-11.134,2.811c-4.175,0-6.958-2.811-11.133-2.811c-4.175,0-6.957,2.811-11.133,2.811
			c-2.088,0-3.827-0.699-5.567-1.403v8.435c1.738,0.702,3.478,1.402,5.566,1.402c4.176,0,6.958-2.812,11.133-2.812
			s6.959,2.812,11.133,2.812c4.175,0,6.958-2.812,11.135-2.812c4.175,0,6.959,2.812,11.133,2.812c4.175,0,6.957-2.812,11.134-2.812
			c4.175,0,6.957,2.812,11.134,2.812c4.175,0,6.956-2.812,11.132-2.812c4.174,0,6.957,2.812,11.134,2.812
			c2.086,0,3.825-0.702,5.566-1.405L100.342,84.668L100.342,84.668z"/>
		<path fill="#454545" d="M100.342,67.803c-1.741,0.702-3.48,1.405-5.567,1.405c-4.175,0-6.958-2.809-11.133-2.809
			c-4.176,0-6.958,2.809-11.133,2.809s-6.959-2.809-11.134-2.809s-6.957,2.809-11.133,2.809c-4.175,0-6.958-2.809-11.133-2.809
			c-4.175,0-6.959,2.809-11.134,2.809c-4.175,0-6.958-2.809-11.133-2.809c-4.175,0-6.957,2.809-11.133,2.809
			c-2.088,0-3.827-0.698-5.567-1.401v8.433c1.739,0.7,3.479,1.401,5.567,1.401c4.176,0,6.958-2.809,11.133-2.809
			c4.175,0,6.959,2.809,11.133,2.809c4.174,0,6.958-2.809,11.134-2.809c4.176,0,6.958,2.809,11.133,2.809
			c4.176,0,6.958-2.809,11.133-2.809s6.959,2.809,11.134,2.809s6.957-2.809,11.133-2.809c4.175,0,6.958,2.809,11.133,2.809
			c2.087,0,3.826-0.701,5.567-1.405V67.803z"/>
		<path fill="#454545" d="M16.841,60.775v-2.813h27.833v4.22c1.74,0.702,3.479,1.405,5.568,1.405c0.996,0,1.906-0.167,2.782-0.409
			V34.069c0-10.85,8.741-19.675,19.484-19.675c10.745,0,19.482,8.826,19.482,19.675c0,2.331,1.867,4.218,4.174,4.218
			c2.308,0,4.177-1.887,4.177-4.218c0-15.499-12.487-28.108-27.833-28.108c-14.879,0-27.032,11.859-27.764,26.703H16.911
			c0.719-10.193,9.14-18.27,19.413-18.27c3.322,0,6.445,0.859,9.184,2.351c1.526-2.416,3.355-4.62,5.443-6.545
			c-4.257-2.672-9.258-4.238-14.627-4.238C20.977,5.961,8.49,18.57,8.49,34.069v29.107C11.286,62.398,13.662,60.775,16.841,60.775z
			 M16.841,41.097h27.833v8.433H16.841V41.097z"/>
	</g>
</g>
</svg>
