<?xml version="1.0" encoding="utf-8"?>
<!-- Generator: Adobe Illustrator 15.1.0, SVG Export Plug-In . SVG Version: 6.00 Build 0)  -->
<!DOCTYPE svg PUBLIC "-//W3C//DTD SVG 1.1//EN" "http://www.w3.org/Graphics/SVG/1.1/DTD/svg11.dtd">
<svg version="1.1" xmlns="http://www.w3.org/2000/svg" xmlns:xlink="http://www.w3.org/1999/xlink" x="0px" y="0px" width="100px"
	 height="100px" viewBox="0 0 100 100" enable-background="new 0 0 100 100" xml:space="preserve">
<g id="Layer_1">
</g>
<g id="Isolation_Mode">
</g>
<g id="object">
</g>
<g id="Objects">
</g>
<g id="furniture">
	<g>
		<path fill="#454545" d="M79.599,41.742V25.181H76.02v4.043H26.833v-4.043h-3.585v16.561H79.599z M50.315,40.279H39.489v-6.412
			h10.827V40.279z M52.623,33.867h10.738v6.412H52.623V33.867z M76.02,40.279H65.663v-6.412H76.02V40.279z M26.833,33.867h10.352
			v6.412H26.833V33.867z"/>
		<rect x="23.248" y="63.174" fill="#454545" width="56.351" height="1.467"/>
		<path fill="#454545" d="M84.416,45.247H18.425c-3.646,0-6.597,3.441-6.602,7.699v21.873h3.978v-4.615h71.246v4.615h3.979V52.945
			C91.021,48.688,88.067,45.247,84.416,45.247z M15.801,67.52V52.945c0.003-1.693,1.183-3.059,2.625-3.059h65.991
			c1.453,0,2.624,1.366,2.631,3.059V67.52H15.801z"/>
	</g>
</g>
</svg>
