<?xml version="1.0" encoding="utf-8"?>
<!-- Generator: Adobe Illustrator 15.1.0, SVG Export Plug-In . SVG Version: 6.00 Build 0)  -->
<!DOCTYPE svg PUBLIC "-//W3C//DTD SVG 1.1//EN" "http://www.w3.org/Graphics/SVG/1.1/DTD/svg11.dtd">
<svg version="1.1" xmlns="http://www.w3.org/2000/svg" xmlns:xlink="http://www.w3.org/1999/xlink" x="0px" y="0px" width="100px"
	 height="100px" viewBox="0 0 100 100" enable-background="new 0 0 100 100" xml:space="preserve">
<g id="Layer_1">
</g>
<g id="Isolation_Mode">
	<g>
		<path fill="#3ABEBC" d="M49.862,45.773c-1.164,1.628-2.618,3.033-4.276,4.151c1.736,1.226,3.223,2.774,4.38,4.558
			c1.154-1.683,2.603-3.144,4.28-4.309C52.525,48.993,51.036,47.502,49.862,45.773z"/>
		<path fill="#3ABEBC" d="M42.56,53.954l1.934-3.353c-2.411,1.362-5.193,2.146-8.155,2.146c-3.411,0-6.585-1.038-9.231-2.806
			l2.319,4.013c-3.039,2.094-5.035,5.599-5.035,9.564c0,6.397,5.201,11.605,11.603,11.605c6.394,0,11.599-5.208,11.599-11.605
			C47.593,59.553,45.596,56.048,42.56,53.954z"/>
		<path fill="#3ABEBC" d="M36.338,47.693c3.962,0,7.462-1.994,9.557-5.036l3.162,1.828c-1.323-2.389-2.077-5.129-2.077-8.05
			c0-3.366,1.01-6.5,2.734-9.124l-3.82,2.211c-2.095-3.042-5.595-5.04-9.557-5.04c-6.393,0-11.599,5.206-11.599,11.604
			C24.739,42.49,29.946,47.693,36.338,47.693z"/>
		<path fill="#3ABEBC" d="M3.699,3.808v92.336H96V3.808H3.699z M63.704,80.52c-5.825,0-10.954-3.012-13.932-7.56l4.374-2.527
			c2.098,3.038,5.599,5.036,9.558,5.036c6.402,0,11.603-5.208,11.603-11.604c0-6.403-5.2-11.605-11.603-11.605
			c-3.959,0-7.46,1.994-9.558,5.036l-3.804-2.199c1.454,2.474,2.299,5.351,2.299,8.423c0,9.182-7.468,16.653-16.647,16.653
			c-9.18,0-16.653-7.472-16.653-16.653c0-5.763,2.948-10.847,7.406-13.838c-4.261-3.021-7.056-7.979-7.056-13.592
			c0-9.183,7.468-16.653,16.647-16.653c5.726,0,10.773,2.907,13.772,7.321c3.021-4.216,7.951-6.975,13.521-6.975
			c9.182,0,16.647,7.472,16.647,16.655c0,5.668-2.851,10.673-7.186,13.683c4.379,3.006,7.265,8.046,7.265,13.746
			C80.358,73.046,72.888,80.52,63.704,80.52z"/>
		<path fill="#3ABEBC" d="M75.231,36.436c0-6.399-5.206-11.604-11.6-11.604c-6.4,0-11.607,5.205-11.607,11.604
			c0,3.963,2.005,7.469,5.041,9.563l-2.156,3.736c2.551-1.599,5.566-2.529,8.795-2.529c3.145,0,6.075,0.892,8.584,2.411
			l-2.091-3.617C73.236,43.904,75.231,40.398,75.231,36.436z"/>
	</g>
</g>
<g id="object">
</g>
<g id="Objects">
</g>
</svg>
