<?xml version="1.0" encoding="utf-8"?>
<!-- Generator: Adobe Illustrator 16.0.0, SVG Export Plug-In . SVG Version: 6.00 Build 0)  -->
<!DOCTYPE svg PUBLIC "-//W3C//DTD SVG 1.1//EN" "http://www.w3.org/Graphics/SVG/1.1/DTD/svg11.dtd">
<svg version="1.1" id="Layer_1" xmlns="http://www.w3.org/2000/svg" xmlns:xlink="http://www.w3.org/1999/xlink" x="0px" y="0px"
	 width="26.713px" height="26.716px" viewBox="0 0 26.713 26.716" enable-background="new 0 0 26.713 26.716" xml:space="preserve">
<g>
	<path fill="#FFFFFF" d="M26.656,20.698c-0.074-0.227-0.556-0.563-1.441-1.005c-0.239-0.138-0.58-0.329-1.023-0.569
		c-0.443-0.239-0.845-0.462-1.205-0.666c-0.361-0.199-0.699-0.396-1.016-0.587c-0.05-0.037-0.208-0.148-0.475-0.331
		c-0.264-0.184-0.49-0.319-0.673-0.408S20.458,17,20.281,17c-0.252,0-0.567,0.179-0.948,0.54c-0.379,0.36-0.727,0.753-1.041,1.176
		c-0.316,0.424-0.652,0.815-1.007,1.177c-0.354,0.362-0.645,0.541-0.873,0.541c-0.112,0-0.255-0.031-0.428-0.094
		c-0.168-0.064-0.301-0.116-0.389-0.162c-0.087-0.043-0.238-0.134-0.454-0.266s-0.336-0.207-0.361-0.219
		c-1.733-0.96-3.219-2.062-4.458-3.301c-1.24-1.239-2.34-2.726-3.301-4.458c-0.013-0.027-0.085-0.146-0.218-0.361
		c-0.133-0.215-0.222-0.368-0.266-0.456c-0.044-0.089-0.099-0.218-0.162-0.389c-0.062-0.17-0.095-0.313-0.095-0.426
		c0-0.228,0.181-0.519,0.542-0.874c0.36-0.354,0.752-0.689,1.176-1.005c0.423-0.316,0.814-0.665,1.175-1.042
		C9.535,7,9.715,6.685,9.715,6.431c0-0.176-0.044-0.357-0.133-0.54C9.493,5.707,9.357,5.483,9.173,5.217
		C8.991,4.952,8.88,4.794,8.841,4.742C8.652,4.427,8.456,4.089,8.253,3.729S7.83,2.965,7.589,2.522
		c-0.24-0.441-0.43-0.784-0.569-1.024C6.577,0.614,6.243,0.133,6.014,0.057C5.926,0.019,5.793,0,5.617,0
		C5.275,0,4.829,0.063,4.28,0.19c-0.55,0.125-0.984,0.259-1.301,0.397C2.346,0.854,1.676,1.625,0.967,2.903
		C0.322,4.091,0,5.268,0,6.431c0,0.342,0.021,0.673,0.066,0.997C0.11,7.75,0.189,8.114,0.304,8.52
		c0.114,0.404,0.205,0.705,0.274,0.9c0.07,0.195,0.199,0.547,0.389,1.053c0.19,0.506,0.304,0.815,0.342,0.93
		c0.443,1.24,0.968,2.345,1.575,3.321c0.998,1.617,2.361,3.291,4.088,5.018c1.727,1.727,3.399,3.09,5.018,4.09
		c0.974,0.606,2.081,1.132,3.32,1.573c0.113,0.038,0.425,0.153,0.931,0.343c0.504,0.189,0.855,0.318,1.052,0.388
		c0.196,0.071,0.495,0.162,0.9,0.276c0.405,0.113,0.771,0.193,1.092,0.236c0.323,0.045,0.654,0.068,0.995,0.068
		c1.165,0,2.34-0.324,3.531-0.969c1.276-0.708,2.048-1.379,2.313-2.01c0.14-0.316,0.271-0.751,0.398-1.301
		c0.127-0.551,0.189-0.996,0.189-1.339C26.713,20.92,26.695,20.788,26.656,20.698L26.656,20.698z M26.656,20.698"/>
</g>
</svg>
