<?xml version="1.0" encoding="utf-8"?>
<!-- Generator: Adobe Illustrator 16.0.0, SVG Export Plug-In . SVG Version: 6.00 Build 0)  -->
<!DOCTYPE svg PUBLIC "-//W3C//DTD SVG 1.1//EN" "http://www.w3.org/Graphics/SVG/1.1/DTD/svg11.dtd">
<svg version="1.1" id="Capa_1" xmlns="http://www.w3.org/2000/svg" xmlns:xlink="http://www.w3.org/1999/xlink" x="0px" y="0px"
	 width="45.197px" height="45.197px" viewBox="85.399 50.401 45.197 45.197" enable-background="new 85.399 50.401 45.197 45.197"
	 xml:space="preserve">
<path fill="#2FBFBD" d="M129.592,89.677l-9.316-9.316c2.246-3.241,3.369-6.854,3.369-10.837c0-2.589-0.503-5.066-1.509-7.429
	c-1.004-2.363-2.362-4.4-4.073-6.112c-1.712-1.711-3.748-3.069-6.111-4.074s-4.84-1.507-7.43-1.507s-5.065,0.502-7.429,1.507
	s-4.4,2.363-6.111,4.074c-1.711,1.711-3.07,3.749-4.074,6.112c-1.005,2.363-1.508,4.839-1.508,7.429s0.502,5.065,1.508,7.429
	c1.004,2.362,2.363,4.399,4.074,6.11c1.711,1.711,3.749,3.069,6.111,4.074c2.363,1.006,4.839,1.508,7.429,1.508
	c3.984,0,7.597-1.123,10.838-3.368l9.316,9.288c0.651,0.688,1.466,1.033,2.444,1.033c0.941,0,1.757-0.345,2.444-1.033
	c0.688-0.688,1.032-1.502,1.032-2.443C130.597,91.161,130.263,90.347,129.592,89.677z M113.118,78.119
	c-2.381,2.381-5.247,3.571-8.597,3.571c-3.35,0-6.215-1.19-8.597-3.571c-2.381-2.382-3.572-5.247-3.572-8.597
	c0-3.35,1.191-6.216,3.572-8.597c2.381-2.381,5.247-3.572,8.597-3.572c3.35,0,6.215,1.191,8.597,3.572s3.572,5.247,3.572,8.597
	C116.69,72.873,115.499,75.737,113.118,78.119z"/>
</svg>
