<?xml version="1.0" encoding="utf-8"?>
<!-- Generator: Adobe Illustrator 16.0.0, SVG Export Plug-In . SVG Version: 6.00 Build 0)  -->
<!DOCTYPE svg PUBLIC "-//W3C//DTD SVG 1.1//EN" "http://www.w3.org/Graphics/SVG/1.1/DTD/svg11.dtd">
<svg version="1.1" id="Layer_1" xmlns="http://www.w3.org/2000/svg" xmlns:xlink="http://www.w3.org/1999/xlink" x="0px" y="0px"
	 width="104px" height="259px" viewBox="0 0 104 259" enable-background="new 0 0 104 259" xml:space="preserve">
<g>
	<rect x="-0.055" y="-0.498" fill="#231F20" width="104" height="260.35"/>
	<g>
		
			<linearGradient id="SVGID_1_" gradientUnits="userSpaceOnUse" x1="341.9434" y1="-233.9751" x2="341.9434" y2="-338.5047" gradientTransform="matrix(1 0 0 -1 -290 -120)">
			<stop  offset="0" style="stop-color:#DBA73D"/>
			<stop  offset="0.16" style="stop-color:#D99E3A"/>
			<stop  offset="0.3" style="stop-color:#A46C29"/>
			<stop  offset="0.4" style="stop-color:#8E5824"/>
			<stop  offset="0.54" style="stop-color:#F3F3B8"/>
			<stop  offset="0.56" style="stop-color:#F5EC98"/>
			<stop  offset="0.69" style="stop-color:#D5B668"/>
			<stop  offset="0.75" style="stop-color:#A7702A"/>
			<stop  offset="0.85" style="stop-color:#D2AC5C"/>
			<stop  offset="1" style="stop-color:#E0C67C"/>
		</linearGradient>
		<polygon fill="url(#SVGID_1_)" points="98.828,-0.498 98.828,195.511 51.954,209.966 5.062,195.511 5.062,-0.498 3.679,-0.498 
			3.679,210.068 51.954,224.949 100.21,210.068 100.21,-0.498 		"/>
	</g>
	<g>
		
			<linearGradient id="SVGID_2_" gradientUnits="userSpaceOnUse" x1="341.9443" y1="-323.3823" x2="341.9443" y2="-347.4089" gradientTransform="matrix(1 0 0 -1 -290 -120)">
			<stop  offset="0" style="stop-color:#FFFFFF;stop-opacity:0"/>
			<stop  offset="1" style="stop-color:#AE7324"/>
		</linearGradient>
		<polygon fill="url(#SVGID_2_)" points="5.423,209.105 5.423,185.94 51.954,200.284 98.467,185.94 98.467,209.105 51.954,223.449 
					"/>
	</g>
	<rect x="22.507" y="111.902" fill="#FFFFFF" width="58.876" height="14.54"/>
	<g>
		<path fill="#231F20" d="M39.746,120.41h0.026l0.826-4.169h1.416l-1.445,6.357h-1.376l-1.061-3.921h-0.026l-1.052,3.921h-1.376
			l-1.45-6.357h1.419l0.827,4.169H36.5l1.112-4.169h1.017L39.746,120.41z"/>
		<path fill="#231F20" d="M44.454,122.598h-1.458v-6.357h1.458V122.598z"/>
		<path fill="#231F20" d="M51.145,122.598h-1.459l-2.307-4.052l-0.026,0.009v4.043h-1.467v-6.357h1.467l2.307,4.052l0.026-0.009
			v-4.043h1.459V122.598z"/>
		<path fill="#231F20" d="M57.738,122.598h-1.457l-2.309-4.052l-0.024,0.009v4.043h-1.467v-6.357h1.467l2.307,4.052l0.026-0.009
			v-4.043h1.457V122.598z"/>
		<path fill="#231F20" d="M63.016,119.877h-2.472v1.585h2.912v1.135h-4.38v-6.357h4.389v1.135h-2.921v1.366h2.472V119.877z"/>
		<path fill="#231F20" d="M65.932,120.162v2.436h-1.468v-6.357h2.425c0.729,0,1.309,0.17,1.734,0.51
			c0.427,0.341,0.641,0.806,0.641,1.397c0,0.329-0.086,0.611-0.257,0.847c-0.172,0.236-0.426,0.428-0.761,0.576
			c0.387,0.111,0.665,0.294,0.834,0.553c0.168,0.257,0.253,0.578,0.253,0.962v0.401c0,0.167,0.024,0.355,0.073,0.567
			s0.135,0.364,0.256,0.454v0.087h-1.508c-0.114-0.09-0.19-0.25-0.227-0.48c-0.035-0.23-0.055-0.442-0.055-0.638v-0.384
			c0-0.302-0.079-0.534-0.238-0.694c-0.158-0.161-0.391-0.24-0.695-0.24h-1.008V120.162z M65.932,119.026h0.965
			c0.295,0,0.52-0.068,0.676-0.203s0.234-0.33,0.234-0.583c0-0.259-0.08-0.468-0.24-0.627c-0.162-0.158-0.387-0.238-0.678-0.238
			h-0.957V119.026z"/>
	</g>
	<g>
		<path fill="#676767" d="M40.435,230.987c0,0.274-0.04,0.527-0.118,0.76c-0.079,0.23-0.191,0.429-0.337,0.597
			c-0.146,0.166-0.323,0.297-0.529,0.39c-0.207,0.096-0.438,0.141-0.692,0.141c-0.265,0-0.501-0.045-0.71-0.141
			c-0.208-0.093-0.385-0.224-0.53-0.39c-0.145-0.168-0.255-0.366-0.332-0.597c-0.077-0.231-0.115-0.484-0.115-0.76
			c0-0.278,0.04-0.532,0.119-0.765c0.08-0.23,0.192-0.431,0.338-0.599c0.145-0.166,0.321-0.296,0.528-0.391
			c0.208-0.093,0.44-0.14,0.696-0.14c0.263,0,0.498,0.047,0.706,0.14c0.208,0.095,0.384,0.225,0.529,0.391
			c0.144,0.168,0.255,0.367,0.332,0.599C40.397,230.455,40.435,230.709,40.435,230.987z M39.997,230.987
			c0-0.246-0.032-0.462-0.095-0.649c-0.063-0.187-0.152-0.343-0.264-0.468c-0.112-0.125-0.244-0.22-0.396-0.284
			c-0.152-0.063-0.315-0.098-0.49-0.098c-0.174,0-0.337,0.033-0.489,0.098c-0.152,0.064-0.284,0.159-0.396,0.284
			c-0.112,0.125-0.2,0.281-0.264,0.468c-0.063,0.188-0.095,0.402-0.095,0.649c0,0.246,0.032,0.461,0.097,0.646
			c0.065,0.187,0.153,0.342,0.265,0.467c0.112,0.126,0.244,0.22,0.396,0.283c0.152,0.062,0.316,0.096,0.493,0.096
			c0.174,0,0.337-0.031,0.487-0.096c0.15-0.063,0.28-0.157,0.393-0.283c0.111-0.125,0.2-0.28,0.264-0.467
			C39.967,231.448,39.997,231.231,39.997,230.987z"/>
		<path fill="#676767" d="M42.596,230.562h-0.032c-0.099,0-0.196,0.01-0.291,0.027c-0.096,0.018-0.185,0.045-0.269,0.083
			c-0.083,0.037-0.159,0.084-0.227,0.138c-0.068,0.055-0.124,0.118-0.169,0.193v1.803H41.19v-2.587h0.324l0.081,0.41h0.008
			c0.042-0.065,0.093-0.13,0.153-0.188c0.06-0.06,0.128-0.108,0.204-0.152s0.158-0.077,0.248-0.103
			c0.09-0.024,0.185-0.036,0.284-0.036c0.018,0,0.037,0,0.056,0.001s0.035,0.002,0.049,0.004L42.596,230.562L42.596,230.562z"/>
		<path fill="#676767" d="M44.036,230.151c0.111,0.002,0.208,0.016,0.292,0.044c0.083,0.025,0.153,0.061,0.213,0.102
			c0.059,0.041,0.106,0.081,0.142,0.121c0.035,0.04,0.059,0.071,0.071,0.096h0.011l0.086-0.293h0.315v2.738
			c0,0.199-0.032,0.374-0.097,0.522c-0.065,0.147-0.156,0.271-0.272,0.369c-0.117,0.098-0.258,0.17-0.423,0.219
			c-0.165,0.047-0.347,0.071-0.547,0.071c-0.169,0-0.32-0.016-0.453-0.045s-0.238-0.065-0.313-0.107v-0.357
			c0.062,0.025,0.121,0.047,0.179,0.064c0.058,0.019,0.117,0.031,0.178,0.044c0.062,0.012,0.124,0.02,0.188,0.025
			c0.064,0.005,0.135,0.008,0.212,0.008c0.3,0,0.53-0.07,0.691-0.213c0.16-0.142,0.24-0.356,0.24-0.647v-0.347H44.74
			c-0.092,0.102-0.198,0.179-0.32,0.23c-0.121,0.052-0.26,0.078-0.417,0.078c-0.072,0-0.149-0.01-0.232-0.024
			c-0.083-0.017-0.166-0.044-0.248-0.084c-0.083-0.038-0.162-0.091-0.237-0.153c-0.076-0.064-0.143-0.146-0.2-0.242
			c-0.058-0.097-0.104-0.213-0.139-0.345c-0.035-0.133-0.053-0.286-0.053-0.461c0-0.24,0.033-0.449,0.097-0.627
			c0.065-0.177,0.15-0.324,0.256-0.44c0.106-0.115,0.228-0.203,0.365-0.26C43.749,230.179,43.89,230.151,44.036,230.151z
			 M43.331,231.528c0,0.203,0.024,0.369,0.073,0.499c0.049,0.128,0.11,0.229,0.185,0.301c0.074,0.071,0.156,0.12,0.244,0.147
			c0.088,0.026,0.172,0.039,0.251,0.039c0.13,0,0.251-0.026,0.364-0.079c0.113-0.052,0.213-0.124,0.3-0.215v-1.354
			c-0.023-0.033-0.056-0.069-0.097-0.11c-0.042-0.043-0.09-0.081-0.145-0.117c-0.055-0.035-0.117-0.064-0.188-0.088
			c-0.07-0.026-0.146-0.038-0.229-0.038c-0.125,0-0.234,0.025-0.328,0.075c-0.094,0.049-0.173,0.119-0.237,0.208
			s-0.112,0.195-0.145,0.32C43.347,231.241,43.331,231.378,43.331,231.528z"/>
		<path fill="#676767" d="M47.477,232.521h-0.01c-0.035,0.044-0.078,0.087-0.13,0.129c-0.052,0.044-0.112,0.081-0.181,0.114
			c-0.068,0.034-0.143,0.062-0.224,0.08c-0.081,0.021-0.167,0.03-0.259,0.03c-0.125,0-0.238-0.02-0.342-0.057
			c-0.104-0.038-0.192-0.092-0.267-0.164c-0.074-0.07-0.133-0.157-0.174-0.262c-0.042-0.104-0.062-0.221-0.062-0.353
			c0-0.128,0.022-0.243,0.068-0.345c0.046-0.103,0.11-0.189,0.193-0.26c0.083-0.069,0.183-0.125,0.298-0.164
			c0.116-0.037,0.245-0.057,0.385-0.057c0.133,0.002,0.257,0.014,0.37,0.036c0.113,0.021,0.214,0.048,0.302,0.082h0.011v-0.182
			c0-0.07-0.004-0.134-0.013-0.188c-0.009-0.054-0.024-0.104-0.046-0.145c-0.047-0.087-0.121-0.158-0.224-0.217
			c-0.103-0.057-0.241-0.085-0.416-0.085c-0.13,0-0.252,0.012-0.366,0.036c-0.114,0.024-0.228,0.059-0.341,0.104v-0.356
			c0.043-0.021,0.094-0.041,0.152-0.061c0.058-0.02,0.12-0.035,0.185-0.05c0.064-0.014,0.133-0.023,0.205-0.03
			c0.072-0.008,0.144-0.011,0.216-0.011c0.259,0,0.471,0.046,0.636,0.139s0.283,0.215,0.355,0.368
			c0.027,0.058,0.046,0.122,0.058,0.19c0.012,0.07,0.017,0.147,0.017,0.23v1.728h-0.35L47.477,232.521z M47.456,231.671
			c-0.077-0.022-0.168-0.043-0.274-0.063c-0.105-0.02-0.222-0.029-0.349-0.031c-0.177,0-0.316,0.037-0.417,0.114
			c-0.101,0.075-0.15,0.191-0.15,0.352c0,0.08,0.013,0.148,0.038,0.21c0.025,0.06,0.06,0.108,0.104,0.147
			c0.043,0.038,0.096,0.068,0.156,0.087c0.06,0.02,0.124,0.028,0.192,0.028c0.09,0,0.173-0.013,0.25-0.039
			c0.077-0.027,0.146-0.059,0.205-0.094c0.06-0.036,0.111-0.073,0.153-0.108c0.042-0.037,0.073-0.065,0.093-0.086L47.456,231.671
			L47.456,231.671z"/>
		<path fill="#676767" d="M49.089,230.579h0.008c0.047-0.062,0.099-0.116,0.155-0.168c0.057-0.053,0.12-0.098,0.19-0.138
			c0.07-0.037,0.147-0.067,0.23-0.091c0.084-0.021,0.175-0.031,0.274-0.031c0.118,0,0.228,0.016,0.33,0.049
			c0.103,0.033,0.191,0.085,0.267,0.158s0.136,0.167,0.18,0.284c0.044,0.118,0.066,0.262,0.066,0.432v1.732h-0.418v-1.664
			c0-0.224-0.043-0.384-0.128-0.481c-0.085-0.1-0.21-0.147-0.374-0.147c-0.144,0-0.283,0.04-0.418,0.12
			c-0.135,0.081-0.251,0.192-0.348,0.334v1.839h-0.418v-2.586h0.324L49.089,230.579z"/>
		<path fill="#676767" d="M51.615,229.617v-0.471h0.419v0.471H51.615z M51.626,232.807v-2.586h0.418v2.586H51.626z"/>
		<path fill="#676767" d="M53.182,230.908c0,0.07,0.014,0.129,0.045,0.174c0.029,0.046,0.069,0.082,0.119,0.109
			c0.051,0.028,0.108,0.053,0.174,0.069c0.066,0.02,0.135,0.034,0.205,0.049c0.098,0.023,0.188,0.048,0.274,0.072
			c0.086,0.026,0.166,0.066,0.239,0.119c0.072,0.053,0.131,0.123,0.177,0.213c0.045,0.091,0.067,0.207,0.067,0.351
			c0,0.132-0.025,0.246-0.076,0.347c-0.051,0.102-0.121,0.187-0.213,0.254s-0.201,0.12-0.33,0.156
			c-0.127,0.034-0.268,0.053-0.42,0.053c-0.094,0-0.18-0.006-0.256-0.016c-0.076-0.011-0.145-0.021-0.203-0.037
			c-0.059-0.017-0.108-0.032-0.149-0.049c-0.042-0.017-0.076-0.03-0.103-0.046v-0.354c0.105,0.043,0.211,0.076,0.314,0.104
			c0.104,0.024,0.221,0.038,0.346,0.038c0.099,0,0.188-0.009,0.268-0.027c0.078-0.018,0.148-0.044,0.206-0.079
			c0.057-0.035,0.102-0.081,0.132-0.134c0.031-0.055,0.047-0.116,0.047-0.188c0-0.072-0.016-0.134-0.043-0.181
			c-0.027-0.046-0.064-0.085-0.113-0.115c-0.048-0.032-0.104-0.057-0.166-0.077c-0.062-0.021-0.129-0.037-0.197-0.055
			c-0.09-0.021-0.182-0.043-0.273-0.07c-0.093-0.025-0.177-0.065-0.253-0.114c-0.076-0.05-0.138-0.116-0.185-0.199
			c-0.047-0.085-0.069-0.193-0.069-0.325c0-0.136,0.024-0.256,0.073-0.354c0.049-0.101,0.113-0.184,0.197-0.248
			c0.082-0.065,0.178-0.114,0.287-0.146c0.11-0.033,0.227-0.049,0.35-0.049c0.143,0,0.273,0.013,0.396,0.04s0.231,0.062,0.331,0.104
			v0.359c-0.105-0.042-0.212-0.075-0.32-0.103c-0.107-0.026-0.219-0.04-0.332-0.042c-0.098,0-0.181,0.01-0.248,0.03
			c-0.068,0.02-0.125,0.048-0.168,0.082c-0.045,0.036-0.076,0.078-0.098,0.125C53.189,230.797,53.182,230.851,53.182,230.908z"/>
		<path fill="#676767" d="M56.334,232.507c0.139,0,0.266-0.013,0.379-0.034c0.114-0.021,0.229-0.056,0.342-0.097v0.352
			c-0.092,0.045-0.205,0.081-0.34,0.107c-0.136,0.024-0.279,0.039-0.436,0.039c-0.184,0-0.355-0.023-0.518-0.07
			c-0.162-0.048-0.301-0.124-0.418-0.229c-0.117-0.105-0.21-0.245-0.275-0.414c-0.066-0.17-0.102-0.374-0.102-0.612
			c0-0.237,0.032-0.441,0.098-0.615c0.064-0.171,0.15-0.316,0.259-0.435c0.106-0.115,0.231-0.203,0.372-0.261
			c0.14-0.06,0.285-0.087,0.438-0.087c0.145,0,0.278,0.023,0.403,0.071c0.124,0.049,0.231,0.124,0.323,0.229
			s0.164,0.236,0.217,0.399c0.054,0.164,0.08,0.359,0.08,0.588c0,0.021,0,0.041,0,0.057c0,0.015-0.002,0.05-0.004,0.104h-1.771
			c0,0.165,0.024,0.306,0.074,0.422c0.05,0.114,0.117,0.208,0.202,0.279c0.086,0.071,0.186,0.124,0.302,0.156
			C56.076,232.49,56.2,232.507,56.334,232.507z M56.113,230.514c-0.098,0-0.188,0.02-0.271,0.058
			c-0.083,0.037-0.155,0.091-0.217,0.155s-0.112,0.143-0.149,0.23c-0.039,0.088-0.062,0.182-0.072,0.282h1.312
			c0-0.104-0.013-0.197-0.039-0.285c-0.025-0.088-0.064-0.164-0.115-0.231c-0.051-0.063-0.114-0.116-0.188-0.152
			C56.298,230.532,56.212,230.514,56.113,230.514z"/>
		<path fill="#676767" d="M57.719,231.545c0-0.18,0.018-0.339,0.053-0.478c0.035-0.14,0.082-0.26,0.14-0.363s0.125-0.19,0.202-0.26
			c0.078-0.07,0.158-0.127,0.24-0.171c0.082-0.043,0.166-0.074,0.252-0.095c0.086-0.02,0.166-0.027,0.242-0.027
			c0.156,0,0.293,0.025,0.407,0.079c0.115,0.052,0.22,0.128,0.312,0.23h0.008v-1.599h0.418v3.943h-0.315l-0.087-0.29h-0.01
			c-0.032,0.042-0.07,0.085-0.113,0.127c-0.044,0.044-0.095,0.082-0.152,0.116c-0.059,0.035-0.125,0.062-0.203,0.083
			c-0.075,0.021-0.164,0.03-0.266,0.03c-0.141,0-0.277-0.022-0.412-0.07c-0.136-0.05-0.256-0.127-0.36-0.232
			c-0.105-0.104-0.19-0.243-0.257-0.41C57.751,231.991,57.719,231.787,57.719,231.545z M58.156,231.539
			c0,0.149,0.017,0.283,0.05,0.405c0.032,0.12,0.082,0.224,0.146,0.308c0.062,0.084,0.141,0.149,0.23,0.194
			c0.093,0.046,0.197,0.067,0.316,0.067c0.088,0,0.168-0.012,0.24-0.035c0.07-0.023,0.137-0.054,0.192-0.09s0.104-0.075,0.146-0.115
			c0.041-0.041,0.072-0.079,0.097-0.112v-1.354c-0.087-0.091-0.187-0.161-0.3-0.215c-0.113-0.053-0.235-0.081-0.367-0.081
			c-0.079,0-0.162,0.016-0.249,0.046c-0.089,0.03-0.169,0.085-0.243,0.161c-0.074,0.079-0.137,0.184-0.186,0.315
			C58.182,231.166,58.156,231.335,58.156,231.539z"/>
		<path fill="#676767" d="M64.234,231.469c0,0.242-0.032,0.451-0.098,0.626c-0.063,0.177-0.15,0.322-0.257,0.438
			c-0.104,0.114-0.228,0.2-0.364,0.256c-0.136,0.058-0.277,0.085-0.424,0.085c-0.109,0-0.205-0.014-0.29-0.041
			c-0.083-0.027-0.153-0.062-0.213-0.102s-0.104-0.078-0.141-0.117c-0.035-0.041-0.06-0.073-0.074-0.098h-0.008l-0.089,0.29h-0.316
			v-3.943h0.418v1.599h0.01c0.092-0.099,0.198-0.175,0.32-0.229c0.122-0.057,0.262-0.082,0.418-0.082
			c0.072,0,0.15,0.008,0.232,0.023c0.084,0.018,0.168,0.046,0.248,0.085c0.082,0.039,0.162,0.093,0.238,0.156
			c0.074,0.066,0.141,0.147,0.198,0.245s0.104,0.213,0.138,0.346C64.218,231.143,64.234,231.295,64.234,231.469z M63.798,231.502
			c0-0.206-0.024-0.372-0.071-0.499c-0.047-0.128-0.108-0.229-0.184-0.3c-0.075-0.072-0.154-0.122-0.238-0.147
			c-0.086-0.028-0.17-0.042-0.255-0.042c-0.13,0-0.251,0.027-0.366,0.081c-0.113,0.056-0.215,0.126-0.304,0.213v1.354
			c0.024,0.035,0.06,0.073,0.099,0.114c0.041,0.039,0.09,0.077,0.146,0.113c0.056,0.034,0.119,0.064,0.188,0.09
			c0.069,0.023,0.146,0.036,0.229,0.036c0.124,0,0.232-0.024,0.328-0.074c0.095-0.048,0.174-0.118,0.236-0.206
			c0.063-0.091,0.112-0.197,0.146-0.323C63.781,231.787,63.798,231.65,63.798,231.502z"/>
		<path fill="#676767" d="M64.572,230.221h0.418l0.797,2.027h0.018l0.816-2.027h0.418l-1.588,3.852h-0.416l0.548-1.318
			L64.572,230.221z"/>
	</g>
	<g>
		<g>
			<path fill="#FFFFFF" d="M22.619,69.722v-5.704h1.496c0.132,0,0.267,0.004,0.403,0.013c0.137,0.009,0.27,0.021,0.399,0.039
				c0.129,0.017,0.255,0.038,0.376,0.062c0.121,0.024,0.232,0.053,0.334,0.086c0.302,0.097,0.568,0.228,0.799,0.392
				c0.231,0.166,0.425,0.359,0.581,0.584c0.157,0.225,0.275,0.475,0.355,0.752c0.081,0.277,0.121,0.578,0.121,0.902
				c0,0.306-0.034,0.595-0.101,0.862c-0.068,0.27-0.171,0.513-0.309,0.735c-0.138,0.222-0.312,0.418-0.522,0.586
				c-0.21,0.169-0.458,0.307-0.746,0.416c-0.24,0.091-0.512,0.159-0.816,0.205c-0.304,0.045-0.646,0.068-1.027,0.068H22.619z
				 M24.081,68.848c0.606,0,1.079-0.083,1.42-0.252c0.302-0.15,0.53-0.37,0.685-0.656c0.155-0.288,0.232-0.653,0.232-1.1
				c0-0.233-0.025-0.443-0.076-0.63c-0.051-0.188-0.124-0.355-0.22-0.501c-0.096-0.146-0.212-0.272-0.349-0.377
				c-0.136-0.105-0.291-0.191-0.462-0.26c-0.161-0.063-0.339-0.108-0.537-0.136c-0.197-0.028-0.418-0.042-0.664-0.042h-0.457v3.955
				H24.081z"/>
			<path fill="#FFFFFF" d="M33.838,66.87c0,0.435-0.061,0.833-0.184,1.197c-0.122,0.362-0.301,0.673-0.537,0.936
				c-0.236,0.263-0.524,0.464-0.866,0.609c-0.342,0.145-0.732,0.218-1.168,0.218s-0.826-0.073-1.168-0.218
				c-0.342-0.146-0.631-0.348-0.866-0.609c-0.235-0.261-0.415-0.574-0.537-0.936c-0.123-0.362-0.184-0.761-0.184-1.197
				c0-0.435,0.061-0.833,0.184-1.196c0.122-0.362,0.301-0.674,0.537-0.935c0.236-0.261,0.524-0.464,0.866-0.609
				c0.342-0.146,0.732-0.217,1.168-0.217s0.826,0.073,1.168,0.217c0.342,0.145,0.631,0.348,0.866,0.609
				c0.235,0.261,0.415,0.573,0.537,0.935C33.777,66.037,33.838,66.436,33.838,66.87z M32.769,66.87c0-0.347-0.042-0.65-0.126-0.91
				c-0.085-0.26-0.202-0.477-0.351-0.65c-0.149-0.174-0.327-0.303-0.532-0.389c-0.205-0.086-0.431-0.127-0.676-0.127
				s-0.471,0.042-0.676,0.127c-0.205,0.084-0.383,0.215-0.532,0.389c-0.149,0.173-0.266,0.389-0.351,0.65
				c-0.084,0.26-0.126,0.563-0.126,0.91c0,0.347,0.042,0.651,0.126,0.91c0.085,0.261,0.202,0.477,0.351,0.648
				c0.149,0.172,0.327,0.301,0.532,0.388c0.205,0.087,0.431,0.13,0.676,0.13s0.471-0.043,0.676-0.13
				c0.205-0.087,0.383-0.216,0.532-0.388c0.149-0.171,0.266-0.387,0.351-0.648C32.727,67.521,32.769,67.217,32.769,66.87z"/>
			<path fill="#FFFFFF" d="M37.037,69.722h-1.035v-4.83h-1.826v-0.875h4.683v0.875h-1.822V69.722z"/>
			<path fill="#FFFFFF" d="M43.009,67.514c-0.093,0-0.185-0.001-0.275-0.004c-0.09-0.002-0.174-0.008-0.253-0.018v2.23h-1.035
				v-5.704h1.631c0.273,0,0.512,0.012,0.716,0.037c0.205,0.024,0.387,0.061,0.547,0.108c0.386,0.12,0.684,0.31,0.892,0.571
				s0.312,0.594,0.312,0.998c0,0.275-0.056,0.523-0.169,0.743c-0.113,0.22-0.277,0.407-0.495,0.561
				c-0.217,0.153-0.481,0.271-0.794,0.354C43.773,67.473,43.414,67.514,43.009,67.514z M42.48,66.615
				c0.06,0.008,0.135,0.015,0.226,0.019c0.092,0.004,0.187,0.006,0.286,0.006c0.279,0,0.513-0.022,0.702-0.068
				c0.188-0.046,0.341-0.108,0.456-0.189c0.115-0.081,0.199-0.179,0.25-0.294c0.051-0.116,0.076-0.242,0.076-0.377
				c0-0.167-0.038-0.313-0.114-0.435c-0.076-0.122-0.208-0.218-0.397-0.286c-0.098-0.034-0.22-0.059-0.365-0.074
				c-0.145-0.016-0.324-0.023-0.534-0.023H42.48V66.615z"/>
			<path fill="#FFFFFF" d="M50.826,65.732c0,0.398-0.109,0.735-0.328,1.012c-0.218,0.276-0.556,0.482-1.012,0.616v0.017l1.683,2.345
				h-1.243l-1.538-2.208h-0.71v2.208h-1.035v-5.704h1.72c0.285,0,0.549,0.017,0.794,0.049c0.245,0.032,0.455,0.082,0.629,0.147
				c0.333,0.127,0.589,0.317,0.769,0.569C50.736,65.035,50.826,65.351,50.826,65.732z M48.189,66.64
				c0.237,0,0.438-0.011,0.602-0.032c0.165-0.021,0.304-0.053,0.417-0.096c0.208-0.08,0.353-0.188,0.433-0.326
				c0.08-0.137,0.12-0.295,0.12-0.475c0-0.154-0.032-0.29-0.095-0.407c-0.063-0.118-0.171-0.211-0.323-0.279
				c-0.099-0.045-0.223-0.079-0.372-0.101c-0.15-0.021-0.334-0.031-0.554-0.031h-0.74v1.747H48.189z"/>
			<path fill="#FFFFFF" d="M57.334,66.87c0,0.435-0.061,0.833-0.184,1.197c-0.123,0.362-0.303,0.673-0.537,0.936
				c-0.234,0.262-0.523,0.464-0.866,0.609c-0.343,0.145-0.731,0.218-1.168,0.218s-0.826-0.073-1.169-0.218
				c-0.342-0.146-0.631-0.348-0.866-0.609c-0.235-0.261-0.414-0.574-0.536-0.936c-0.123-0.362-0.184-0.761-0.184-1.197
				c0-0.435,0.061-0.833,0.184-1.196c0.122-0.362,0.301-0.674,0.536-0.935c0.235-0.261,0.524-0.464,0.866-0.609
				c0.343-0.146,0.732-0.217,1.169-0.217s0.825,0.073,1.168,0.217c0.343,0.145,0.632,0.348,0.866,0.609s0.414,0.573,0.537,0.935
				C57.273,66.037,57.334,66.436,57.334,66.87z M56.266,66.87c0-0.347-0.043-0.65-0.127-0.91s-0.201-0.477-0.352-0.65
				c-0.148-0.174-0.326-0.303-0.532-0.389c-0.206-0.086-0.431-0.127-0.676-0.127s-0.472,0.042-0.677,0.127
				c-0.205,0.084-0.383,0.215-0.532,0.389c-0.149,0.173-0.267,0.389-0.351,0.65c-0.084,0.26-0.127,0.563-0.127,0.91
				c0,0.347,0.041,0.651,0.127,0.91c0.084,0.261,0.201,0.477,0.351,0.648c0.149,0.172,0.327,0.301,0.532,0.388
				s0.432,0.13,0.677,0.13s0.47-0.043,0.676-0.13s0.384-0.216,0.532-0.388c0.148-0.171,0.268-0.387,0.352-0.648
				C56.223,67.521,56.266,67.217,56.266,66.87z"/>
			<path fill="#FFFFFF" d="M59.996,67.514c-0.094,0-0.186-0.001-0.273-0.004c-0.091-0.002-0.176-0.008-0.255-0.018v2.23h-1.034
				v-5.704h1.631c0.273,0,0.513,0.012,0.717,0.037c0.203,0.024,0.387,0.061,0.547,0.108c0.387,0.12,0.684,0.31,0.893,0.571
				s0.312,0.594,0.312,0.998c0,0.275-0.057,0.523-0.17,0.743c-0.112,0.22-0.276,0.407-0.494,0.561
				c-0.217,0.153-0.48,0.271-0.794,0.354C60.762,67.473,60.402,67.514,59.996,67.514z M59.468,66.615
				c0.06,0.008,0.136,0.015,0.228,0.019c0.091,0.004,0.187,0.006,0.285,0.006c0.278,0,0.513-0.022,0.701-0.068
				c0.188-0.046,0.342-0.108,0.457-0.189c0.114-0.081,0.197-0.179,0.248-0.294c0.051-0.117,0.076-0.242,0.076-0.377
				c0-0.167-0.038-0.313-0.113-0.435c-0.076-0.122-0.209-0.218-0.397-0.286c-0.099-0.034-0.22-0.059-0.365-0.074
				c-0.146-0.016-0.323-0.023-0.534-0.023h-0.584L59.468,66.615L59.468,66.615z"/>
			<path fill="#FFFFFF" d="M64.666,68.848h2.781v0.874h-3.816v-5.704h3.664v0.875h-2.629v1.475h2.257v0.874h-2.257V68.848z"/>
			<path fill="#FFFFFF" d="M72.729,65.732c0,0.398-0.108,0.735-0.328,1.012c-0.217,0.276-0.555,0.482-1.012,0.616v0.017l1.682,2.345
				h-1.241l-1.538-2.208h-0.71v2.208h-1.035v-5.704h1.72c0.284,0,0.549,0.017,0.795,0.049c0.244,0.032,0.455,0.082,0.629,0.147
				c0.334,0.127,0.59,0.317,0.771,0.569C72.639,65.035,72.729,65.351,72.729,65.732z M70.092,66.64c0.237,0,0.438-0.011,0.604-0.032
				c0.164-0.021,0.304-0.053,0.416-0.096c0.209-0.08,0.353-0.188,0.434-0.326c0.08-0.137,0.12-0.295,0.12-0.475
				c0-0.154-0.031-0.29-0.095-0.407c-0.063-0.118-0.172-0.211-0.323-0.279c-0.099-0.045-0.224-0.079-0.372-0.101
				c-0.148-0.021-0.334-0.031-0.555-0.031h-0.738v1.747H70.092z"/>
			<path fill="#FFFFFF" d="M76.292,69.722h-1.036v-4.83h-1.824v-0.875h4.682v0.875h-1.82L76.292,69.722L76.292,69.722z"/>
			<path fill="#FFFFFF" d="M80.991,66.474l1.504-2.455h1.149l-2.144,3.405v2.298h-1.035v-2.298l-2.143-3.405h1.149l1.504,2.455
				H80.991z"/>
			<path fill="#FFFFFF" d="M15.94,80.178h-1.036v-4.83h-1.825v-0.873h4.682v0.873H15.94V80.178z"/>
			<path fill="#FFFFFF" d="M19.6,76.823h2.62v-2.349h1.036v5.703H22.22v-2.48H19.6v2.48h-1.036v-5.703H19.6V76.823z"/>
			<path fill="#FFFFFF" d="M27.844,78.725h-2.129l-0.554,1.454h-1.103l2.244-5.703h0.946l2.244,5.703h-1.095L27.844,78.725z
				 M26.771,75.848c-0.197,0.596-0.374,1.095-0.529,1.496l-0.193,0.507h1.461l-0.193-0.507c-0.153-0.404-0.33-0.903-0.529-1.496
				H26.771z"/>
			<path fill="#FFFFFF" d="M30.295,80.178v-5.703h1.036v5.703H30.295z"/>
			<path fill="#FFFFFF" d="M33.718,74.475v4.83h2.646v0.875h-3.681v-5.703L33.718,74.475L33.718,74.475z"/>
			<path fill="#FFFFFF" d="M40.572,78.725h-2.129l-0.554,1.454h-1.103l2.244-5.703h0.947l2.244,5.703h-1.095L40.572,78.725z
				 M39.499,75.848c-0.198,0.596-0.374,1.095-0.529,1.496l-0.194,0.507h1.461l-0.193-0.507c-0.153-0.404-0.33-0.903-0.529-1.496
				H39.499z"/>
			<path fill="#FFFFFF" d="M45.968,77.126c0.406,0.583,0.736,1.099,0.989,1.551h0.025c-0.034-0.742-0.051-1.282-0.051-1.619v-2.583
				h1.036v5.703h-1.086l-1.842-2.626c-0.324-0.455-0.659-0.982-1.005-1.582h-0.026c0.034,0.699,0.051,1.24,0.051,1.624v2.583h-1.035
				v-5.703h1.086L45.968,77.126z"/>
			<path fill="#FFFFFF" d="M49.319,80.178v-5.703h1.496c0.132,0,0.267,0.004,0.404,0.013c0.137,0.009,0.27,0.021,0.399,0.039
				c0.13,0.017,0.255,0.038,0.376,0.062s0.233,0.054,0.334,0.088c0.301,0.097,0.568,0.227,0.799,0.392
				c0.23,0.165,0.425,0.359,0.581,0.584c0.155,0.224,0.274,0.475,0.354,0.752c0.08,0.277,0.121,0.578,0.121,0.901
				c0,0.307-0.035,0.595-0.103,0.863c-0.067,0.269-0.17,0.513-0.31,0.735c-0.138,0.222-0.312,0.418-0.521,0.586
				c-0.21,0.168-0.459,0.308-0.746,0.416c-0.24,0.091-0.512,0.16-0.816,0.205s-0.646,0.068-1.027,0.068L49.319,80.178L49.319,80.178
				z M50.782,79.304c0.605,0,1.079-0.083,1.42-0.251c0.301-0.151,0.528-0.37,0.685-0.657c0.155-0.287,0.233-0.653,0.233-1.099
				c0-0.233-0.026-0.443-0.077-0.63c-0.05-0.188-0.124-0.354-0.22-0.501c-0.095-0.146-0.212-0.272-0.348-0.377
				c-0.137-0.105-0.291-0.191-0.463-0.26c-0.16-0.063-0.339-0.108-0.537-0.137c-0.197-0.028-0.418-0.042-0.664-0.042h-0.457v3.955
				L50.782,79.304L50.782,79.304z"/>
			<path fill="#FFFFFF" d="M59.921,78.725h-2.128l-0.555,1.454h-1.104l2.243-5.703h0.947l2.243,5.703h-1.094L59.921,78.725z
				 M58.85,75.848c-0.199,0.596-0.375,1.095-0.529,1.496l-0.193,0.507h1.462l-0.192-0.507c-0.153-0.404-0.33-0.903-0.529-1.496
				H58.85z"/>
			<path fill="#FFFFFF" d="M65.264,75.975c-0.109,0.532-0.236,1.081-0.381,1.646l-0.634,2.558h-1.031l-1.796-5.703h1.104
				l0.681,2.271c0.206,0.713,0.372,1.358,0.499,1.935h0.025c0.123-0.62,0.267-1.255,0.431-1.905l0.583-2.302h1.064l0.584,2.302
				c0.162,0.646,0.307,1.281,0.431,1.905h0.024c0.155-0.682,0.321-1.327,0.5-1.935l0.68-2.271h1.104l-1.796,5.703h-1.03L65.67,77.62
				c-0.145-0.577-0.271-1.125-0.38-1.646H65.264z"/>
			<path fill="#FFFFFF" d="M72.768,78.725h-2.129l-0.554,1.454h-1.103l2.242-5.703h0.946l2.244,5.703H73.32L72.768,78.725z
				 M71.695,75.848c-0.198,0.596-0.375,1.095-0.529,1.496l-0.193,0.507h1.463l-0.193-0.507c-0.153-0.404-0.33-0.903-0.529-1.496
				H71.695z"/>
			<path fill="#FFFFFF" d="M79.402,76.188c0,0.398-0.108,0.735-0.327,1.013c-0.218,0.277-0.556,0.482-1.013,0.616v0.017l1.683,2.344
				h-1.242l-1.538-2.208h-0.71v2.208h-1.034v-5.703h1.719c0.285,0,0.55,0.016,0.795,0.049c0.244,0.032,0.455,0.082,0.629,0.147
				c0.334,0.128,0.59,0.318,0.771,0.569C79.312,75.491,79.402,75.808,79.402,76.188z M76.766,77.095c0.237,0,0.438-0.01,0.604-0.031
				c0.165-0.021,0.304-0.054,0.417-0.096c0.208-0.079,0.353-0.188,0.433-0.326c0.08-0.138,0.12-0.296,0.12-0.475
				c0-0.153-0.03-0.29-0.095-0.406c-0.062-0.118-0.171-0.211-0.323-0.279c-0.099-0.046-0.223-0.079-0.372-0.1
				c-0.148-0.021-0.334-0.033-0.554-0.033h-0.739v1.747L76.766,77.095L76.766,77.095z"/>
			<path fill="#FFFFFF" d="M80.652,80.178v-5.703h1.496c0.134,0,0.269,0.004,0.404,0.013c0.137,0.009,0.271,0.021,0.398,0.039
				c0.13,0.017,0.256,0.038,0.376,0.062c0.122,0.024,0.233,0.054,0.334,0.088c0.302,0.097,0.567,0.227,0.799,0.392
				c0.231,0.165,0.425,0.359,0.581,0.584c0.157,0.224,0.275,0.475,0.355,0.752c0.08,0.277,0.119,0.578,0.119,0.901
				c0,0.307-0.033,0.595-0.101,0.863c-0.067,0.269-0.171,0.513-0.31,0.735c-0.139,0.222-0.312,0.418-0.521,0.586
				s-0.459,0.308-0.746,0.416c-0.238,0.091-0.512,0.16-0.814,0.205c-0.306,0.045-0.646,0.068-1.026,0.068L80.652,80.178
				L80.652,80.178z M82.116,79.304c0.604,0,1.077-0.083,1.42-0.251c0.301-0.151,0.528-0.37,0.685-0.657
				c0.154-0.287,0.232-0.653,0.232-1.099c0-0.233-0.026-0.443-0.076-0.63c-0.051-0.188-0.124-0.354-0.221-0.501
				c-0.096-0.146-0.211-0.272-0.348-0.377c-0.138-0.105-0.291-0.191-0.463-0.26c-0.16-0.063-0.341-0.108-0.537-0.137
				c-0.197-0.028-0.418-0.042-0.664-0.042h-0.457v3.955L82.116,79.304L82.116,79.304z"/>
			<path fill="#FFFFFF" d="M89.396,78.541c0-0.146-0.035-0.262-0.105-0.351c-0.068-0.09-0.166-0.163-0.287-0.22
				c-0.121-0.058-0.257-0.104-0.406-0.139c-0.152-0.036-0.311-0.07-0.477-0.104c-0.221-0.048-0.43-0.104-0.63-0.173
				c-0.2-0.067-0.376-0.159-0.528-0.276c-0.15-0.118-0.273-0.269-0.363-0.45c-0.09-0.182-0.135-0.41-0.135-0.682
				c0-0.302,0.053-0.564,0.156-0.787c0.104-0.223,0.246-0.408,0.425-0.554c0.179-0.146,0.39-0.255,0.629-0.329
				c0.241-0.073,0.513-0.108,0.814-0.108c0.301,0,0.604,0.029,0.907,0.089c0.305,0.06,0.566,0.136,0.787,0.231v0.895
				c-0.293-0.117-0.574-0.201-0.845-0.253c-0.269-0.052-0.521-0.078-0.759-0.078c-0.34,0-0.604,0.062-0.788,0.188
				s-0.276,0.312-0.276,0.562c0,0.146,0.03,0.265,0.092,0.358c0.061,0.094,0.144,0.172,0.246,0.232
				c0.104,0.062,0.226,0.11,0.359,0.147c0.137,0.038,0.279,0.072,0.432,0.103c0.239,0.052,0.469,0.11,0.688,0.177
				c0.218,0.066,0.412,0.16,0.581,0.279c0.169,0.12,0.303,0.274,0.401,0.467c0.099,0.192,0.146,0.437,0.146,0.735
				c0,0.307-0.057,0.573-0.169,0.797c-0.112,0.225-0.272,0.411-0.479,0.557c-0.207,0.146-0.457,0.255-0.754,0.326
				c-0.295,0.07-0.619,0.106-0.973,0.106c-0.307,0-0.607-0.03-0.906-0.092c-0.297-0.062-0.543-0.147-0.74-0.258v-0.883
				c0.277,0.122,0.551,0.211,0.814,0.266c0.266,0.056,0.538,0.083,0.819,0.083c0.163,0,0.323-0.014,0.481-0.042
				c0.157-0.026,0.299-0.072,0.426-0.138c0.125-0.065,0.226-0.155,0.302-0.267C89.357,78.846,89.396,78.706,89.396,78.541z"/>
		</g>
		<g>
			<path fill="#FFFFFF" d="M41.921,96.005h-8.08v-1.76l3.711-3.935c0.47-0.543,0.816-1.029,1.039-1.456
				c0.222-0.426,0.333-0.797,0.333-1.111c0-0.448-0.112-0.805-0.337-1.071c-0.225-0.268-0.562-0.399-1.011-0.399
				c-0.402,0-0.718,0.171-0.948,0.516c-0.23,0.344-0.345,0.783-0.345,1.315h-2.617l-0.016-0.047
				c-0.026-1.077,0.323-1.99,1.047-2.739c0.724-0.75,1.684-1.124,2.878-1.124c1.269,0,2.258,0.315,2.97,0.944
				c0.711,0.629,1.066,1.491,1.066,2.583c0,0.735-0.188,1.387-0.566,1.952c-0.378,0.566-1.075,1.405-2.089,2.52l-1.562,1.687
				l0.023,0.047h4.504V96.005L41.921,96.005z"/>
			<path fill="#FFFFFF" d="M51.262,91.406c0,1.573-0.362,2.761-1.086,3.564c-0.725,0.802-1.7,1.203-2.926,1.203
				c-1.237,0-2.218-0.401-2.942-1.203s-1.086-1.991-1.086-3.564v-2.447c0-1.574,0.359-2.761,1.079-3.563
				c0.719-0.803,1.697-1.203,2.934-1.203c1.231,0,2.211,0.402,2.938,1.208c0.727,0.806,1.09,1.992,1.09,3.56L51.262,91.406
				L51.262,91.406z M48.59,88.774c0-0.891-0.117-1.53-0.349-1.919c-0.233-0.39-0.569-0.584-1.007-0.584
				c-0.444,0-0.778,0.194-1.003,0.584c-0.225,0.389-0.336,1.029-0.336,1.919v2.799c0,0.907,0.113,1.553,0.34,1.94
				c0.228,0.386,0.566,0.58,1.016,0.58c0.438,0,0.771-0.192,0.999-0.58c0.228-0.387,0.341-1.033,0.341-1.94L48.59,88.774
				L48.59,88.774z"/>
			<path fill="#FFFFFF" d="M58.335,96.005h-2.672v-8.934h-2.577v-1.904l5.249-0.815V96.005z"/>
			<path fill="#FFFFFF" d="M65.503,94.093c0.534,0,0.976-0.192,1.324-0.58c0.35-0.387,0.522-0.922,0.522-1.604v-0.512
				c-0.259,0.32-0.561,0.562-0.904,0.725c-0.342,0.162-0.707,0.244-1.094,0.244c-1.052,0-1.875-0.358-2.47-1.075
				c-0.595-0.717-0.894-1.698-0.894-2.939c0-1.157,0.377-2.14,1.127-2.948c0.751-0.808,1.718-1.211,2.902-1.211
				c1.162,0,2.121,0.423,2.873,1.272c0.754,0.847,1.131,2.013,1.131,3.495v2.768c0,1.344-0.429,2.421-1.285,3.231
				c-0.855,0.811-1.935,1.216-3.234,1.216c-0.396,0-0.809-0.044-1.232-0.132c-0.426-0.088-0.832-0.212-1.218-0.373l0.277-1.927
				c0.37,0.123,0.721,0.212,1.051,0.268C64.712,94.066,65.085,94.093,65.503,94.093z M65.939,90.423c0.301,0,0.57-0.054,0.812-0.161
				c0.24-0.105,0.44-0.253,0.599-0.439v-1.2c0-0.762-0.125-1.344-0.377-1.747c-0.25-0.402-0.572-0.604-0.963-0.604
				c-0.412,0-0.738,0.21-0.979,0.631c-0.241,0.421-0.36,0.904-0.36,1.449c0,0.639,0.104,1.145,0.317,1.515
				C65.199,90.237,65.518,90.423,65.939,90.423z"/>
		</g>
		<g>
			<g>
				
					<linearGradient id="SVGID_3_" gradientUnits="userSpaceOnUse" x1="335.834" y1="-176.0132" x2="335.834" y2="-129.4756" gradientTransform="matrix(1 0 0 -1 -290 -120)">
					<stop  offset="0" style="stop-color:#DBA73D"/>
					<stop  offset="0.16" style="stop-color:#D99E3A"/>
					<stop  offset="0.3" style="stop-color:#A46C29"/>
					<stop  offset="0.4" style="stop-color:#8E5824"/>
					<stop  offset="0.54" style="stop-color:#F3F3B8"/>
					<stop  offset="0.56" style="stop-color:#F5EC98"/>
					<stop  offset="0.69" style="stop-color:#D5B668"/>
					<stop  offset="0.75" style="stop-color:#A7702A"/>
					<stop  offset="0.85" style="stop-color:#D2AC5C"/>
					<stop  offset="1" style="stop-color:#E0C67C"/>
				</linearGradient>
				<polygon fill="url(#SVGID_3_)" points="42.76,20.423 48.909,18.585 48.909,21.801 42.76,23.638 				"/>
				
					<linearGradient id="SVGID_4_" gradientUnits="userSpaceOnUse" x1="335.834" y1="-176.02" x2="335.834" y2="-129.474" gradientTransform="matrix(1 0 0 -1 -290 -120)">
					<stop  offset="0" style="stop-color:#DBA73D"/>
					<stop  offset="0.16" style="stop-color:#D99E3A"/>
					<stop  offset="0.3" style="stop-color:#A46C29"/>
					<stop  offset="0.4" style="stop-color:#8E5824"/>
					<stop  offset="0.54" style="stop-color:#F3F3B8"/>
					<stop  offset="0.56" style="stop-color:#F5EC98"/>
					<stop  offset="0.69" style="stop-color:#D5B668"/>
					<stop  offset="0.75" style="stop-color:#A7702A"/>
					<stop  offset="0.85" style="stop-color:#D2AC5C"/>
					<stop  offset="1" style="stop-color:#E0C67C"/>
				</linearGradient>
				<polygon fill="url(#SVGID_4_)" points="42.76,26.26 48.909,24.423 48.909,27.639 42.76,29.476 				"/>
			</g>
			
				<linearGradient id="SVGID_5_" gradientUnits="userSpaceOnUse" x1="341.5059" y1="-176.0181" x2="341.5059" y2="-129.475" gradientTransform="matrix(1 0 0 -1 -290 -120)">
				<stop  offset="0" style="stop-color:#DBA73D"/>
				<stop  offset="0.16" style="stop-color:#D99E3A"/>
				<stop  offset="0.3" style="stop-color:#A46C29"/>
				<stop  offset="0.4" style="stop-color:#8E5824"/>
				<stop  offset="0.54" style="stop-color:#F3F3B8"/>
				<stop  offset="0.56" style="stop-color:#F5EC98"/>
				<stop  offset="0.69" style="stop-color:#D5B668"/>
				<stop  offset="0.75" style="stop-color:#A7702A"/>
				<stop  offset="0.85" style="stop-color:#D2AC5C"/>
				<stop  offset="1" style="stop-color:#E0C67C"/>
			</linearGradient>
			<polygon fill="url(#SVGID_5_)" points="68.339,33.609 68.339,52.761 65.229,52.761 65.229,35.916 55.391,32.804 45.552,35.916 
				45.552,52.761 42.441,52.761 42.441,33.609 53.885,29.99 53.885,12.791 37.783,17.885 37.783,52.761 34.672,52.761 
				34.672,15.578 56.995,8.517 56.995,30.021 			"/>
			<g>
				
					<linearGradient id="SVGID_6_" gradientUnits="userSpaceOnUse" x1="345.125" y1="-176.0186" x2="345.125" y2="-129.4758" gradientTransform="matrix(1 0 0 -1 -290 -120)">
					<stop  offset="0" style="stop-color:#DBA73D"/>
					<stop  offset="0.16" style="stop-color:#D99E3A"/>
					<stop  offset="0.3" style="stop-color:#A46C29"/>
					<stop  offset="0.4" style="stop-color:#8E5824"/>
					<stop  offset="0.54" style="stop-color:#F3F3B8"/>
					<stop  offset="0.56" style="stop-color:#F5EC98"/>
					<stop  offset="0.69" style="stop-color:#D5B668"/>
					<stop  offset="0.75" style="stop-color:#A7702A"/>
					<stop  offset="0.85" style="stop-color:#D2AC5C"/>
					<stop  offset="1" style="stop-color:#E0C67C"/>
				</linearGradient>
				<rect x="53.568" y="40.668" fill="url(#SVGID_6_)" width="3.111" height="4.635"/>
			</g>
		</g>
	</g>
	<g>
		<path fill="#FFFFFF" d="M24.922,250.675v-2.217h0.438l0.52,1.57c0.048,0.146,0.083,0.255,0.105,0.327
			c0.024-0.081,0.063-0.198,0.117-0.355l0.526-1.542h0.391v2.217h-0.28v-1.856l-0.639,1.856h-0.262l-0.636-1.888v1.888H24.922z"/>
		<path fill="#FFFFFF" d="M28.681,249.595c0-0.368,0.098-0.655,0.294-0.863c0.196-0.208,0.449-0.312,0.759-0.312
			c0.203,0,0.386,0.049,0.549,0.146c0.163,0.1,0.287,0.233,0.372,0.409c0.086,0.175,0.129,0.372,0.129,0.596
			c0,0.225-0.045,0.426-0.135,0.603c-0.09,0.179-0.217,0.312-0.382,0.403c-0.165,0.092-0.343,0.137-0.534,0.137
			c-0.207,0-0.392-0.05-0.555-0.15c-0.163-0.101-0.287-0.237-0.37-0.412C28.723,249.976,28.681,249.79,28.681,249.595
			 M28.981,249.599c0,0.269,0.071,0.478,0.213,0.633c0.143,0.152,0.321,0.229,0.536,0.229c0.219,0,0.399-0.077,0.54-0.231
			c0.142-0.156,0.213-0.376,0.213-0.661c0-0.181-0.031-0.338-0.091-0.474c-0.06-0.134-0.148-0.237-0.265-0.312
			c-0.117-0.074-0.247-0.111-0.392-0.111c-0.206,0-0.383,0.072-0.531,0.215C29.055,249.027,28.981,249.266,28.981,249.599"/>
		<path fill="#FFFFFF" d="M33.067,250.675l-0.852-2.217h0.315l0.571,1.609c0.046,0.131,0.084,0.251,0.116,0.365
			c0.034-0.122,0.073-0.243,0.118-0.365l0.594-1.609h0.296l-0.86,2.217H33.067z"/>
		<rect x="35.817" y="248.458" fill="#FFFFFF" width="0.291" height="2.217"/>
		<polygon fill="#FFFFFF" points="37.898,250.675 37.898,248.458 38.196,248.458 39.351,250.198 39.351,248.458 39.629,248.458 
			39.629,250.675 39.332,250.675 38.177,248.931 38.177,250.675 		"/>
		<path fill="#FFFFFF" d="M42.427,249.806v-0.261l0.931-0.001v0.822c-0.143,0.115-0.29,0.2-0.442,0.259
			c-0.152,0.06-0.308,0.087-0.467,0.087c-0.216,0-0.413-0.046-0.589-0.14c-0.176-0.093-0.31-0.229-0.399-0.404
			c-0.089-0.175-0.135-0.373-0.135-0.592c0-0.216,0.045-0.417,0.134-0.604c0.09-0.188,0.218-0.326,0.386-0.418
			c0.168-0.091,0.361-0.136,0.58-0.136c0.159,0,0.303,0.025,0.431,0.079c0.128,0.051,0.229,0.123,0.302,0.216
			c0.073,0.093,0.128,0.213,0.166,0.363l-0.262,0.071c-0.033-0.112-0.074-0.201-0.124-0.267c-0.049-0.064-0.119-0.116-0.21-0.153
			c-0.09-0.039-0.191-0.06-0.303-0.06c-0.133,0-0.248,0.021-0.345,0.062c-0.097,0.04-0.175,0.094-0.234,0.16
			c-0.06,0.066-0.106,0.14-0.139,0.22c-0.056,0.137-0.084,0.284-0.084,0.446c0,0.196,0.034,0.361,0.101,0.494
			c0.068,0.134,0.167,0.232,0.295,0.298c0.129,0.063,0.266,0.097,0.411,0.097c0.126,0,0.25-0.023,0.369-0.073
			c0.12-0.048,0.211-0.101,0.273-0.156v-0.413h-0.646V249.806z"/>
		<path fill="#FFFFFF" d="M46.791,250.675l0.844-2.217h0.313l0.899,2.217h-0.332l-0.256-0.672H47.34l-0.241,0.672H46.791z
			 M47.425,249.765h0.745l-0.229-0.614c-0.07-0.186-0.122-0.339-0.156-0.459c-0.028,0.143-0.067,0.283-0.119,0.424L47.425,249.765z"
			/>
		<path fill="#FFFFFF" d="M50.262,249.962l0.274-0.024c0.013,0.111,0.043,0.203,0.091,0.274c0.047,0.068,0.121,0.128,0.221,0.171
			c0.1,0.045,0.212,0.065,0.337,0.065c0.111,0,0.209-0.016,0.294-0.05c0.085-0.032,0.148-0.078,0.19-0.136
			c0.042-0.059,0.062-0.122,0.062-0.19c0-0.069-0.021-0.131-0.06-0.182c-0.04-0.054-0.106-0.097-0.198-0.132
			c-0.059-0.022-0.189-0.06-0.391-0.106c-0.202-0.05-0.343-0.097-0.424-0.141c-0.105-0.056-0.184-0.124-0.234-0.206
			c-0.052-0.081-0.078-0.174-0.078-0.275c0-0.111,0.032-0.217,0.095-0.314c0.063-0.097,0.155-0.171,0.275-0.222
			c0.121-0.051,0.256-0.075,0.404-0.075c0.163,0,0.307,0.026,0.431,0.079s0.22,0.132,0.287,0.234
			c0.066,0.102,0.103,0.219,0.108,0.35l-0.279,0.021c-0.015-0.14-0.066-0.245-0.152-0.317c-0.087-0.071-0.215-0.106-0.383-0.106
			c-0.176,0-0.304,0.031-0.385,0.099c-0.081,0.063-0.121,0.144-0.121,0.234c0,0.079,0.028,0.146,0.085,0.195
			c0.056,0.053,0.203,0.104,0.438,0.158c0.237,0.055,0.399,0.102,0.487,0.141c0.128,0.062,0.223,0.137,0.284,0.227
			c0.061,0.093,0.091,0.197,0.091,0.316c0,0.117-0.034,0.229-0.101,0.333c-0.067,0.104-0.163,0.187-0.289,0.243
			c-0.126,0.058-0.267,0.087-0.424,0.087c-0.199,0-0.365-0.027-0.5-0.088c-0.134-0.058-0.24-0.146-0.316-0.265
			C50.306,250.243,50.265,250.109,50.262,249.962"/>
		<rect x="53.738" y="248.458" fill="#FFFFFF" width="0.291" height="2.217"/>
		<path fill="#FFFFFF" d="M55.581,250.675l0.845-2.217h0.312l0.898,2.217h-0.33l-0.258-0.672h-0.918l-0.24,0.672H55.581z
			 M56.216,249.765h0.745l-0.229-0.614c-0.07-0.186-0.123-0.339-0.156-0.459c-0.028,0.143-0.067,0.283-0.118,0.424L56.216,249.765z"
			/>
		<path fill="#FFFFFF" d="M61.025,249.595c0-0.368,0.1-0.655,0.295-0.863s0.449-0.312,0.759-0.312c0.203,0,0.386,0.049,0.549,0.146
			c0.163,0.1,0.287,0.233,0.373,0.409c0.085,0.175,0.128,0.372,0.128,0.596c0,0.225-0.045,0.426-0.135,0.603
			c-0.092,0.179-0.219,0.312-0.383,0.403c-0.164,0.092-0.344,0.137-0.534,0.137c-0.206,0-0.392-0.05-0.554-0.15
			c-0.164-0.101-0.287-0.237-0.371-0.412S61.025,249.79,61.025,249.595 M61.327,249.599c0,0.269,0.069,0.478,0.214,0.633
			c0.143,0.152,0.32,0.229,0.535,0.229c0.219,0,0.398-0.077,0.541-0.231c0.141-0.156,0.212-0.376,0.212-0.661
			c0-0.181-0.03-0.338-0.093-0.474c-0.06-0.134-0.147-0.237-0.264-0.312c-0.117-0.074-0.248-0.111-0.393-0.111
			c-0.206,0-0.385,0.072-0.531,0.215C61.4,249.027,61.327,249.266,61.327,249.599"/>
		<polygon fill="#FFFFFF" points="64.781,250.675 64.781,248.458 65.08,248.458 66.234,250.198 66.234,248.458 66.514,248.458 
			66.514,250.675 66.215,250.675 65.061,248.931 65.061,250.675 		"/>
		<polygon fill="#FFFFFF" points="68.271,250.675 68.271,248.458 68.562,248.458 68.562,250.412 69.645,250.412 69.645,250.675 		
			"/>
		<rect x="71.318" y="248.458" fill="#FFFFFF" width="0.291" height="2.217"/>
		<polygon fill="#FFFFFF" points="73.4,250.675 73.4,248.458 73.699,248.458 74.854,250.198 74.854,248.458 75.133,248.458 
			75.133,250.675 74.835,250.675 73.68,248.931 73.68,250.675 		"/>
		<polygon fill="#FFFFFF" points="76.908,250.675 76.908,248.458 78.497,248.458 78.497,248.718 77.198,248.718 77.198,249.397 
			78.415,249.397 78.415,249.658 77.198,249.658 77.198,250.412 78.548,250.412 78.548,250.675 		"/>
		<path fill="#FFFFFF" d="M49.913,242.437c0-1.05,0.29-1.827,0.868-2.334c0.483-0.419,1.072-0.628,1.768-0.628
			c0.773,0,1.404,0.254,1.895,0.765c0.49,0.512,0.736,1.217,0.736,2.117c0,0.731-0.109,1.304-0.326,1.722
			c-0.217,0.419-0.531,0.743-0.946,0.976c-0.415,0.231-0.867,0.347-1.357,0.347c-0.787,0-1.423-0.254-1.908-0.765
			C50.155,244.128,49.913,243.394,49.913,242.437 M50.893,242.437c0,0.726,0.157,1.27,0.471,1.63
			c0.313,0.36,0.709,0.542,1.185,0.542c0.473,0,0.866-0.182,1.182-0.545c0.312-0.362,0.471-0.915,0.471-1.659
			c0-0.702-0.158-1.233-0.475-1.595c-0.315-0.36-0.707-0.541-1.178-0.541c-0.476,0-0.872,0.18-1.185,0.539
			C51.05,241.168,50.893,241.71,50.893,242.437"/>
		<path fill="#FFFFFF" d="M66.057,243.444l0.983,0.123c-0.155,0.58-0.442,1.029-0.862,1.351s-0.957,0.48-1.609,0.48
			c-0.821,0-1.473-0.254-1.955-0.765c-0.481-0.512-0.723-1.229-0.723-2.15c0-0.952,0.243-1.694,0.73-2.219
			c0.486-0.527,1.117-0.79,1.895-0.79c0.752,0,1.365,0.258,1.842,0.774c0.478,0.516,0.716,1.24,0.716,2.178
			c0,0.057-0.003,0.142-0.007,0.256h-4.19c0.035,0.623,0.21,1.1,0.524,1.431c0.312,0.331,0.705,0.496,1.175,0.496
			c0.349,0,0.646-0.094,0.894-0.276C65.715,244.146,65.911,243.85,66.057,243.444 M62.928,241.892h3.139
			c-0.041-0.477-0.162-0.833-0.359-1.073c-0.305-0.369-0.695-0.554-1.18-0.554c-0.438,0-0.807,0.146-1.104,0.441
			C63.124,241.001,62.959,241.397,62.928,241.892"/>
		<path fill="#FFFFFF" d="M74.055,247.455l-0.105-0.903c0.208,0.057,0.391,0.086,0.546,0.086c0.211,0,0.381-0.035,0.508-0.106
			s0.229-0.171,0.312-0.3c0.062-0.096,0.158-0.335,0.293-0.715c0.018-0.053,0.045-0.132,0.084-0.234l-2.133-5.68h1.026l1.169,3.283
			c0.152,0.415,0.288,0.854,0.408,1.312c0.107-0.44,0.238-0.87,0.391-1.292l1.202-3.304h0.952l-2.139,5.767
			c-0.229,0.622-0.406,1.051-0.534,1.286c-0.169,0.315-0.363,0.548-0.582,0.695c-0.22,0.148-0.479,0.223-0.782,0.223
			C74.484,247.571,74.279,247.532,74.055,247.455"/>
		<path fill="#FFFFFF" d="M40.288,239.601v1.196h-1.016v2.285c0,0.463,0.009,0.733,0.029,0.81c0.019,0.076,0.063,0.14,0.132,0.189
			c0.068,0.051,0.152,0.074,0.251,0.074c0.138,0,0.336-0.047,0.598-0.144l0.127,1.163c-0.346,0.149-0.737,0.224-1.175,0.224
			c-0.268,0-0.51-0.045-0.725-0.136c-0.215-0.091-0.374-0.207-0.474-0.352c-0.101-0.146-0.17-0.34-0.209-0.585
			c-0.032-0.175-0.048-0.527-0.048-1.058v-2.472v-1.196V237.6h1.493v2.001H40.288z"/>
		<path fill="#FFFFFF" d="M29.008,237.6v2.202c-0.413-0.218-0.885-0.327-1.418-0.327c-0.55,0-1.049,0.122-1.496,0.368
			c-0.446,0.244-0.791,0.601-1.035,1.067c-0.243,0.466-0.365,0.948-0.365,1.446c0,0.652,0.122,1.204,0.365,1.659
			c0.244,0.453,0.599,0.798,1.067,1.032c0.467,0.234,0.958,0.353,1.474,0.353c0.833,0,1.523-0.281,2.072-0.845
			c0.534-0.55,0.806-1.24,0.82-2.067h0.003v-4.888L29.008,237.6L29.008,237.6z M28.571,243.728c-0.263,0.3-0.588,0.447-0.977,0.447
			c-0.388,0-0.714-0.147-0.979-0.447c-0.264-0.299-0.396-0.729-0.396-1.291s0.132-0.994,0.396-1.292
			c0.265-0.3,0.591-0.449,0.979-0.449c0.388,0,0.714,0.149,0.977,0.449c0.263,0.298,0.395,0.726,0.395,1.282
			C28.966,242.995,28.834,243.429,28.571,243.728"/>
		<path fill="#FFFFFF" d="M47.097,242.244l0.006,0.014c-0.002,0.058-0.006,0.11-0.006,0.17V242.244v3.026h0.985v-1.391v-1.452
			c0-0.846,0.128-1.287,0.465-1.62c0.498-0.492,1.186-0.477,1.186-0.477v-0.858C47.097,239.473,47.097,241.927,47.097,242.244"/>
		<path fill="#FFFFFF" d="M67.795,242.244l0.007,0.014c-0.003,0.058-0.007,0.11-0.007,0.17V242.244v3.026h0.984v-1.391v-1.452
			c0-0.846,0.129-1.287,0.465-1.62c0.498-0.492,1.188-0.477,1.188-0.477v-0.858C67.795,239.473,67.795,241.927,67.795,242.244"/>
		<path fill="#FFFFFF" d="M72.641,244.449c-0.142,0-0.25-0.024-0.326-0.069c-0.075-0.046-0.131-0.108-0.164-0.188
			c-0.033-0.078-0.051-0.255-0.051-0.527v-3.334h0.959v-0.858H72.1V237.6h-0.947v1.873v0.858v3.279c0,0.576,0.039,0.955,0.117,1.135
			c0.078,0.181,0.211,0.324,0.401,0.435c0.19,0.111,0.459,0.166,0.806,0.166c0.211,0,0.451-0.028,0.719-0.085l-0.137-0.85
			C72.885,244.436,72.746,244.449,72.641,244.449"/>
		<path fill="#FFFFFF" d="M45.663,240.238c-0.491-0.51-1.122-0.766-1.895-0.766c-0.695,0-1.284,0.211-1.768,0.63
			c-0.579,0.505-0.868,1.283-0.868,2.332v5.008h0.985v-2.577c0.446,0.354,0.995,0.531,1.65,0.531c0.491,0,0.943-0.114,1.357-0.347
			c0.415-0.23,0.73-0.556,0.948-0.975c0.217-0.418,0.325-0.991,0.325-1.722C46.398,241.454,46.153,240.75,45.663,240.238
			 M44.948,244.063c-0.314,0.363-0.707,0.545-1.18,0.545c-0.476,0-0.872-0.182-1.185-0.542c-0.297-0.343-0.449-0.854-0.465-1.524
			v-0.106h-0.006c0-0.726,0.157-1.268,0.471-1.628c0.313-0.358,0.709-0.539,1.185-0.539c0.469,0,0.862,0.182,1.178,0.541
			c0.315,0.362,0.474,0.893,0.474,1.595C45.419,243.147,45.262,243.701,44.948,244.063"/>
		<path fill="#FFFFFF" d="M60.432,240.238c-0.49-0.51-1.121-0.766-1.895-0.766c-0.694,0-1.284,0.211-1.768,0.63
			c-0.578,0.505-0.869,1.283-0.869,2.332v5.008h0.986v-2.577c0.445,0.354,0.994,0.531,1.649,0.531c0.491,0,0.942-0.114,1.356-0.347
			c0.416-0.23,0.73-0.556,0.947-0.975c0.219-0.418,0.326-0.991,0.326-1.722C61.168,241.454,60.923,240.75,60.432,240.238
			 M59.718,244.063c-0.313,0.363-0.706,0.545-1.181,0.545c-0.477,0-0.871-0.182-1.186-0.542c-0.297-0.343-0.449-0.854-0.465-1.524
			v-0.106H56.88c0-0.726,0.157-1.268,0.472-1.628c0.313-0.358,0.709-0.539,1.186-0.539c0.47,0,0.861,0.182,1.178,0.541
			c0.314,0.362,0.475,0.893,0.475,1.595C60.188,243.147,60.031,243.701,59.718,244.063"/>
		<g>
			<path fill="#FFFFFF" d="M32.354,240.978L35,240.141v2.548l1.344,0.426v1.299c0.466-0.523,0.75-1.217,0.75-1.977
				c0-1.637-1.315-2.964-2.938-2.964c-1.623,0-2.938,1.326-2.938,2.964c0,0.95,0.444,1.796,1.134,2.338v-3.797H32.354z"/>
			<path fill="#FFFFFF" d="M34.631,240.646l-1.909,0.604v3.772c0.174,0.099,0.359,0.179,0.552,0.24v-2.149l1.356-0.43
				L34.631,240.646L34.631,240.646z M34.041,242.406l-0.729,0.219v-0.381l0.729-0.219V242.406z M34.041,241.714l-0.729,0.218v-0.381
				l0.729-0.218V241.714z"/>
			<path fill="#FFFFFF" d="M35.975,243.387l-1.166-0.368l-1.166,0.368v1.967c0.167,0.028,0.338,0.045,0.514,0.045
				c0.687,0,1.318-0.237,1.818-0.637V243.387z M34.593,244.5v-0.55h0.369v0.55H34.593z"/>
		</g>
	</g>
	<g>
		<path fill="#FFFFFF" d="M26.188,152.8h-0.827v-3.856h-1.458v-0.697h3.739v0.697h-1.454V152.8z"/>
		<path fill="#FFFFFF" d="M29.109,150.12h2.092v-1.875h0.827v4.555h-0.827v-1.981h-2.092v1.981h-0.826v-4.555h0.826V150.12z"/>
		<path fill="#FFFFFF" d="M35.693,151.639h-1.701L33.55,152.8h-0.881l1.792-4.556h0.755l1.792,4.556h-0.874L35.693,151.639z
			 M34.836,149.342c-0.158,0.477-0.299,0.874-0.423,1.194l-0.154,0.405h1.167l-0.154-0.405c-0.122-0.321-0.263-0.72-0.422-1.194
			H34.836z"/>
		<path fill="#FFFFFF" d="M37.65,152.8v-4.555h0.826v4.555H37.65z"/>
		<path fill="#FFFFFF" d="M40.383,148.245v3.856h2.112v0.698h-2.939v-4.556L40.383,148.245L40.383,148.245z"/>
		<path fill="#FFFFFF" d="M45.855,151.639h-1.7l-0.442,1.161h-0.88l1.792-4.556h0.756l1.792,4.556h-0.874L45.855,151.639z
			 M44.999,149.342c-0.158,0.477-0.299,0.874-0.422,1.194l-0.154,0.405h1.167l-0.154-0.405c-0.123-0.321-0.263-0.72-0.422-1.194
			H44.999z"/>
		<path fill="#FFFFFF" d="M50.164,150.364c0.324,0.463,0.587,0.877,0.79,1.238h0.02c-0.027-0.592-0.041-1.023-0.041-1.293v-2.063
			h0.827v4.556h-0.868l-1.471-2.097c-0.258-0.363-0.526-0.784-0.803-1.263h-0.021c0.027,0.558,0.041,0.989,0.041,1.296v2.063h-0.827
			v-4.556h0.867L50.164,150.364z"/>
		<path fill="#FFFFFF" d="M52.84,152.8v-4.555h1.194c0.106,0,0.214,0.004,0.323,0.011c0.107,0.006,0.215,0.019,0.317,0.031
			s0.203,0.029,0.302,0.049c0.097,0.019,0.185,0.042,0.266,0.07c0.24,0.076,0.453,0.181,0.639,0.313
			c0.184,0.132,0.34,0.286,0.465,0.467c0.123,0.179,0.219,0.378,0.282,0.601c0.063,0.221,0.097,0.461,0.097,0.72
			c0,0.243-0.026,0.475-0.08,0.688c-0.056,0.215-0.138,0.411-0.248,0.588c-0.108,0.177-0.248,0.333-0.416,0.469
			c-0.168,0.134-0.365,0.245-0.596,0.331c-0.191,0.072-0.408,0.127-0.65,0.163c-0.243,0.036-0.518,0.056-0.82,0.056H52.84V152.8z
			 M54.008,152.102c0.483,0,0.861-0.066,1.135-0.2c0.239-0.12,0.422-0.295,0.547-0.524c0.123-0.23,0.185-0.523,0.185-0.879
			c0-0.186-0.021-0.354-0.062-0.504c-0.039-0.149-0.099-0.282-0.174-0.399c-0.078-0.115-0.17-0.217-0.279-0.301
			c-0.108-0.084-0.231-0.153-0.369-0.208c-0.129-0.05-0.271-0.086-0.43-0.108c-0.156-0.021-0.334-0.034-0.528-0.034h-0.364v3.159
			L54.008,152.102L54.008,152.102z"/>
		<path fill="#FFFFFF" d="M58.145,150.12h-0.711v-1.875h0.711V150.12z"/>
		<path fill="#FFFFFF" d="M61.275,151.493c0-0.116-0.028-0.209-0.084-0.281c-0.058-0.07-0.133-0.129-0.229-0.176
			c-0.097-0.045-0.205-0.081-0.325-0.109c-0.121-0.028-0.248-0.056-0.38-0.083c-0.176-0.038-0.344-0.084-0.503-0.139
			c-0.16-0.053-0.301-0.128-0.422-0.221c-0.122-0.095-0.219-0.215-0.29-0.359s-0.108-0.326-0.108-0.544
			c0-0.24,0.043-0.45,0.125-0.628c0.084-0.179,0.196-0.325,0.34-0.442c0.143-0.116,0.311-0.203,0.502-0.263
			c0.192-0.059,0.41-0.086,0.649-0.086c0.241,0,0.482,0.023,0.726,0.07c0.244,0.049,0.453,0.108,0.629,0.185v0.715
			c-0.234-0.094-0.459-0.16-0.674-0.202c-0.215-0.043-0.416-0.062-0.605-0.062c-0.271,0-0.482,0.05-0.629,0.149
			s-0.221,0.25-0.221,0.448c0,0.116,0.022,0.212,0.072,0.286c0.047,0.073,0.113,0.137,0.196,0.186
			c0.083,0.05,0.179,0.089,0.286,0.117c0.107,0.03,0.223,0.057,0.345,0.082c0.191,0.04,0.374,0.088,0.55,0.142
			c0.174,0.054,0.327,0.128,0.463,0.223c0.136,0.096,0.242,0.221,0.32,0.373c0.079,0.153,0.118,0.35,0.118,0.587
			c0,0.246-0.046,0.457-0.135,0.636c-0.091,0.181-0.218,0.327-0.384,0.444s-0.365,0.204-0.603,0.262
			c-0.235,0.057-0.495,0.084-0.776,0.084c-0.244,0-0.485-0.023-0.724-0.072c-0.237-0.05-0.435-0.117-0.592-0.206v-0.704
			c0.223,0.099,0.438,0.168,0.649,0.213c0.213,0.044,0.431,0.066,0.654,0.066c0.131,0,0.26-0.012,0.385-0.033
			c0.127-0.021,0.239-0.06,0.34-0.11c0.101-0.053,0.181-0.122,0.242-0.212C61.245,151.734,61.275,151.625,61.275,151.493z"/>
		<path fill="#FFFFFF" d="M67.736,149.457c0,0.198-0.043,0.379-0.131,0.543c-0.088,0.163-0.233,0.302-0.437,0.409v0.016
			c0.112,0.038,0.215,0.087,0.31,0.146c0.094,0.06,0.174,0.132,0.238,0.215c0.067,0.083,0.119,0.175,0.155,0.279
			c0.038,0.104,0.056,0.223,0.056,0.353c0,0.109-0.017,0.229-0.052,0.357c-0.035,0.127-0.097,0.25-0.185,0.369
			s-0.205,0.229-0.352,0.328c-0.146,0.101-0.33,0.18-0.554,0.238c-0.056,0.014-0.117,0.025-0.185,0.036
			c-0.065,0.013-0.14,0.021-0.221,0.029c-0.081,0.008-0.171,0.015-0.27,0.018c-0.1,0.004-0.211,0.006-0.334,0.006h-1.312v-4.556
			h1.568c0.335,0,0.605,0.035,0.811,0.103c0.152,0.05,0.285,0.115,0.397,0.196s0.204,0.169,0.278,0.269
			c0.072,0.1,0.127,0.203,0.162,0.314C67.721,149.235,67.736,149.347,67.736,149.457z M66.04,150.12
			c0.226,0,0.392-0.021,0.502-0.067c0.124-0.052,0.212-0.124,0.267-0.216c0.053-0.093,0.078-0.195,0.078-0.312
			c0-0.12-0.029-0.229-0.091-0.321c-0.062-0.095-0.164-0.164-0.312-0.21c-0.062-0.019-0.131-0.03-0.213-0.038
			c-0.08-0.009-0.181-0.015-0.299-0.015h-0.68v1.179H66.04L66.04,150.12z M65.294,150.818v1.283h0.54
			c0.145,0,0.268-0.004,0.371-0.012s0.191-0.021,0.268-0.039c0.113-0.024,0.209-0.06,0.285-0.102
			c0.077-0.041,0.139-0.09,0.188-0.143c0.047-0.054,0.08-0.112,0.101-0.178c0.021-0.063,0.03-0.134,0.03-0.207
			c0-0.126-0.034-0.237-0.104-0.333c-0.07-0.094-0.18-0.166-0.328-0.214c-0.064-0.021-0.142-0.035-0.229-0.044
			c-0.087-0.01-0.2-0.015-0.338-0.015h-0.784V150.818z"/>
		<path fill="#FFFFFF" d="M69.6,152.102h2.221v0.698h-3.047v-4.556h2.926v0.697h-2.1v1.179h1.803v0.696H69.6V152.102z"/>
		<path fill="#FFFFFF" d="M74.917,151.493c0-0.116-0.028-0.209-0.084-0.281c-0.058-0.07-0.133-0.129-0.229-0.176
			c-0.097-0.045-0.205-0.081-0.326-0.109c-0.119-0.028-0.246-0.056-0.379-0.083c-0.176-0.038-0.344-0.084-0.502-0.139
			c-0.16-0.053-0.301-0.128-0.422-0.221c-0.123-0.095-0.219-0.215-0.291-0.359s-0.107-0.326-0.107-0.544
			c0-0.24,0.042-0.45,0.125-0.628c0.083-0.179,0.195-0.325,0.339-0.442c0.144-0.116,0.312-0.203,0.503-0.263
			c0.191-0.059,0.408-0.086,0.648-0.086c0.242,0,0.482,0.023,0.727,0.07c0.243,0.049,0.452,0.108,0.628,0.185v0.715
			c-0.233-0.094-0.459-0.16-0.674-0.202c-0.215-0.043-0.416-0.062-0.604-0.062c-0.272,0-0.482,0.05-0.629,0.149
			c-0.147,0.1-0.222,0.25-0.222,0.448c0,0.116,0.022,0.212,0.071,0.286c0.049,0.073,0.115,0.137,0.197,0.186
			c0.084,0.05,0.18,0.089,0.287,0.117c0.107,0.03,0.223,0.057,0.344,0.082c0.191,0.04,0.375,0.088,0.55,0.142
			c0.174,0.054,0.327,0.128,0.464,0.223c0.135,0.096,0.24,0.221,0.318,0.373c0.08,0.153,0.119,0.35,0.119,0.587
			c0,0.246-0.045,0.457-0.135,0.636c-0.09,0.181-0.218,0.327-0.384,0.444c-0.165,0.117-0.366,0.204-0.603,0.262
			c-0.235,0.057-0.494,0.084-0.775,0.084c-0.245,0-0.486-0.023-0.725-0.072c-0.236-0.05-0.435-0.117-0.592-0.206v-0.704
			c0.223,0.099,0.438,0.168,0.65,0.213c0.212,0.044,0.43,0.066,0.654,0.066c0.131,0,0.26-0.012,0.385-0.033
			c0.126-0.021,0.238-0.06,0.34-0.11c0.1-0.053,0.18-0.122,0.24-0.212C74.887,151.734,74.917,151.625,74.917,151.493z"/>
		<path fill="#FFFFFF" d="M78.529,152.8h-0.825v-3.856h-1.458v-0.697h3.738v0.697h-1.455V152.8z"/>
		<path fill="#FFFFFF" d="M18.569,157.979c0,0.316-0.087,0.588-0.262,0.809c-0.174,0.222-0.443,0.385-0.808,0.492v0.013l1.343,1.873
			H17.85l-1.228-1.764h-0.567v1.764h-0.827v-4.556h1.373c0.227,0,0.439,0.014,0.634,0.039c0.196,0.026,0.364,0.065,0.503,0.118
			c0.265,0.102,0.47,0.253,0.614,0.454C18.497,157.424,18.569,157.676,18.569,157.979z M16.463,158.704
			c0.189,0,0.349-0.01,0.481-0.025c0.131-0.019,0.242-0.044,0.332-0.077c0.167-0.062,0.282-0.148,0.346-0.26
			c0.064-0.11,0.096-0.236,0.096-0.381c0-0.122-0.025-0.23-0.076-0.325c-0.051-0.093-0.137-0.167-0.258-0.223
			c-0.079-0.035-0.178-0.062-0.297-0.078c-0.119-0.018-0.266-0.025-0.442-0.025h-0.59v1.396L16.463,158.704L16.463,158.704z"/>
		<path fill="#FFFFFF" d="M20.394,160.467h2.22v0.698h-3.047v-4.556h2.925v0.698h-2.099v1.178h1.802v0.696h-1.802L20.394,160.467
			L20.394,160.467z"/>
		<path fill="#FFFFFF" d="M26.076,160.004h-1.7l-0.442,1.161h-0.881l1.792-4.556h0.756l1.792,4.556h-0.874L26.076,160.004z
			 M25.219,157.706c-0.158,0.478-0.299,0.875-0.422,1.195l-0.154,0.404h1.167l-0.154-0.404c-0.123-0.322-0.264-0.722-0.422-1.195
			H25.219z"/>
		<path fill="#FFFFFF" d="M28.86,156.61v3.856h2.112v0.698h-2.939v-4.556L28.86,156.61L28.86,156.61z"/>
		<path fill="#FFFFFF" d="M33.999,160.467h2.22v0.698h-3.047v-4.556h2.925v0.698h-2.099v1.178H35.8v0.696h-1.802L33.999,160.467
			L33.999,160.467z"/>
		<path fill="#FFFFFF" d="M39.316,159.858c0-0.116-0.028-0.211-0.085-0.281c-0.056-0.071-0.132-0.131-0.229-0.176
			s-0.206-0.083-0.326-0.109c-0.12-0.028-0.247-0.056-0.379-0.084c-0.176-0.038-0.343-0.084-0.503-0.138
			c-0.16-0.053-0.3-0.128-0.422-0.223c-0.121-0.094-0.218-0.214-0.29-0.357c-0.072-0.145-0.108-0.327-0.108-0.545
			c0-0.24,0.042-0.449,0.125-0.627c0.083-0.179,0.197-0.326,0.339-0.442c0.143-0.116,0.311-0.205,0.503-0.264
			c0.192-0.057,0.409-0.086,0.649-0.086c0.241,0,0.483,0.024,0.726,0.071c0.242,0.048,0.452,0.108,0.627,0.184v0.715
			c-0.233-0.093-0.458-0.159-0.673-0.201c-0.215-0.043-0.417-0.062-0.605-0.062c-0.272,0-0.482,0.049-0.629,0.149
			c-0.147,0.1-0.221,0.248-0.221,0.448c0,0.115,0.024,0.211,0.072,0.286c0.048,0.073,0.114,0.137,0.198,0.186
			c0.083,0.05,0.179,0.089,0.287,0.117c0.108,0.03,0.223,0.057,0.344,0.082c0.191,0.04,0.374,0.088,0.549,0.142
			c0.174,0.054,0.328,0.126,0.463,0.223c0.135,0.096,0.241,0.22,0.32,0.373c0.08,0.153,0.119,0.35,0.119,0.587
			c0,0.244-0.045,0.457-0.134,0.637c-0.091,0.18-0.218,0.326-0.384,0.444c-0.165,0.115-0.366,0.202-0.602,0.261
			c-0.237,0.056-0.495,0.084-0.776,0.084c-0.246,0-0.486-0.024-0.724-0.072c-0.237-0.05-0.435-0.117-0.592-0.206v-0.704
			c0.223,0.099,0.439,0.168,0.651,0.212c0.211,0.046,0.43,0.066,0.655,0.066c0.13,0,0.258-0.011,0.385-0.032
			c0.125-0.021,0.239-0.06,0.339-0.11c0.1-0.053,0.18-0.122,0.241-0.213C39.286,160.1,39.316,159.99,39.316,159.858z"/>
		<path fill="#FFFFFF" d="M42.93,161.165h-0.827v-3.855h-1.458v-0.698h3.739v0.698H42.93V161.165z"/>
		<path fill="#FFFFFF" d="M47.238,160.004h-1.7l-0.442,1.161h-0.88l1.791-4.556h0.756l1.792,4.556h-0.874L47.238,160.004z
			 M46.382,157.706c-0.158,0.478-0.299,0.875-0.423,1.195l-0.154,0.404h1.167l-0.154-0.404c-0.123-0.322-0.264-0.722-0.423-1.195
			H46.382z"/>
		<path fill="#FFFFFF" d="M50.67,161.165h-0.827v-3.855h-1.458v-0.698h3.739v0.698H50.67V161.165z"/>
		<path fill="#FFFFFF" d="M53.593,160.467h2.22v0.698h-3.047v-4.556h2.926v0.698h-2.099v1.178h1.802v0.696h-1.802V160.467
			L53.593,160.467z"/>
		<path fill="#FFFFFF" d="M60.395,160.004h-1.699l-0.442,1.161h-0.881l1.792-4.556h0.756l1.792,4.556h-0.874L60.395,160.004z
			 M59.537,157.706c-0.157,0.478-0.299,0.875-0.422,1.195l-0.154,0.404h1.167l-0.153-0.404c-0.123-0.322-0.265-0.722-0.424-1.195
			H59.537z"/>
		<path fill="#FFFFFF" d="M65.091,159.425h-1.012v-0.697h1.839v2.297c-0.066,0.026-0.152,0.052-0.259,0.079
			c-0.104,0.025-0.222,0.052-0.351,0.073c-0.129,0.021-0.264,0.039-0.399,0.053c-0.138,0.014-0.273,0.02-0.408,0.02
			c-0.405,0-0.759-0.055-1.062-0.163c-0.303-0.11-0.556-0.266-0.756-0.465c-0.201-0.201-0.353-0.438-0.453-0.713
			c-0.1-0.276-0.149-0.582-0.149-0.915c0-0.235,0.026-0.461,0.079-0.676c0.053-0.214,0.131-0.412,0.232-0.595
			c0.103-0.183,0.228-0.349,0.373-0.495c0.146-0.148,0.312-0.274,0.502-0.378c0.188-0.104,0.394-0.185,0.616-0.24
			c0.224-0.055,0.464-0.083,0.722-0.083c0.227,0,0.442,0.017,0.646,0.05c0.205,0.032,0.372,0.073,0.503,0.12v0.708
			c-0.176-0.058-0.353-0.102-0.53-0.129c-0.18-0.029-0.359-0.044-0.543-0.044c-0.244,0-0.475,0.036-0.688,0.109
			s-0.398,0.183-0.555,0.326c-0.156,0.145-0.279,0.322-0.369,0.533c-0.092,0.21-0.135,0.454-0.135,0.732
			c0.002,0.537,0.142,0.939,0.418,1.21c0.275,0.27,0.668,0.401,1.178,0.401c0.094,0,0.191-0.004,0.293-0.016
			c0.102-0.01,0.189-0.021,0.267-0.037V159.425z"/>
		<path fill="#FFFFFF" d="M67.757,160.467h2.222v0.698h-3.047v-4.556h2.924v0.698h-2.099v1.178h1.802v0.696h-1.802V160.467
			L67.757,160.467z"/>
		<path fill="#FFFFFF" d="M73.206,158.728c0.323,0.465,0.587,0.879,0.79,1.24h0.02c-0.025-0.593-0.039-1.023-0.039-1.293v-2.063
			h0.825v4.556h-0.866l-1.472-2.099c-0.259-0.361-0.526-0.782-0.803-1.263h-0.021c0.026,0.56,0.039,0.991,0.039,1.298v2.063h-0.826
			v-4.556h0.867L73.206,158.728z"/>
		<path fill="#FFFFFF" d="M78.078,157.23c-0.225,0-0.434,0.037-0.622,0.112c-0.188,0.073-0.353,0.183-0.489,0.325
			c-0.136,0.144-0.242,0.32-0.318,0.529c-0.076,0.21-0.114,0.449-0.114,0.721c0,0.267,0.034,0.502,0.104,0.704
			c0.068,0.205,0.17,0.374,0.301,0.511c0.129,0.136,0.289,0.238,0.478,0.308s0.399,0.104,0.64,0.104c0.17,0,0.346-0.014,0.522-0.041
			c0.178-0.025,0.344-0.065,0.499-0.117v0.718c-0.157,0.046-0.327,0.081-0.51,0.106c-0.182,0.025-0.37,0.039-0.566,0.039
			c-0.383,0-0.719-0.056-1.009-0.165s-0.532-0.266-0.728-0.467s-0.341-0.441-0.438-0.722c-0.099-0.279-0.146-0.589-0.146-0.928
			c0-0.347,0.051-0.668,0.155-0.966s0.256-0.555,0.453-0.772c0.196-0.218,0.442-0.392,0.737-0.516
			c0.297-0.124,0.632-0.188,1.005-0.189c0.19,0,0.372,0.013,0.543,0.039c0.172,0.026,0.325,0.062,0.463,0.109v0.709
			c-0.181-0.057-0.349-0.098-0.503-0.12C78.38,157.24,78.229,157.23,78.078,157.23z"/>
		<path fill="#FFFFFF" d="M79.921,161.165v-4.555h0.827v4.555H79.921z"/>
		<path fill="#FFFFFF" d="M82.654,160.467h2.221v0.698h-3.048v-4.556h2.926v0.698h-2.099v1.178h1.802v0.696h-1.802V160.467
			L82.654,160.467z"/>
		<path fill="#FFFFFF" d="M87.973,159.858c0-0.116-0.029-0.211-0.084-0.281c-0.058-0.071-0.134-0.131-0.229-0.176
			c-0.097-0.045-0.205-0.083-0.325-0.109c-0.121-0.028-0.247-0.056-0.38-0.084c-0.177-0.038-0.345-0.084-0.503-0.138
			c-0.16-0.053-0.301-0.128-0.422-0.223c-0.122-0.094-0.219-0.214-0.29-0.357c-0.072-0.145-0.108-0.327-0.108-0.545
			c0-0.24,0.042-0.449,0.125-0.627c0.083-0.179,0.196-0.326,0.34-0.442s0.311-0.205,0.502-0.264
			c0.192-0.057,0.409-0.086,0.649-0.086c0.241,0,0.481,0.024,0.726,0.071c0.244,0.048,0.452,0.108,0.629,0.184v0.715
			c-0.234-0.093-0.459-0.159-0.675-0.201c-0.215-0.043-0.415-0.062-0.604-0.062c-0.272,0-0.481,0.049-0.629,0.149
			c-0.147,0.1-0.221,0.248-0.221,0.448c0,0.115,0.022,0.211,0.071,0.286c0.049,0.073,0.114,0.137,0.197,0.186
			c0.083,0.05,0.179,0.089,0.286,0.117c0.107,0.03,0.224,0.057,0.345,0.082c0.19,0.04,0.374,0.088,0.549,0.142
			s0.328,0.126,0.464,0.223c0.135,0.096,0.241,0.22,0.32,0.373s0.118,0.35,0.118,0.587c0,0.244-0.046,0.457-0.136,0.637
			s-0.217,0.326-0.383,0.444c-0.166,0.115-0.365,0.202-0.603,0.261c-0.236,0.056-0.495,0.084-0.776,0.084
			c-0.244,0-0.486-0.024-0.724-0.072c-0.238-0.05-0.435-0.117-0.593-0.206v-0.704c0.224,0.099,0.439,0.168,0.65,0.212
			c0.213,0.046,0.43,0.066,0.654,0.066c0.131,0,0.26-0.011,0.385-0.032c0.126-0.021,0.239-0.06,0.34-0.11
			c0.1-0.053,0.18-0.122,0.241-0.213C87.941,160.1,87.973,159.99,87.973,159.858z"/>
	</g>
	<g>
		<g>
			<path fill="#FFFFFF" d="M14.293,183.023c-0.225,0-0.433,0.037-0.623,0.112s-0.354,0.184-0.489,0.326
				c-0.136,0.145-0.242,0.32-0.319,0.529c-0.077,0.211-0.115,0.449-0.115,0.721c0,0.267,0.035,0.502,0.104,0.705
				c0.07,0.203,0.17,0.373,0.3,0.509c0.13,0.137,0.29,0.238,0.478,0.31c0.188,0.068,0.401,0.104,0.639,0.104
				c0.171,0,0.345-0.015,0.523-0.041c0.178-0.026,0.344-0.066,0.5-0.118v0.717c-0.157,0.047-0.327,0.081-0.509,0.107
				c-0.182,0.026-0.372,0.039-0.567,0.039c-0.382,0-0.719-0.056-1.009-0.165c-0.291-0.109-0.533-0.266-0.728-0.467
				c-0.194-0.2-0.341-0.442-0.438-0.721c-0.098-0.281-0.147-0.59-0.147-0.929c0-0.348,0.053-0.668,0.157-0.966
				s0.255-0.556,0.452-0.774c0.197-0.217,0.443-0.389,0.739-0.512c0.296-0.127,0.63-0.189,1.004-0.191
				c0.191,0,0.373,0.013,0.543,0.039c0.17,0.025,0.325,0.062,0.462,0.11v0.707c-0.18-0.056-0.348-0.096-0.502-0.118
				C14.594,183.034,14.442,183.023,14.293,183.023z"/>
			<path fill="#FFFFFF" d="M19.152,185.31c0,0.26-0.039,0.496-0.115,0.709c-0.077,0.213-0.187,0.396-0.329,0.548
				c-0.143,0.151-0.315,0.27-0.518,0.353c-0.202,0.082-0.429,0.124-0.678,0.124c-0.256,0-0.486-0.042-0.69-0.124
				c-0.204-0.083-0.376-0.199-0.518-0.353c-0.142-0.152-0.25-0.335-0.326-0.548s-0.113-0.449-0.113-0.709
				c0-0.258,0.039-0.494,0.115-0.707c0.077-0.214,0.186-0.396,0.329-0.548c0.143-0.152,0.315-0.271,0.518-0.354
				c0.203-0.083,0.429-0.124,0.679-0.124c0.256,0,0.486,0.041,0.69,0.124c0.204,0.083,0.376,0.201,0.518,0.354
				c0.142,0.151,0.25,0.334,0.326,0.548C19.114,184.815,19.152,185.052,19.152,185.31z M18.326,185.31
				c0-0.174-0.021-0.329-0.061-0.462c-0.041-0.134-0.097-0.246-0.168-0.338c-0.072-0.092-0.159-0.157-0.26-0.204
				c-0.102-0.045-0.212-0.066-0.331-0.066c-0.117,0-0.226,0.021-0.326,0.066c-0.1,0.047-0.187,0.112-0.258,0.204
				c-0.072,0.092-0.128,0.204-0.168,0.338c-0.041,0.133-0.061,0.288-0.061,0.462c0,0.176,0.021,0.328,0.061,0.463
				s0.097,0.247,0.17,0.336c0.073,0.089,0.16,0.158,0.26,0.203c0.1,0.048,0.209,0.071,0.329,0.071c0.12,0,0.229-0.023,0.328-0.071
				c0.099-0.045,0.185-0.114,0.256-0.203c0.072-0.089,0.128-0.201,0.168-0.336S18.326,185.485,18.326,185.31z"/>
			<path fill="#FFFFFF" d="M20.597,184.119h0.013c0.047-0.068,0.107-0.136,0.179-0.201c0.072-0.065,0.154-0.123,0.247-0.174
				c0.092-0.049,0.194-0.09,0.305-0.121c0.111-0.03,0.23-0.046,0.356-0.046c0.119,0,0.234,0.015,0.346,0.041
				c0.112,0.028,0.213,0.069,0.306,0.128c0.092,0.059,0.174,0.133,0.245,0.225c0.071,0.092,0.126,0.201,0.167,0.328
				c0.022,0.07,0.038,0.147,0.045,0.231c0.008,0.083,0.012,0.178,0.012,0.286v2.142h-0.799v-2.016c0-0.088-0.003-0.164-0.01-0.229
				c-0.007-0.063-0.019-0.118-0.037-0.165c-0.041-0.104-0.102-0.182-0.184-0.225c-0.082-0.048-0.182-0.069-0.298-0.069
				c-0.155,0-0.304,0.037-0.447,0.11c-0.143,0.074-0.27,0.183-0.379,0.321v2.271h-0.8v-3.299h0.661L20.597,184.119z"/>
			<path fill="#FFFFFF" d="M25.637,184.299H25.57c-0.245,0-0.46,0.037-0.646,0.111c-0.186,0.072-0.329,0.187-0.43,0.337v2.21h-0.8
				v-3.299h0.662l0.074,0.459h0.013c0.095-0.168,0.225-0.3,0.39-0.396c0.166-0.097,0.364-0.146,0.596-0.146
				c0.081,0,0.151,0.006,0.209,0.015L25.637,184.299L25.637,184.299z"/>
			<path fill="#FFFFFF" d="M28.033,186.607h-0.014c-0.045,0.047-0.099,0.097-0.162,0.147c-0.063,0.05-0.135,0.097-0.216,0.14
				c-0.081,0.046-0.171,0.081-0.27,0.107c-0.099,0.028-0.206,0.041-0.32,0.041c-0.156,0-0.3-0.024-0.436-0.073
				c-0.135-0.048-0.25-0.118-0.348-0.211c-0.097-0.093-0.172-0.203-0.228-0.333c-0.055-0.13-0.083-0.275-0.083-0.438
				c0-0.176,0.032-0.336,0.096-0.476c0.064-0.142,0.153-0.26,0.268-0.357c0.115-0.099,0.252-0.173,0.412-0.224
				s0.336-0.076,0.53-0.076c0.142,0,0.272,0.009,0.391,0.027c0.12,0.018,0.224,0.039,0.314,0.063v-0.133
				c0-0.077-0.013-0.151-0.039-0.223c-0.026-0.072-0.068-0.136-0.125-0.191c-0.057-0.055-0.132-0.1-0.225-0.132
				c-0.092-0.033-0.205-0.049-0.337-0.049c-0.162,0-0.324,0.018-0.486,0.054s-0.337,0.092-0.526,0.164v-0.631
				c0.165-0.072,0.338-0.128,0.523-0.166c0.185-0.039,0.378-0.06,0.581-0.062c0.238,0,0.447,0.029,0.626,0.089
				c0.179,0.059,0.328,0.14,0.449,0.242c0.12,0.104,0.21,0.226,0.27,0.365c0.06,0.141,0.089,0.295,0.089,0.46v1.241
				c0,0.219,0.002,0.406,0.007,0.562c0.004,0.157,0.009,0.297,0.013,0.419h-0.722L28.033,186.607z M27.969,185.551
				c-0.077-0.019-0.164-0.033-0.263-0.049c-0.099-0.015-0.199-0.021-0.3-0.021c-0.196,0-0.351,0.039-0.464,0.118
				c-0.114,0.077-0.17,0.197-0.17,0.358c0,0.074,0.013,0.14,0.039,0.195c0.026,0.055,0.061,0.103,0.105,0.138
				c0.043,0.035,0.095,0.063,0.153,0.082c0.059,0.019,0.121,0.026,0.186,0.026c0.081,0,0.157-0.012,0.229-0.032
				c0.072-0.021,0.138-0.049,0.199-0.081s0.115-0.07,0.164-0.111c0.049-0.039,0.089-0.081,0.123-0.118v-0.505H27.969z"/>
			<path fill="#FFFFFF" d="M29.498,185.376c0-0.288,0.039-0.546,0.118-0.771c0.079-0.226,0.187-0.416,0.322-0.568
				c0.136-0.152,0.292-0.268,0.467-0.343c0.176-0.077,0.358-0.114,0.547-0.114c0.087,0,0.171,0.008,0.25,0.022
				s0.153,0.038,0.223,0.065c0.07,0.026,0.135,0.057,0.196,0.092c0.061,0.033,0.117,0.068,0.169,0.104h0.007
				c-0.002-0.046-0.004-0.108-0.005-0.191s-0.001-0.174-0.001-0.272v-1.37h0.8v3.948c0,0.218,0.002,0.405,0.006,0.562
				c0.004,0.158,0.009,0.297,0.014,0.419h-0.722l-0.034-0.351h-0.014c-0.047,0.056-0.104,0.112-0.17,0.165
				c-0.066,0.056-0.139,0.103-0.219,0.143s-0.167,0.071-0.263,0.094c-0.096,0.024-0.2,0.034-0.312,0.034
				c-0.178,0-0.348-0.032-0.511-0.095c-0.163-0.063-0.31-0.163-0.438-0.295c-0.129-0.133-0.233-0.306-0.311-0.521
				C29.539,185.918,29.498,185.665,29.498,185.376z M31.073,186.399c0.079,0,0.153-0.011,0.224-0.03
				c0.071-0.02,0.138-0.048,0.201-0.082s0.119-0.072,0.167-0.111c0.049-0.041,0.09-0.081,0.124-0.12v-1.564
				c-0.095-0.077-0.201-0.142-0.317-0.192c-0.117-0.052-0.241-0.076-0.371-0.076c-0.083,0-0.17,0.017-0.261,0.051
				c-0.091,0.033-0.175,0.092-0.25,0.175c-0.075,0.08-0.138,0.193-0.189,0.339c-0.051,0.146-0.076,0.331-0.076,0.556
				c0,0.331,0.063,0.591,0.19,0.776C30.642,186.302,30.828,186.397,31.073,186.399z"/>
			<path fill="#FFFFFF" d="M36.293,185.194c-0.074,0-0.147-0.001-0.219-0.003c-0.072-0.003-0.14-0.007-0.203-0.015v1.781h-0.827
				v-4.555h1.302c0.218,0,0.409,0.01,0.572,0.029c0.163,0.019,0.309,0.047,0.437,0.087c0.308,0.095,0.545,0.246,0.712,0.455
				s0.25,0.475,0.25,0.798c0,0.219-0.045,0.416-0.135,0.593c-0.09,0.176-0.222,0.325-0.395,0.447
				c-0.173,0.123-0.384,0.217-0.634,0.282C36.904,185.163,36.617,185.194,36.293,185.194z M35.871,184.477
				c0.047,0.007,0.107,0.013,0.181,0.017c0.073,0.002,0.149,0.004,0.228,0.004c0.223,0,0.41-0.019,0.56-0.055
				c0.151-0.036,0.272-0.087,0.365-0.152c0.092-0.062,0.159-0.142,0.199-0.233c0.04-0.091,0.061-0.191,0.061-0.301
				c0-0.134-0.03-0.25-0.091-0.349c-0.061-0.096-0.167-0.173-0.317-0.227c-0.079-0.027-0.176-0.048-0.292-0.061
				c-0.116-0.012-0.258-0.02-0.427-0.02h-0.466L35.871,184.477L35.871,184.477z"/>
			<path fill="#FFFFFF" d="M41.037,184.299H40.97c-0.245,0-0.461,0.037-0.646,0.111c-0.185,0.072-0.329,0.187-0.43,0.337v2.21h-0.8
				v-3.299h0.662l0.074,0.459h0.014c0.094-0.168,0.224-0.3,0.39-0.396c0.165-0.097,0.364-0.146,0.596-0.146
				c0.081,0,0.15,0.006,0.209,0.015v0.709H41.037z"/>
			<path fill="#FFFFFF" d="M44.627,185.31c0,0.26-0.039,0.496-0.114,0.709c-0.077,0.213-0.187,0.396-0.33,0.548
				c-0.143,0.151-0.315,0.27-0.518,0.353c-0.203,0.082-0.429,0.124-0.678,0.124c-0.257,0-0.487-0.042-0.69-0.124
				c-0.204-0.083-0.376-0.199-0.518-0.353c-0.142-0.152-0.25-0.335-0.326-0.548c-0.075-0.213-0.113-0.449-0.113-0.709
				c0-0.258,0.038-0.494,0.115-0.707c0.076-0.214,0.186-0.396,0.329-0.548c0.143-0.152,0.315-0.271,0.518-0.354
				c0.202-0.083,0.428-0.124,0.678-0.124c0.257,0,0.487,0.041,0.69,0.124s0.376,0.201,0.518,0.354
				c0.142,0.151,0.25,0.334,0.326,0.548C44.589,184.815,44.627,185.052,44.627,185.31z M43.8,185.31c0-0.174-0.02-0.329-0.061-0.462
				c-0.04-0.134-0.096-0.246-0.168-0.338c-0.072-0.092-0.159-0.157-0.259-0.204c-0.102-0.045-0.212-0.066-0.332-0.066
				c-0.117,0-0.225,0.021-0.325,0.066c-0.1,0.047-0.186,0.112-0.258,0.204s-0.128,0.204-0.168,0.338
				c-0.041,0.133-0.061,0.288-0.061,0.462c0,0.176,0.02,0.328,0.061,0.463c0.04,0.135,0.098,0.247,0.17,0.336
				c0.073,0.089,0.16,0.158,0.26,0.203c0.1,0.048,0.209,0.071,0.329,0.071c0.119,0,0.228-0.023,0.327-0.071
				c0.099-0.045,0.184-0.114,0.256-0.203c0.072-0.089,0.128-0.201,0.168-0.336C43.78,185.638,43.8,185.485,43.8,185.31z"/>
			<path fill="#FFFFFF" d="M46.972,187.043c-0.175,0-0.334-0.032-0.477-0.097c-0.143-0.065-0.262-0.146-0.356-0.24h-0.014
				c0.003,0.045,0.005,0.108,0.007,0.19c0.002,0.083,0.003,0.175,0.003,0.272v1.371h-0.8v-4.88h0.702l0.034,0.37h0.013
				c0.099-0.132,0.226-0.239,0.381-0.325c0.155-0.085,0.335-0.128,0.54-0.128c0.177,0,0.353,0.033,0.524,0.102
				c0.171,0.067,0.325,0.169,0.458,0.309c0.132,0.138,0.239,0.312,0.318,0.523c0.08,0.212,0.12,0.462,0.12,0.753
				c0,0.307-0.043,0.571-0.128,0.794c-0.085,0.225-0.198,0.408-0.337,0.556c-0.14,0.147-0.294,0.255-0.464,0.325
				C47.326,187.007,47.152,187.043,46.972,187.043z M46.868,184.225c-0.14,0.003-0.272,0.037-0.398,0.105
				c-0.126,0.065-0.238,0.155-0.334,0.271v1.47c0.034,0.038,0.074,0.077,0.121,0.115c0.047,0.037,0.1,0.073,0.159,0.105
				c0.059,0.031,0.124,0.059,0.194,0.078c0.071,0.021,0.145,0.03,0.221,0.03c0.124,0,0.234-0.026,0.331-0.08
				c0.097-0.053,0.177-0.129,0.241-0.227c0.064-0.099,0.113-0.215,0.147-0.35c0.033-0.135,0.05-0.284,0.05-0.45
				c0-0.177-0.017-0.333-0.052-0.467c-0.035-0.134-0.084-0.244-0.148-0.333s-0.141-0.155-0.231-0.201
				C47.078,184.247,46.978,184.225,46.868,184.225z"/>
			<path fill="#FFFFFF" d="M50.819,186.393c0.155,0,0.317-0.017,0.486-0.048s0.339-0.076,0.513-0.136v0.643
				c-0.104,0.045-0.262,0.089-0.476,0.13c-0.214,0.039-0.436,0.062-0.665,0.062c-0.232,0-0.452-0.03-0.66-0.09
				c-0.208-0.061-0.39-0.158-0.545-0.292c-0.155-0.133-0.278-0.307-0.37-0.521c-0.091-0.213-0.137-0.474-0.137-0.776
				c0-0.301,0.043-0.562,0.128-0.786c0.085-0.224,0.2-0.41,0.344-0.559s0.309-0.258,0.494-0.332c0.186-0.073,0.377-0.11,0.576-0.11
				c0.207,0,0.397,0.031,0.572,0.097c0.174,0.062,0.325,0.162,0.452,0.299c0.127,0.137,0.226,0.312,0.297,0.526
				c0.071,0.215,0.106,0.469,0.106,0.761c-0.002,0.114-0.005,0.211-0.01,0.289h-2.143c0.012,0.152,0.045,0.282,0.102,0.391
				c0.056,0.106,0.13,0.195,0.221,0.262c0.091,0.067,0.197,0.116,0.319,0.148C50.545,186.379,50.677,186.393,50.819,186.393z
				 M50.498,184.208c-0.101,0-0.191,0.019-0.27,0.056s-0.147,0.089-0.204,0.152c-0.058,0.064-0.103,0.142-0.137,0.227
				c-0.034,0.087-0.056,0.18-0.067,0.276h1.286c0-0.099-0.013-0.19-0.039-0.276c-0.026-0.085-0.064-0.161-0.115-0.227
				c-0.051-0.063-0.113-0.115-0.189-0.152C50.687,184.227,50.6,184.208,50.498,184.208z"/>
			<path fill="#FFFFFF" d="M54.622,184.299h-0.067c-0.246,0-0.462,0.037-0.646,0.111c-0.186,0.072-0.33,0.187-0.432,0.337v2.21h-0.8
				v-3.299h0.662l0.073,0.459h0.014c0.096-0.168,0.225-0.3,0.391-0.396c0.164-0.097,0.363-0.146,0.596-0.146
				c0.081,0,0.15,0.006,0.21,0.015V184.299z"/>
			<path fill="#FFFFFF" d="M57.091,186.954c-0.09,0.027-0.196,0.049-0.321,0.064c-0.125,0.017-0.242,0.023-0.35,0.023
				c-0.275,0-0.499-0.046-0.673-0.135c-0.175-0.089-0.298-0.219-0.37-0.387c-0.052-0.119-0.078-0.282-0.078-0.489v-1.707h-0.609
				v-0.664h0.609v-0.924H56.1v0.924h0.944v0.664H56.1v1.602c0,0.128,0.02,0.223,0.058,0.283c0.067,0.104,0.2,0.156,0.401,0.156
				c0.092,0,0.185-0.008,0.274-0.022s0.177-0.033,0.258-0.057V186.954z"/>
			<path fill="#FFFFFF" d="M57.716,182.029h0.841v0.874h-0.841V182.029z M57.736,183.66h0.8v3.298h-0.8V183.66z"/>
			<path fill="#FFFFFF" d="M61.116,186.393c0.155,0,0.317-0.017,0.485-0.048c0.17-0.031,0.34-0.076,0.514-0.136v0.643
				c-0.104,0.045-0.262,0.089-0.477,0.13c-0.214,0.039-0.436,0.062-0.664,0.062c-0.231,0-0.451-0.03-0.66-0.09
				c-0.207-0.061-0.39-0.158-0.545-0.292c-0.154-0.133-0.277-0.307-0.369-0.521c-0.092-0.213-0.137-0.474-0.137-0.776
				c0-0.301,0.043-0.562,0.129-0.786c0.084-0.225,0.199-0.41,0.344-0.559c0.145-0.146,0.309-0.258,0.494-0.332
				c0.185-0.073,0.377-0.11,0.576-0.11c0.205,0,0.396,0.031,0.57,0.097c0.175,0.062,0.325,0.162,0.452,0.299
				s0.226,0.312,0.297,0.526s0.106,0.469,0.106,0.761c-0.002,0.114-0.006,0.211-0.01,0.289H60.08
				c0.012,0.152,0.046,0.282,0.102,0.391c0.057,0.106,0.131,0.195,0.223,0.262c0.091,0.067,0.197,0.116,0.318,0.148
				C60.843,186.381,60.975,186.393,61.116,186.393z M60.796,184.208c-0.101,0-0.19,0.019-0.271,0.056
				c-0.078,0.037-0.146,0.089-0.203,0.152c-0.059,0.064-0.104,0.142-0.137,0.227c-0.035,0.087-0.058,0.18-0.067,0.276h1.284
				c0-0.099-0.012-0.19-0.039-0.276c-0.024-0.085-0.062-0.161-0.113-0.227c-0.051-0.063-0.113-0.115-0.189-0.152
				S60.896,184.208,60.796,184.208z"/>
			<path fill="#FFFFFF" d="M64.424,186.002c0-0.07-0.021-0.128-0.06-0.174c-0.039-0.047-0.091-0.084-0.156-0.113
				c-0.065-0.03-0.142-0.059-0.226-0.081c-0.084-0.021-0.172-0.045-0.266-0.066c-0.115-0.033-0.229-0.069-0.337-0.11
				c-0.106-0.042-0.203-0.098-0.284-0.166c-0.082-0.066-0.147-0.152-0.195-0.256c-0.049-0.104-0.072-0.23-0.072-0.38
				c0-0.185,0.031-0.345,0.097-0.479c0.066-0.136,0.154-0.246,0.267-0.335c0.111-0.088,0.24-0.153,0.388-0.196
				c0.147-0.044,0.303-0.065,0.468-0.065c0.2,0,0.389,0.017,0.562,0.05c0.176,0.033,0.334,0.074,0.477,0.128v0.655
				c-0.074-0.023-0.152-0.047-0.234-0.068s-0.164-0.04-0.25-0.058c-0.084-0.015-0.168-0.027-0.25-0.037
				c-0.084-0.012-0.162-0.017-0.236-0.017c-0.096,0-0.176,0.011-0.239,0.027c-0.065,0.019-0.118,0.042-0.159,0.072
				c-0.039,0.031-0.068,0.065-0.088,0.105c-0.018,0.039-0.025,0.081-0.025,0.124c0,0.074,0.02,0.137,0.059,0.184
				c0.04,0.05,0.095,0.087,0.164,0.115c0.068,0.03,0.143,0.055,0.219,0.074c0.077,0.02,0.15,0.037,0.223,0.058
				c0.112,0.025,0.226,0.059,0.338,0.098c0.112,0.038,0.213,0.093,0.305,0.162c0.09,0.067,0.164,0.157,0.221,0.269
				c0.059,0.109,0.086,0.25,0.086,0.421c0,0.188-0.033,0.348-0.104,0.486c-0.069,0.138-0.168,0.252-0.293,0.345
				s-0.273,0.16-0.447,0.205c-0.175,0.043-0.366,0.065-0.575,0.065c-0.208,0-0.394-0.016-0.559-0.05
				c-0.166-0.032-0.304-0.073-0.41-0.124v-0.65c0.176,0.065,0.338,0.109,0.485,0.135c0.148,0.023,0.287,0.035,0.414,0.035
				c0.101,0,0.191-0.008,0.277-0.021c0.085-0.016,0.159-0.038,0.221-0.069c0.062-0.031,0.111-0.073,0.146-0.12
				C64.404,186.129,64.424,186.069,64.424,186.002z"/>
			<path fill="#FFFFFF" d="M69.355,183.023c-0.225,0-0.433,0.037-0.621,0.112c-0.19,0.075-0.354,0.184-0.489,0.326
				c-0.138,0.145-0.243,0.32-0.319,0.529c-0.076,0.211-0.113,0.449-0.113,0.721c0,0.267,0.033,0.502,0.104,0.705
				c0.068,0.203,0.17,0.373,0.3,0.509c0.132,0.137,0.29,0.238,0.478,0.31c0.188,0.068,0.402,0.104,0.641,0.104
				c0.171,0,0.346-0.015,0.523-0.041c0.177-0.026,0.344-0.066,0.498-0.118v0.717c-0.157,0.047-0.326,0.081-0.51,0.107
				c-0.182,0.026-0.371,0.039-0.566,0.039c-0.383,0-0.719-0.056-1.008-0.165c-0.291-0.109-0.533-0.266-0.729-0.467
				c-0.195-0.2-0.341-0.442-0.438-0.721c-0.1-0.281-0.146-0.59-0.146-0.929c0-0.348,0.052-0.668,0.156-0.966
				c0.104-0.298,0.256-0.556,0.451-0.774c0.197-0.217,0.443-0.389,0.74-0.512c0.295-0.127,0.629-0.189,1.004-0.191
				c0.19,0,0.371,0.013,0.543,0.039c0.17,0.025,0.324,0.062,0.461,0.11v0.707c-0.18-0.056-0.347-0.096-0.502-0.118
				C69.656,183.034,69.505,183.023,69.355,183.023z"/>
			<path fill="#FFFFFF" d="M74.215,185.31c0,0.26-0.038,0.496-0.113,0.709c-0.076,0.213-0.188,0.396-0.33,0.548
				c-0.143,0.151-0.314,0.27-0.518,0.353c-0.203,0.082-0.429,0.124-0.679,0.124c-0.257,0-0.486-0.042-0.689-0.124
				c-0.204-0.083-0.377-0.199-0.519-0.353c-0.143-0.152-0.25-0.335-0.325-0.548s-0.112-0.449-0.112-0.709
				c0-0.258,0.037-0.494,0.114-0.707c0.076-0.214,0.187-0.396,0.328-0.548c0.144-0.152,0.315-0.271,0.519-0.354
				s0.43-0.124,0.678-0.124c0.258,0,0.488,0.041,0.69,0.124c0.204,0.083,0.376,0.201,0.519,0.354
				c0.142,0.151,0.25,0.334,0.326,0.548C74.178,184.815,74.215,185.052,74.215,185.31z M73.389,185.31
				c0-0.174-0.021-0.329-0.061-0.462c-0.041-0.134-0.098-0.246-0.169-0.338c-0.072-0.092-0.158-0.157-0.261-0.204
				c-0.102-0.045-0.211-0.066-0.33-0.066c-0.116,0-0.226,0.021-0.325,0.066c-0.101,0.047-0.187,0.112-0.259,0.204
				c-0.071,0.092-0.129,0.204-0.168,0.338c-0.041,0.133-0.062,0.288-0.062,0.462c0,0.176,0.021,0.328,0.062,0.463
				c0.039,0.135,0.098,0.247,0.17,0.336s0.16,0.158,0.26,0.203c0.102,0.048,0.21,0.071,0.329,0.071c0.118,0,0.229-0.023,0.327-0.071
				c0.1-0.045,0.185-0.114,0.257-0.203c0.071-0.089,0.128-0.201,0.169-0.336C73.368,185.638,73.389,185.485,73.389,185.31z"/>
			<path fill="#FFFFFF" d="M75.042,186.05h0.907v0.908h-0.907V186.05z"/>
			<path fill="#FFFFFF" d="M77.188,186.05h0.936l-0.729,2.307H76.54L77.188,186.05z"/>
			<path fill="#FFFFFF" d="M81.486,182.404v3.856h2.111v0.696H80.66v-4.554L81.486,182.404L81.486,182.404z"/>
			<path fill="#FFFFFF" d="M86.271,186.954c-0.09,0.027-0.197,0.049-0.322,0.064s-0.241,0.023-0.35,0.023
				c-0.274,0-0.5-0.046-0.674-0.135c-0.175-0.089-0.298-0.219-0.369-0.387c-0.053-0.119-0.078-0.282-0.078-0.489v-1.707h-0.609
				v-0.664h0.609v-0.924h0.801v0.924h0.943v0.664h-0.943v1.602c0,0.128,0.019,0.223,0.058,0.283
				c0.067,0.104,0.201,0.156,0.401,0.156c0.092,0,0.184-0.008,0.273-0.022c0.092-0.016,0.178-0.033,0.26-0.057V186.954
				L86.271,186.954z"/>
			<path fill="#FFFFFF" d="M86.727,185.376c0-0.288,0.039-0.546,0.119-0.771c0.078-0.226,0.187-0.416,0.321-0.568
				c0.136-0.152,0.292-0.268,0.468-0.343c0.176-0.077,0.357-0.114,0.547-0.114c0.088,0,0.17,0.008,0.25,0.022
				c0.078,0.015,0.151,0.038,0.223,0.065c0.068,0.026,0.135,0.057,0.195,0.092c0.061,0.033,0.116,0.068,0.168,0.104h0.008
				c-0.004-0.046-0.004-0.108-0.006-0.191s-0.002-0.174-0.002-0.272v-1.37h0.801v3.948c0,0.218,0.002,0.405,0.007,0.562
				c0.004,0.157,0.009,0.297,0.014,0.419h-0.723l-0.033-0.351h-0.015c-0.047,0.056-0.104,0.112-0.17,0.165
				c-0.067,0.056-0.14,0.103-0.219,0.143c-0.08,0.04-0.168,0.071-0.265,0.094c-0.097,0.024-0.199,0.034-0.312,0.034
				c-0.179,0-0.35-0.032-0.513-0.095c-0.163-0.063-0.309-0.163-0.438-0.295c-0.129-0.133-0.231-0.306-0.311-0.521
				C86.766,185.918,86.727,185.665,86.727,185.376z M88.302,186.399c0.079,0,0.154-0.011,0.226-0.03
				c0.07-0.021,0.138-0.048,0.201-0.082c0.062-0.034,0.117-0.072,0.166-0.111c0.049-0.041,0.09-0.081,0.123-0.12v-1.564
				c-0.095-0.077-0.199-0.142-0.316-0.192c-0.117-0.05-0.24-0.076-0.371-0.076c-0.083,0-0.17,0.017-0.262,0.051
				c-0.092,0.033-0.174,0.092-0.25,0.175c-0.074,0.08-0.139,0.193-0.188,0.339c-0.05,0.146-0.075,0.331-0.075,0.556
				c0,0.331,0.063,0.591,0.19,0.776C87.871,186.302,88.057,186.397,88.302,186.399z"/>
			<path fill="#FFFFFF" d="M90.867,186.05h0.906v0.908h-0.906V186.05z"/>
		</g>
	</g>
</g>
</svg>
