<?xml version="1.0" encoding="utf-8"?>
<!-- Generator: Adobe Illustrator 16.0.0, SVG Export Plug-In . SVG Version: 6.00 Build 0)  -->
<!DOCTYPE svg PUBLIC "-//W3C//DTD SVG 1.1//EN" "http://www.w3.org/Graphics/SVG/1.1/DTD/svg11.dtd">
<svg version="1.1" id="Layer_1" xmlns="http://www.w3.org/2000/svg" xmlns:xlink="http://www.w3.org/1999/xlink" x="0px" y="0px"
	 width="514px" height="712px" viewBox="994.5 154.5 514 712" enable-background="new 994.5 154.5 514 712" xml:space="preserve">
<path d="M1062.759,169.7H1460.4c19.322,0,34.986,15.665,34.986,34.988v590.625c0,19.323-15.664,34.987-34.986,34.987h-397.642
	c-19.323,0-34.988-15.664-34.988-34.987V204.688C1027.771,185.365,1043.436,169.7,1062.759,169.7z"/>
<rect x="1096.806" y="551.619" fill="#FFFFFF" width="329.578" height="1.693"/>
<path fill="#FFFFFF" d="M1066.398,343.103h-6.777V221.57c0.034-11.193,9.109-20.254,20.303-20.271h363.311
	c11.201,0,20.285,9.07,20.304,20.271v76.095h-6.777V221.57c-0.018-7.457-6.067-13.493-13.524-13.493h-363.312
	c-7.457,0-13.508,6.036-13.524,13.493v121.533H1066.398z"/>
<path fill="#FFFFFF" d="M1443.234,792.864h-363.312c-11.206-0.019-20.285-9.097-20.303-20.304V437.21h6.776v335.353
	c0,7.47,6.057,13.523,13.525,13.523h363.311c7.471,0,13.525-6.055,13.525-13.523V376.836h6.777v395.727
	C1463.537,783.773,1454.447,792.864,1443.234,792.864L1443.234,792.864z"/>
<path fill="#FFFFFF" d="M1263.18,299.58c-1.108,0.001-2.008,0.902-2.006,2.011c0.002,1.107,0.898,2.004,2.006,2.006
	c1.109-0.001,2.008-0.902,2.006-2.011C1265.184,300.478,1264.286,299.581,1263.18,299.58z"/>
<path fill="#FFFFFF" d="M1270.93,268.953c1.561,0.035,2.853-1.201,2.888-2.761c0.034-1.559-1.201-2.852-2.762-2.886
	c-1.56-0.034-2.852,1.202-2.886,2.761c-0.001,0.021-0.001,0.042-0.001,0.062C1268.168,267.665,1269.395,268.919,1270.93,268.953z
	 M1270.93,264.215c1.045,0.017,1.884,0.869,1.884,1.914c0.136,1.049-0.605,2.008-1.653,2.143c-1.049,0.135-2.008-0.605-2.145-1.654
	c-0.021-0.162-0.021-0.327,0-0.489C1269.016,265.072,1269.873,264.215,1270.93,264.215L1270.93,264.215z"/>
<path fill="#FFFFFF" d="M1248.117,299.58c-1.109,0.017-1.994,0.93-1.978,2.04c0.019,1.109,0.932,1.994,2.039,1.977
	c1.097-0.017,1.978-0.911,1.979-2.008c0-1.109-0.899-2.008-2.01-2.009C1248.139,299.579,1248.128,299.579,1248.117,299.58z"/>
<path fill="#FFFFFF" d="M1255.68,299.58c-1.108,0-2.008,0.899-2.008,2.008c0,1.109,0.898,2.008,2.008,2.008
	c1.11,0,2.009-0.898,2.009-2.008l0,0C1257.671,300.486,1256.781,299.596,1255.68,299.58z"/>
<path fill="#FFFFFF" d="M1278.649,303.596c1.108-0.001,2.007-0.902,2.006-2.011c-0.002-1.107-0.899-2.004-2.006-2.005
	c-1.109-0.001-2.011,0.896-2.012,2.005c-0.002,1.109,0.896,2.01,2.007,2.011C1278.646,303.596,1278.646,303.596,1278.649,303.596z"
	/>
<path fill="#FFFFFF" d="M1272.907,301.588c0-1.097-0.88-1.991-1.979-2.008c-1.107-0.001-2.009,0.896-2.011,2.005
	c-0.001,1.109,0.896,2.01,2.006,2.011c0.002,0,0.003,0,0.005,0C1272.027,303.579,1272.907,302.685,1272.907,301.588z"/>
<path fill="#FFFFFF" d="M1280.627,293.209c0.658,0.017,1.205-0.502,1.223-1.161c0-0.011,0-0.021,0-0.032
	c-0.031-0.657-0.565-1.177-1.223-1.192c-0.646,0.017-1.162,0.546-1.162,1.192c-0.017,0.641,0.488,1.175,1.13,1.192
	C1280.605,293.209,1280.615,293.209,1280.627,293.209z"/>
<path fill="#FFFFFF" d="M1293.932,293.209c0.642,0.018,1.174-0.488,1.191-1.129c0.001-0.021,0.001-0.042,0-0.063
	c0-0.659-0.533-1.192-1.191-1.192s-1.192,0.534-1.192,1.192l0,0c-0.019,0.641,0.487,1.175,1.129,1.192
	C1293.889,293.21,1293.91,293.21,1293.932,293.209z"/>
<path fill="#FFFFFF" d="M1247.771,293.209c0.642,0.018,1.176-0.488,1.192-1.129c0-0.021,0-0.042,0-0.063
	c0-0.659-0.534-1.192-1.192-1.192s-1.191,0.534-1.191,1.192l0,0c-0.018,0.641,0.487,1.175,1.129,1.192
	C1247.729,293.21,1247.751,293.21,1247.771,293.209z"/>
<path fill="#FFFFFF" d="M1286.149,303.596c1.107,0,2.008-0.898,2.008-2.008c0-1.109-0.899-2.008-2.008-2.008
	c-1.109,0-2.01,0.899-2.01,2.008l0,0C1284.158,302.69,1285.047,303.579,1286.149,303.596z"/>
<path fill="#FFFFFF" d="M1293.712,303.596c1.108-0.018,1.993-0.931,1.978-2.04c-0.019-1.109-0.932-1.994-2.04-1.977
	c-1.097,0.017-1.978,0.911-1.978,2.008c0,1.109,0.898,2.008,2.008,2.008C1293.689,303.596,1293.701,303.596,1293.712,303.596z"/>
<path fill="#FFFFFF" d="M1261.202,293.209c0.642,0.018,1.175-0.488,1.192-1.129c0-0.021,0-0.042,0-0.063
	c-0.017-0.652-0.541-1.176-1.192-1.192c-0.657,0.016-1.19,0.536-1.224,1.192c0,0.659,0.532,1.193,1.191,1.193
	C1261.182,293.21,1261.191,293.21,1261.202,293.209z"/>
<path fill="#FFFFFF" d="M1174.188,429.679l-4.707,12.238h2.229l1.287-3.577h4.55l1.351,3.577h2.321l-4.959-12.238H1174.188z
	 M1173.622,436.582l1.601-4.393l1.663,4.393H1173.622z"/>
<polygon fill="#FFFFFF" points="1217.554,438.434 1215.2,429.867 1215.169,429.679 1212.878,429.679 1210.462,438.402 
	1208.328,429.679 1206.132,429.679 1209.521,441.917 1211.403,441.917 1214.008,432.503 1216.612,441.917 1218.495,441.917 
	1221.884,429.679 1219.719,429.679 "/>
<path fill="#FFFFFF" d="M1251.443,429.679l-4.581,12.238h2.228l1.287-3.577h4.52l1.349,3.577h2.354l-5.021-12.238H1251.443z
	 M1250.879,436.582l1.6-4.393l1.664,4.393H1250.879z"/>
<path fill="#FFFFFF" d="M1292.3,436.395l0.502-0.221c0.331-0.203,0.638-0.445,0.91-0.722l0,0c0.483-0.63,0.748-1.401,0.753-2.196
	c0.018-0.51-0.091-1.016-0.313-1.475c-0.25-0.768-0.823-1.387-1.568-1.694c-0.252-0.11-0.515-0.196-0.785-0.251h-0.878h-6.4v12.237
	h2.134v-5.021h2.573c0.25-0.03,0.503-0.03,0.753,0c0.252,0.08,0.485,0.208,0.689,0.377c0.199,0.144,0.379,0.312,0.533,0.502
	c0.14,0.229,0.256,0.471,0.346,0.723l1.16,3.295h2.26l-1.317-3.546C1293.446,437.597,1292.969,436.887,1292.3,436.395z
	 M1289.883,434.98h-3.138v-3.481h3.421c1.978,0,2.229,0.973,2.229,1.726c0.062,0.519-0.151,1.031-0.564,1.351
	C1291.242,434.917,1290.559,435.061,1289.883,434.98L1289.883,434.98z"/>
<path fill="#FFFFFF" d="M1325.844,429.679h-3.983v12.238h3.983c3.019,0.449,5.827-1.633,6.276-4.649c0.08-0.539,0.08-1.088,0-1.627
	c0.312-2.999-1.863-5.685-4.862-5.998C1326.787,429.593,1326.312,429.605,1325.844,429.679z M1329.735,437.555
	c-0.13,0.479-0.354,0.929-0.659,1.318c-0.338,0.38-0.771,0.661-1.255,0.814c-0.659,0.211-1.35,0.308-2.04,0.282h-1.853v-8.347h1.853
	c0.701-0.028,1.401,0.066,2.07,0.282c0.472,0.146,0.895,0.419,1.225,0.784c0.306,0.367,0.529,0.796,0.659,1.256
	c0.128,0.588,0.189,1.188,0.188,1.788C1329.925,436.347,1329.861,436.956,1329.735,437.555L1329.735,437.555z"/>
<path fill="#FFFFFF" d="M1368.206,437.179c-0.115-0.336-0.296-0.646-0.533-0.909c-0.235-0.278-0.511-0.521-0.814-0.723
	c-0.271-0.161-0.554-0.298-0.849-0.408l-0.879-0.281h-0.345l-1.317-0.313c-0.435-0.083-0.863-0.188-1.287-0.313l-0.689-0.313l0,0
	c-0.29-0.196-0.456-0.529-0.439-0.879c-0.011-0.446,0.218-0.864,0.598-1.099c0.543-0.341,1.182-0.494,1.818-0.438
	c1.633,0,2.512,0.596,2.637,1.883v0.22h2.009v-0.282c-0.001-0.545-0.13-1.082-0.377-1.568c-0.238-0.461-0.569-0.866-0.974-1.192
	c-0.453-0.338-0.963-0.593-1.506-0.752c-1.201-0.33-2.47-0.33-3.672,0c-0.517,0.137-0.996,0.383-1.41,0.722
	c-0.377,0.304-0.679,0.689-0.879,1.129c-0.252,0.416-0.384,0.895-0.377,1.381c-0.002,0.455,0.094,0.904,0.281,1.318
	c0.162,0.366,0.409,0.688,0.723,0.94c0.375,0.311,0.799,0.555,1.256,0.723c0.559,0.229,1.136,0.405,1.726,0.532l1.694,0.408
	l1.065,0.407c0.226,0.137,0.417,0.318,0.565,0.534c0.049,0.217,0.049,0.44,0,0.657c-0.004,0.243-0.068,0.48-0.188,0.69
	c-0.11,0.223-0.286,0.408-0.502,0.534c-0.268,0.155-0.552,0.282-0.848,0.376c-0.694,0.126-1.406,0.126-2.103,0h-0.188
	c-0.354-0.086-0.686-0.246-0.973-0.471c-0.274-0.182-0.511-0.415-0.69-0.69c-0.154-0.339-0.261-0.698-0.313-1.066v-0.22h-2.009
	v0.282c0.021,0.583,0.149,1.157,0.377,1.694c0.222,0.523,0.564,0.986,1.005,1.35c0.487,0.385,1.041,0.683,1.631,0.879
	c0.735,0.202,1.496,0.297,2.26,0.282c0.615-0.007,1.227-0.091,1.82-0.251c0.518-0.166,0.998-0.433,1.411-0.785
	c0.431-0.307,0.775-0.717,1.005-1.192c0.25-0.482,0.367-1.023,0.346-1.567C1368.322,437.994,1368.301,437.579,1368.206,437.179z"/>
<path fill="#FFFFFF" d="M1187.241,416.907c-1.663,1.641-3.944,2.496-6.276,2.354c-1.346,0.059-2.695-0.048-4.016-0.312
	c-0.154-0.05-0.295-0.136-0.408-0.251c-0.08-0.404-0.08-0.82,0-1.226v-16.631c-0.093-0.392-0.093-0.8,0-1.191
	c0,0,0.22-0.188,0.502-0.282c0.488-0.149,0.995-0.233,1.506-0.251c1.045-0.062,2.093-0.062,3.139,0v-0.313h-14.059v0.313
	c0.836-0.052,1.675-0.052,2.511,0l1.537,0.251c0.251,0,0.408,0,0.439,0.251c0.076,0.394,0.076,0.799,0,1.192v16.693
	c0.076,0.372,0.076,0.757,0,1.129c-0.141,0.151-0.312,0.271-0.502,0.346c-0.476,0.119-0.957,0.203-1.443,0.252
	c-0.689,0-1.569,0-2.573,0v0.345h22.218v-10.072h-0.377C1189.662,412.158,1188.878,414.803,1187.241,416.907z"/>
<path fill="#FFFFFF" d="M1192.105,399.021c1.367-0.063,2.739,0.053,4.078,0.346c0.154,0.05,0.294,0.136,0.407,0.251
	c0.084,0.383,0.084,0.778,0,1.161v16.757c0.061,0.374,0.061,0.755,0,1.129c-0.139,0.151-0.311,0.271-0.502,0.346
	c-0.483,0.122-0.977,0.205-1.475,0.251c-0.723,0-1.537,0-2.542,0v0.346h13.398v-0.346c-1.357,0.064-2.72-0.052-4.048-0.345
	l-0.407-0.283c-0.076-0.394-0.076-0.798,0-1.191v-16.757c0-0.723,0-1.16,0.22-1.286h0.346c0.498-0.151,1.016-0.236,1.537-0.251
	c0.836-0.055,1.674-0.055,2.51,0v-0.313h-13.522V399.021L1192.105,399.021z"/>
<path fill="#FFFFFF" d="M1207.669,399.021c0.836-0.052,1.675-0.052,2.511,0l1.506,0.252c0.283,0,0.439,0,0.472,0.251
	c0.075,0.394,0.075,0.798,0,1.191v16.693c0.054,0.375,0.054,0.755,0,1.13c-0.141,0.15-0.312,0.269-0.502,0.345
	c-0.484,0.119-0.979,0.203-1.476,0.251c-0.711,0-1.559,0-2.542,0v0.346h14.121v-0.346c-1.317,0-2.385,0-3.138,0
	c-0.529-0.045-1.054-0.129-1.569-0.251c-0.179-0.053-0.341-0.148-0.471-0.282c-0.076-0.394-0.076-0.799,0-1.191v-8.755
	c1.625-0.159,3.265,0.089,4.771,0.722c1.035,0.722,1.537,2.604,1.537,5.523h0.407v-12.866h-0.407c0.1,2.021-0.549,4.01-1.819,5.586
	c-1.411,0.612-2.96,0.84-4.487,0.659v-7.562c0-0.722,0-1.161,0.22-1.318h0.313c0.585-0.161,1.184-0.267,1.789-0.312
	c0.627,0,1.662,0,3.138,0c2.127,0.004,4.063,1.223,4.989,3.138c0.846,1.46,1.3,3.114,1.316,4.802h0.408v-8.127h-21.087V399.021
	L1207.669,399.021z"/>
<path fill="#FFFFFF" d="M1249.436,417.096c-1.539,1.533-3.67,2.323-5.837,2.165h-2.542c-0.426-0.017-0.849-0.09-1.255-0.22
	c-0.256-0.066-0.484-0.209-0.659-0.408c-0.055-0.385-0.055-0.774,0-1.161v-8.69c1.504-0.165,3.022,0.084,4.395,0.722
	c1.183,1.596,1.812,3.535,1.788,5.522h0.346V402.16h-0.346c0.042,2.014-0.601,3.981-1.82,5.585c-1.367,0.61-2.875,0.838-4.36,0.659
	v-7.562c-0.056-0.385-0.056-0.775,0-1.161c0.108-0.154,0.263-0.274,0.438-0.345c0.757-0.207,1.537-0.312,2.322-0.314h2.604
	c2.131-0.011,4.076,1.214,4.989,3.14c0.862,1.453,1.317,3.11,1.318,4.801h0.406v-8.127h-20.961v0.313
	c0.836-0.051,1.674-0.051,2.51,0c0.508,0.054,1.011,0.138,1.508,0.25c0.251,0,0.406,0,0.438,0.252
	c0.147,0.379,0.201,0.787,0.156,1.191v16.694c0.076,0.372,0.076,0.757,0,1.129c-0.128,0.149-0.289,0.268-0.471,0.346
	c-1.316,0.296-2.668,0.412-4.018,0.345v0.347h21.966v-9.696h-0.407C1251.854,412.568,1250.979,415.044,1249.436,417.096z"/>
<path fill="#FFFFFF" d="M1269.268,408.623c-1.722-0.878-3.561-1.501-5.461-1.852c-1.64-0.291-3.22-0.854-4.676-1.663
	c-1.075-0.542-1.746-1.651-1.726-2.855c-0.027-1.147,0.574-2.219,1.568-2.793c0.958-0.531,2.043-0.792,3.138-0.753
	c1.704-0.002,3.336,0.689,4.52,1.914c1.328,1.287,2.199,2.974,2.479,4.802h0.346v-6.903l-2.26,1.852
	c-0.644-0.45-1.312-0.858-2.009-1.225c-1.137-0.451-2.354-0.666-3.577-0.627c-1.627-0.002-3.189,0.629-4.36,1.758
	c-1.211,1.069-1.888,2.619-1.853,4.235c-0.104,1.673,0.652,3.282,2.008,4.269c1.531,0.895,3.194,1.54,4.928,1.914
	c1.738,0.359,3.418,0.963,4.988,1.788c1.273,0.634,2.077,1.936,2.071,3.357c0.009,1.177-0.566,2.282-1.537,2.949
	c-0.835,0.649-1.86,1.002-2.919,1.004c-1.918,0.132-3.804-0.539-5.209-1.851c-0.66-0.703-1.199-1.508-1.601-2.387
	c-0.677-1.434-1.192-2.938-1.537-4.486h-0.313v8.975c0,0,0.785-0.941,2.135-2.667c0.715,0.907,1.656,1.611,2.729,2.04
	c1.14,0.444,2.354,0.658,3.577,0.627c1.617,0.046,3.198-0.488,4.456-1.506c1.465-1.218,2.269-3.056,2.165-4.958
	C1271.553,411.682,1270.77,409.806,1269.268,408.623z"/>
<path fill="#FFFFFF" d="M1274.633,407.933h0.471c0.22-2.593,1.095-5.087,2.543-7.249c1.021-1.123,2.498-1.724,4.017-1.631h0.722
	c0.157,0,0.221,0.376,0.221,0.909v17.604c0.075,0.371,0.075,0.757,0,1.13c-0.127,0.165-0.304,0.286-0.502,0.345
	c-0.518,0.122-1.041,0.206-1.569,0.251c-0.753,0-1.82,0-3.138,0v0.346h14.778v-0.346c-1.317,0-2.385,0-3.138,0
	c-0.527-0.045-1.053-0.129-1.568-0.251c-0.175-0.062-0.334-0.157-0.472-0.282c-0.058-0.396-0.058-0.797,0-1.191v-17.604
	c-0.071-0.277-0.071-0.568,0-0.847c0,0,0.314,0,0.754,0c1.556-0.123,3.078,0.492,4.11,1.663c1.439,2.172,2.295,4.68,2.479,7.279
	h0.472v-9.257h-20.083L1274.633,407.933z"/>
<path fill="#FFFFFF" d="M1312.257,399.021c2.479,0,3.734,0.815,3.734,2.511c-0.044,0.788-0.304,1.548-0.753,2.196l-3.703,6.024
	l-5.43-8.724c-0.163-0.254-0.262-0.546-0.281-0.849c0-0.438,0.281-0.753,0.94-0.909c1.031-0.216,2.087-0.3,3.139-0.252v-0.312
	h-13.399v0.312c1.129-0.068,2.262,0.036,3.358,0.314c0.649,0.316,1.171,0.849,1.475,1.506l6.276,9.979v6.716
	c0.058,0.395,0.058,0.797,0,1.191c-0.146,0.132-0.316,0.229-0.504,0.282c-0.503,0.132-1.019,0.216-1.536,0.251
	c-0.784,0-1.789,0-3.139,0v0.346h14.718v-0.346c-1.318,0-2.322,0-3.14,0c-0.518-0.041-1.032-0.125-1.537-0.251
	c-0.187-0.055-0.357-0.15-0.502-0.282c-0.059-0.396-0.059-0.798,0-1.191v-7.092l3.798-6.276c0.563-0.847,1.317-2.071,2.291-3.577
	c0.888-1.091,2.232-1.705,3.64-1.663v-0.312h-9.101L1312.257,399.021z"/>
<path fill="#FFFFFF" d="M1342.507,416.907c-1.661,1.644-3.944,2.5-6.276,2.354c-1.336,0.057-2.674-0.05-3.983-0.312
	c-0.154-0.05-0.295-0.136-0.408-0.251c-0.08-0.404-0.08-0.82,0-1.226v-16.631c-0.021-0.405,0.044-0.812,0.188-1.191
	c0,0,0.221-0.188,0.503-0.282c0.489-0.146,0.995-0.229,1.506-0.251c1.045-0.062,2.093-0.062,3.138,0v-0.313h-13.964v0.313
	c0.837-0.052,1.675-0.052,2.511,0c0.518,0.055,1.03,0.139,1.537,0.251c0.252,0,0.408,0,0.439,0.251c0.076,0.394,0.076,0.799,0,1.192
	v16.693c0.06,0.374,0.06,0.755,0,1.129c-0.146,0.158-0.329,0.276-0.533,0.346c-0.473,0.125-0.956,0.209-1.443,0.252
	c-0.689,0-1.537,0-2.542,0v0.345h22.218v-10.072h-0.408C1345.112,412.193,1344.229,414.835,1342.507,416.907z"/>
<path fill="#FFFFFF" d="M1369.021,410.004c-0.093,2.564-0.969,5.04-2.511,7.092c-1.557,1.527-3.692,2.315-5.866,2.165h-2.512
	c-0.437-0.017-0.869-0.091-1.287-0.22c-0.25-0.056-0.474-0.2-0.627-0.408c-0.078-0.383-0.078-0.777,0-1.161v-8.69
	c1.504-0.174,3.024,0.076,4.394,0.722c1.184,1.596,1.812,3.535,1.788,5.522h0.377V402.16h-0.377c0.033,2.007-0.597,3.97-1.788,5.585
	c-1.378,0.612-2.896,0.841-4.394,0.659v-7.562c-0.078-0.383-0.078-0.777,0-1.161c0.104-0.161,0.258-0.282,0.438-0.345
	c0.758-0.207,1.538-0.312,2.321-0.314h2.604c2.127,0.006,4.063,1.225,4.989,3.14c0.852,1.456,1.296,3.114,1.287,4.801h0.471v-8.127
	h-21.056v0.313c0.836-0.051,1.675-0.051,2.511,0c0.506,0.057,1.009,0.141,1.506,0.25c0.251,0,0.408,0,0.439,0.252
	c0.075,0.394,0.075,0.799,0,1.191v16.694c0.075,0.372,0.075,0.757,0,1.129c-0.122,0.144-0.271,0.261-0.439,0.346
	c-1.317,0.294-2.668,0.41-4.017,0.345v0.347h21.966v-9.696h-0.219V410.004z"/>
<path fill="#FFFFFF" d="M1297.791,304.538v-5.899h-53.753v5.899H1297.791L1297.791,304.538z M1293.712,299.58
	c1.108,0.017,1.993,0.93,1.978,2.04c-0.019,1.109-0.932,1.994-2.04,1.977c-1.097-0.017-1.978-0.911-1.978-2.008
	c0-1.109,0.898-2.008,2.008-2.009C1293.689,299.579,1293.701,299.579,1293.712,299.58z M1286.149,299.58
	c1.107,0,2.008,0.899,2.008,2.008c0,1.109-0.899,2.008-2.008,2.008c-1.109,0-2.01-0.898-2.01-2.008l0,0
	C1284.158,300.486,1285.047,299.596,1286.149,299.58z M1278.649,299.58c1.108,0.001,2.007,0.902,2.006,2.011
	c-0.002,1.107-0.899,2.004-2.006,2.006c-1.109,0.001-2.011-0.896-2.012-2.006c-0.002-1.109,0.896-2.009,2.007-2.011
	C1278.646,299.58,1278.646,299.58,1278.649,299.58z M1248.117,303.596c-1.109-0.018-1.994-0.931-1.978-2.04
	c0.018-1.109,0.932-1.994,2.039-1.977c1.097,0.017,1.978,0.911,1.979,2.008c0,1.109-0.899,2.008-2.01,2.008
	C1248.139,303.596,1248.128,303.596,1248.117,303.596z M1255.68,303.596c-1.108,0-2.008-0.898-2.008-2.008
	c0-1.109,0.898-2.008,2.008-2.008c1.11,0,2.009,0.899,2.009,2.008l0,0C1257.671,302.69,1256.781,303.579,1255.68,303.596z
	 M1263.18,303.596c-1.108-0.001-2.008-0.902-2.006-2.011c0.002-1.107,0.898-2.004,2.006-2.005c1.109,0.001,2.008,0.902,2.006,2.011
	C1265.184,302.698,1264.286,303.595,1263.18,303.596z M1268.828,301.588c0.017-1.114,0.925-2.008,2.039-2.008
	c1.108,0.001,2.008,0.902,2.006,2.011c-0.002,1.107-0.898,2.004-2.006,2.006C1269.753,303.596,1268.845,302.702,1268.828,301.588z"
	/>
<path fill="#FFFFFF" d="M1242.939,306.608c0,0.612,0.485,1.112,1.099,1.13h53.753c0.624,0,1.13-0.506,1.13-1.13l0,0
	c-0.017-0.617-0.513-1.113-1.13-1.129h-53.753C1243.426,305.496,1242.939,305.997,1242.939,306.608z"/>
<path fill="#FFFFFF" d="M1297.791,295.438h-53.753c-0.612,0.017-1.099,0.518-1.099,1.129s0.485,1.113,1.099,1.13h53.753
	c0.617-0.018,1.113-0.513,1.13-1.13C1298.921,295.943,1298.415,295.438,1297.791,295.438z"/>
<path fill="#FFFFFF" d="M1242.688,291.609c1.109-0.018,1.994-0.931,1.979-2.04l0,0c0-1.092-0.886-1.977-1.979-1.977
	c-1.097,0-1.99,0.88-2.008,1.977C1240.68,290.684,1241.574,291.592,1242.688,291.609z"/>
<path fill="#FFFFFF" d="M1250,289.569c-0.14,1.118,0.654,2.137,1.771,2.276c1.117,0.14,2.137-0.653,2.275-1.771
	c0.021-0.167,0.021-0.337,0-0.505c-0.14-1.118-1.158-1.911-2.275-1.771C1250.846,287.914,1250.115,288.643,1250,289.569z"/>
<path fill="#FFFFFF" d="M1268.828,289.569c0,1.092,0.885,1.977,1.977,1.977c1.093,0,1.978-0.885,1.978-1.977
	c0-1.092-0.885-1.977-1.978-1.977l0,0C1269.713,287.593,1268.828,288.478,1268.828,289.569z"/>
<path fill="#FFFFFF" d="M1262.552,282.917c-0.14-1.118-1.159-1.911-2.275-1.771c-0.927,0.116-1.656,0.845-1.771,1.771
	c0.14,1.118,1.158,1.911,2.276,1.771C1261.707,284.573,1262.438,283.843,1262.552,282.917z"/>
<path fill="#FFFFFF" d="M1234.688,268.702c0.937,0,1.693-0.759,1.693-1.694c0-0.936-0.758-1.695-1.693-1.695
	c-0.937,0-1.694,0.759-1.694,1.695C1232.992,267.943,1233.751,268.702,1234.688,268.702z"/>
<path fill="#FFFFFF" d="M1241.716,262.144c0.927,0.127,1.782-0.521,1.909-1.448c0.127-0.927-0.521-1.782-1.449-1.909
	c-0.151-0.021-0.307-0.021-0.46,0c-0.927-0.127-1.782,0.521-1.909,1.449c-0.127,0.928,0.521,1.782,1.449,1.909
	C1241.408,262.165,1241.562,262.165,1241.716,262.144z"/>
<path fill="#FFFFFF" d="M1250.848,267.008c-0.018-0.941-0.785-1.695-1.727-1.695c-0.937,0-1.694,0.759-1.694,1.695
	c0,0.936,0.759,1.694,1.694,1.694C1250.062,268.702,1250.83,267.948,1250.848,267.008z"/>
<path fill="#FFFFFF" d="M1253.138,261.014c0.938,0.017,1.708-0.727,1.727-1.663c0.018-0.936-0.728-1.708-1.662-1.726
	c-0.937-0.018-1.709,0.727-1.728,1.663c0,0.01,0,0.021,0,0.031C1251.475,260.243,1252.215,260.997,1253.138,261.014z"/>
<path fill="#FFFFFF" d="M1260.293,256.652c0.927,0.127,1.781-0.521,1.908-1.449c0.127-0.928-0.521-1.782-1.448-1.909
	c-0.153-0.021-0.308-0.021-0.46,0c-0.928-0.127-1.782,0.521-1.909,1.449c-0.127,0.928,0.521,1.782,1.448,1.909
	C1259.985,256.673,1260.14,256.673,1260.293,256.652z"/>
<path fill="#FFFFFF" d="M1268.2,256.088c-0.161,1.499,0.923,2.845,2.422,3.006c1.499,0.161,2.845-0.923,3.007-2.422
	c0.021-0.194,0.021-0.39,0-0.584c0.161-1.5-0.923-2.846-2.422-3.007c-1.5-0.161-2.846,0.923-3.007,2.422
	C1268.18,255.697,1268.18,255.894,1268.2,256.088z"/>
<path fill="#FFFFFF" d="M1270.93,268.043c1.04,0,1.884-0.843,1.885-1.882c0-0.01-0.001-0.021-0.001-0.032
	c0-1.057-0.857-1.914-1.914-1.914c-1.058,0-1.914,0.857-1.914,1.914c0,1.057,0.856,1.914,1.914,1.914
	C1270.909,268.043,1270.92,268.043,1270.93,268.043z"/>
<path fill="#FFFFFF" d="M1270.93,252.604c0.394-2.145,1.715-4.006,3.609-5.083c-1.906-1.081-3.229-2.957-3.609-5.115
	c-0.402,2.146-1.721,4.014-3.607,5.115C1269.199,248.618,1270.514,250.47,1270.93,252.604z"/>
<path fill="#FFFFFF" d="M1238.766,280.344l1.634-2.291c-6.276-9.226,0.345-14.623,9.413-16.6l0.407-0.408
	c-2.015-0.163-4.042-0.046-6.023,0.345c-0.396,1.044-1.396,1.732-2.512,1.726c-0.523,0-1.036-0.153-1.476-0.439
	c-1.256,0.578-2.419,1.339-3.451,2.259c0.557,0.544,0.862,1.293,0.848,2.071c0,1.629-1.32,2.95-2.949,2.95l0,0
	c-0.41-0.005-0.815-0.09-1.192-0.251c-0.703,1.937-0.918,4.017-0.627,6.057C1235.254,276.61,1237.335,278.218,1238.766,280.344z"/>
<path fill="#FFFFFF" d="M1243.504,294.088h54.82c0-0.345-0.221-0.69-0.313-0.973c-1.319-0.403-2.295-1.523-2.511-2.887
	c-0.812-0.415-1.696-0.67-2.604-0.753l0,0c0,1.733-1.405,3.138-3.139,3.138c-1.732,0-3.138-1.405-3.138-3.138l0,0
	c-2.699,0-4.927-0.502-5.491-3.452c-1.213,2.727-4.179,4.223-7.092,3.578c0,1.733-1.405,3.138-3.139,3.138
	c-1.732,0-3.139-1.405-3.139-3.138c-2.916,0.599-5.861-0.88-7.123-3.578c-0.564,2.95-2.793,3.452-5.49,3.452l0,0
	c0,1.733-1.405,3.138-3.14,3.138c-1.731,0-3.138-1.405-3.138-3.138l0,0c-0.907,0.087-1.79,0.342-2.604,0.753
	c-0.104,0.759-0.472,1.458-1.035,1.977c-0.409,0.421-0.916,0.733-1.476,0.91C1243.725,293.398,1243.725,293.743,1243.504,294.088z
	 M1294.057,290.95c0.651,0.017,1.177,0.541,1.192,1.192c0,0.659-0.534,1.192-1.192,1.192c-0.657,0-1.191-0.534-1.191-1.192
	c-0.057-0.654,0.415-1.236,1.066-1.318L1294.057,290.95z M1280.627,290.95c0.656,0.016,1.189,0.536,1.223,1.192
	c0.001,0.659-0.532,1.192-1.19,1.193c-0.011,0-0.021,0-0.031,0c-0.642,0-1.162-0.52-1.162-1.161c0-0.01,0-0.021,0-0.032
	c-0.067-0.655,0.405-1.242,1.062-1.312c0.032-0.003,0.066-0.006,0.102-0.006v0.126H1280.627z M1261.202,290.95
	c0.651,0.017,1.177,0.541,1.192,1.192c0.018,0.641-0.487,1.175-1.13,1.192c-0.021,0-0.042,0-0.062,0
	c-0.658,0.018-1.206-0.502-1.224-1.161c0-0.011,0-0.021,0-0.032c-0.035-0.692,0.498-1.282,1.189-1.316
	c0.011-0.001,0.021-0.001,0.033-0.001L1261.202,290.95L1261.202,290.95z M1247.771,290.95c0.651,0.017,1.177,0.541,1.192,1.192
	c0,0.659-0.534,1.192-1.192,1.192s-1.191-0.534-1.191-1.192c-0.053-0.674,0.451-1.263,1.125-1.314
	c0.021-0.002,0.045-0.003,0.066-0.003V290.95z"/>
<path fill="#FFFFFF" d="M1301.148,289.569c0-1.092-0.886-1.977-1.978-1.977c-1.109-0.018-2.022,0.867-2.04,1.976l0,0
	c0,1.126,0.913,2.04,2.04,2.04l0,0C1300.281,291.592,1301.166,290.679,1301.148,289.569
	C1301.148,289.57,1301.148,289.57,1301.148,289.569z"/>
<path fill="#FFFFFF" d="M1287.655,289.569c-0.141,1.118,0.652,2.137,1.771,2.276c1.118,0.14,2.139-0.653,2.276-1.771
	c0.021-0.167,0.021-0.337,0-0.505c-0.14-1.118-1.158-1.911-2.276-1.771C1288.5,287.914,1287.771,288.643,1287.655,289.569z"/>
<path fill="#FFFFFF" d="M1281.379,284.925c1.109-0.017,1.994-0.93,1.979-2.04c-0.019-1.109-0.932-1.994-2.04-1.977
	c-1.098,0.017-1.978,0.911-1.978,2.008C1279.357,284.031,1280.266,284.925,1281.379,284.925z"/>
<path fill="#FFFFFF" d="M1307.11,268.702c0.937,0,1.693-0.759,1.693-1.694c0-0.936-0.758-1.695-1.693-1.695
	c-0.937,0-1.694,0.759-1.694,1.695C1305.416,267.943,1306.175,268.702,1307.11,268.702z"/>
<path fill="#FFFFFF" d="M1300.207,262.144c0.928,0.127,1.782-0.521,1.909-1.448c0.127-0.927-0.521-1.782-1.449-1.909
	c-0.151-0.021-0.308-0.021-0.46,0c-0.927-0.127-1.781,0.521-1.908,1.449c-0.128,0.927,0.521,1.782,1.448,1.909
	C1299.899,262.165,1300.055,262.165,1300.207,262.144z"/>
<path fill="#FFFFFF" d="M1291.013,267.008c0,0.936,0.759,1.694,1.694,1.694l0,0c0.937,0,1.695-0.759,1.695-1.694
	c0-0.936-0.76-1.695-1.695-1.695S1291.013,266.072,1291.013,267.008L1291.013,267.008z"/>
<path fill="#FFFFFF" d="M1288.597,261.014c0.938,0,1.694-0.759,1.694-1.694c0-0.937-0.758-1.695-1.694-1.695
	c-0.936,0-1.693,0.759-1.693,1.695C1286.902,260.255,1287.661,261.014,1288.597,261.014L1288.597,261.014z"/>
<path fill="#FFFFFF" d="M1281.536,256.652c0.937-0.018,1.681-0.79,1.663-1.726c-0.019-0.936-0.791-1.68-1.728-1.663
	c-0.936,0.017-1.68,0.79-1.662,1.725C1279.828,255.923,1280.6,256.669,1281.536,256.652L1281.536,256.652z"/>
<path fill="#FFFFFF" d="M1308.868,277.269c-2.961,1.231-5.248,3.678-6.276,6.715c0-1.663-0.689-2.573-1.789-2.887
	c0.281,1.909,0.01,3.858-0.783,5.617c0.568,0.188,1.077,0.524,1.476,0.973L1308.868,277.269z"/>
<path fill="#FFFFFF" d="M1301.431,278.053l1.632,2.291c1.425-2.121,3.492-3.728,5.899-4.581c0.306-2.04,0.09-4.123-0.628-6.057
	c-0.387,0.165-0.803,0.25-1.224,0.251c-1.611,0-2.918-1.307-2.918-2.918c0-0.01,0-0.021,0-0.031
	c-0.016-0.778,0.292-1.527,0.847-2.071c-1.026-0.927-2.191-1.689-3.451-2.259c-0.448,0.291-0.973,0.443-1.506,0.439
	c-1.102-0.016-2.082-0.699-2.479-1.726c-1.982-0.392-4.012-0.508-6.024-0.345l0.407,0.408
	C1301.086,263.587,1307.645,268.828,1301.431,278.053z"/>
<path fill="#FFFFFF" d="M1263.588,280.532c2.635,3.452,2.07,5.868,4.896,7.186c0.579-0.772,1.481-1.236,2.446-1.255
	c0.957-0.012,1.854,0.46,2.386,1.255c2.888-1.318,2.291-3.734,4.927-7.186c-1.788-0.251-2.698-0.439-5.24,2.071
	c2.196-6.81-1.349-6.088-2.071-9.069c-0.753,3.138-4.329,2.259-2.102,9.069C1266.286,280.093,1265.407,280.281,1263.588,280.532z"/>
<path fill="#FFFFFF" d="M1239.205,283.984c-1.027-3.037-3.314-5.484-6.275-6.715l7.344,10.418c0.396-0.449,0.904-0.784,1.475-0.973
	c-0.792-1.759-1.064-3.708-0.784-5.617C1239.896,281.411,1239.362,282.415,1239.205,283.984z"/>
<path fill="#FFFFFF" d="M1244.76,280.658c2.637,3.326,2.479,5.68,4.958,6.998c0.543-0.737,1.406-1.168,2.322-1.161
	c0.874-0.007,1.7,0.4,2.228,1.099c1.978-1.381,1.287-3.672,3.139-6.935c-1.537-0.251-2.321-0.439-4.204,2.071
	c1.065-6.778-1.946-5.993-2.887-9.006l0,0c-0.222,3.138-3.452,2.228-0.691,9.006C1247.02,280.218,1246.266,280.407,1244.76,280.658z
	"/>
<path fill="#FFFFFF" d="M1284.518,280.658c1.758,3.138,1.099,5.554,3.139,6.935c0.525-0.698,1.354-1.105,2.228-1.099
	c0.916-0.007,1.779,0.424,2.322,1.161c2.447-1.318,2.322-3.671,4.927-6.998c-1.506-0.251-2.228-0.439-4.707,2.071
	c2.762-6.778-0.471-5.993-0.722-9.006c-0.974,3.138-3.985,2.228-2.918,9.006C1286.871,280.218,1286.055,280.407,1284.518,280.658z"
	/>
<path fill="#FFFFFF" d="M1251.914,267.008c0,1.542-1.25,2.792-2.793,2.792c-0.717,0.007-1.407-0.276-1.914-0.784
	c-0.66,2.507-0.956,5.096-0.879,7.688c0.029,1.061,0.188,2.115,0.471,3.138c0.363,0.129,0.711,0.297,1.036,0.502
	c-0.633-1.812-0.327-3.822,0.815-5.366c0.951-1.102,1.437-2.532,1.35-3.985c0.323,1.485,1.115,2.828,2.26,3.829
	c1.458,1.448,2.186,3.478,1.978,5.521c0.317-0.258,0.68-0.46,1.065-0.596c0-0.753-0.251-1.538-0.406-2.385
	c-2.387-10.575,1.255-20.021,11.326-18.828c0.91,0,2.322,0.533,2.197,1.601l-1.977,17.949c-0.045,0.596-0.045,1.193,0,1.789
	c0.438,0.158,0.851,0.38,1.223,0.659c-0.559-2.019,0.046-4.18,1.569-5.617c0.797-0.847,1.443-1.823,1.913-2.887
	c0.444,1.07,1.084,2.049,1.884,2.887c1.523,1.437,2.128,3.599,1.568,5.617c0.353-0.269,0.744-0.48,1.161-0.627
	c0-0.565,0-1.192,0-1.82l-1.978-17.949c-0.052-0.375,0.104-0.748,0.407-0.973c0.537-0.375,1.168-0.592,1.82-0.628
	c10.072-1.098,13.682,8.347,11.266,18.828c0,0.847-0.252,1.632-0.346,2.354c0.379,0.148,0.729,0.36,1.035,0.627
	c-0.169-2.052,0.577-4.074,2.04-5.521c1.136-1.003,1.917-2.346,2.229-3.829c-0.058,1.401,0.4,2.773,1.286,3.86
	c1.008,1.614,1.159,3.618,0.408,5.366c0.312-0.202,0.649-0.36,1.004-0.471c0.281-1.023,0.439-2.077,0.472-3.138
	c0.077-2.592-0.22-5.181-0.88-7.688c-0.506,0.508-1.195,0.791-1.913,0.784c-1.543,0.002-2.794-1.247-2.796-2.789
	s1.246-2.794,2.789-2.796c0.002,0,0.005,0,0.007,0c-0.572-1.119-1.269-2.171-2.071-3.138c-0.518,0.561-1.245,0.879-2.008,0.878
	c-1.514-0.018-2.73-1.249-2.73-2.761c-0.003-0.548,0.161-1.085,0.471-1.538c-0.944-0.437-1.934-0.773-2.948-1.004
	c-0.493,0.49-1.156,0.771-1.853,0.784c-0.751-0.001-1.464-0.334-1.945-0.91c-1.777,0.244-3.506,0.774-5.114,1.569l-0.564,0.313
	h-0.188l-0.69,0.314h-0.188h-0.221l0,0l0,0h-0.22h-0.282h-0.375c-0.436,0.093-0.885,0.093-1.318,0h-0.753l0,0h-0.784l-1.005-0.439
	l-0.564-0.314c-1.608-0.795-3.337-1.325-5.114-1.569c-0.479,0.58-1.193,0.914-1.945,0.91c-0.688-0.008-1.343-0.291-1.819-0.785
	c-1.021,0.216-2.011,0.553-2.95,1.004c0.286,0.461,0.438,0.994,0.439,1.538c0,1.525-1.236,2.761-2.762,2.761
	c-0.753-0.004-1.471-0.323-1.978-0.878c-0.804,0.966-1.499,2.019-2.071,3.138c1.523-0.058,2.808,1.13,2.865,2.654
	C1251.928,266.769,1251.925,266.888,1251.914,267.008z M1270.93,263.336c1.561-0.035,2.853,1.201,2.888,2.761
	c0.034,1.56-1.201,2.853-2.762,2.886c-1.56,0.034-2.852-1.202-2.887-2.761c-0.001-0.031-0.001-0.062,0-0.093
	C1268.186,264.605,1269.407,263.37,1270.93,263.336z"/>
<path fill="#FFFFFF" d="M1472.261,318.909c-3.333-0.26-6.679,0.322-9.728,1.694c-7.813,3.86-13.744,14.654-18.295,21.715
	c-8.976,14.026-17.887,29.716-29.686,38.283c-2.046,1.521-4.441,2.503-6.966,2.855c-2.071,0-2.573-1.381-2.668-3.609
	c-0.471-12.552,10.136-28.586,17.196-39.066c4.681-6.839,9.783-13.378,15.281-19.58c0.785-0.91,0.689-1.318-0.221-1.318
	c-6.777,0-13.681,3.672-20.396,10.293c-4.929,4.904-9.153,10.47-12.552,16.536c-1.948,2.995-3.647,6.144-5.084,9.414
	c-0.377,0.941-0.815,1.914-1.129,2.887l-0.188,0.22l0,0l-1.099,1.412c-10.448,13.431-17.979,19.487-22.845,21.558
	c-2.729,1.192-6.274,1.663-6.903-2.134c-0.18-2.556,0.33-5.113,1.476-7.405c2.862-5.511,6.201-10.761,9.979-15.689
	c6.81-9.728,13.367-21.433,9.068-29.466c-2.229-4.204-10.48-6.903-14.402-9.226c-5.179-3.138,6.81-10.041,14.653-17.164
	c1.507-1.067,1.13-1.977-1.099-2.636c-16.977-0.785-21.966,12.552-19.863,18.137c-3.984,7.343-8.127,14.749-13.116,22.688
	c-8.504,13.619-19.862,34.235-33.388,42.488c-2.919,1.726-5.806,2.321-7.312-0.502c-2.291-4.394,1.568-13.525,6.275-23.189
	c6.562-13.084,14.07-25.669,22.468-37.655c0.91-1.381,1.538-2.134-1.349-2.071c-9.414,0-17.259,9.728-27.175,25.512
	c-3.703,5.962-7.154,12.552-12.207,19.988c-3.715,6.299-8.566,11.853-14.31,16.38c-2.056,1.503-4.446,2.483-6.966,2.855
	c-4.959,0.22-2.823-8.284-0.471-14.968c7.306-17.174,17.411-33.016,29.904-46.881c1.726-1.852,0.377-1.789-1.192-1.663
	c-6.275,0.471-12.771,4.048-19.079,10.229c-4.91,4.921-9.133,10.484-12.552,16.537c-2.568,3.928-4.675,8.14-6.276,12.552
	c-8.974,12.552-16.756,20.208-22.311,22.217c-8.911,3.138-10.512-3.577-9.414-11.924c1.491-9.939,5.571-19.312,11.831-27.175
	c8.692-11.517,17.102-18.828,27.99-16.506c1.035,0.22,2.134,0.722,1.099-1.412c-3.608-7.468-15.062-12.771-34.518,19.737
	c11.893-19.611-4.582-36.745-21.119-17.666c-6.936,8.002-12.08,17.604-17.823,26.453c-5.968,9.864-13.252,18.869-21.65,26.767
	c-3.673,3.138-8.599,6.056-10.7,2.039c-2.103-4.017,1.567-13.524,6.274-23.189c6.463-12.73,13.804-24.999,21.967-36.714
	c1.977-2.793,1.411-2.98-1.443-2.855c-9.132,0.628-16.819,10.073-26.484,25.48c-3.703,5.962-7.123,12.552-12.207,19.988
	c-3.715,6.299-8.565,11.853-14.309,16.38c-2.057,1.504-4.447,2.483-6.967,2.856c-2.009,0-2.855-1.256-3.139-3.358
	c-0.471-7.028,3.86-14.779,6.903-20.93c6.582-13.354,14.954-25.748,24.885-36.84c1.914-2.228,1.476-2.541-0.564-2.385
	c-7.269,1.126-13.909,4.769-18.766,10.293c-7.891,7.878-14.141,17.242-18.389,27.551c-1.287,3.417-2.202,6.962-2.729,10.575
	c-1.286,11.955,4.361,19.455,11.392,18.576c7.028-0.879,13.649-6.777,24.192-19.581c-1.16,17.008,7.029,25.731,21.088,14.687
	c9.414-7.28,17.887-18.828,25.104-29.466c4.174-6.275,8.033-12.709,12.552-18.827c4.833-6.621,11.61-13.964,15.69-9.665
	c1.429,1.992,2.107,4.427,1.914,6.872c0,12.552-13.181,33.921-25.104,44.37c-3.532,3.229-8.255,4.833-13.022,4.425
	c-2.742-0.482-5.371-1.472-7.75-2.919c-0.723-0.407-0.754,0.471-0.659,1.005c0.462,2.673,1.919,5.072,4.079,6.715
	c1.535,1.28,3.391,2.115,5.365,2.416c9.413,0.973,20.021-12.991,27.521-24.444c-5.397,19.33,2.04,25.104,10.042,25.104
	c6.275,0,15.972-7.594,27.018-19.55c-1.442,12.145,4.269,19.801,11.359,18.828s13.649-6.778,24.193-19.581
	c-1.067,15.22,5.396,23.817,16.851,17.51c14.246-7.845,26.327-26.892,35.427-40.511c5.271-7.812,9.879-16.053,13.776-24.633
	c3.138,1.852,6.274,3.138,8.724,4.613c3.139,1.6,3.357,2.824,1.694,6.275c-0.915,1.792-1.964,3.513-3.138,5.146
	c-3.14,4.487-6.652,8.535-9.697,12.991c-3.23,4.424-5.652,9.386-7.154,14.654c-1.852,7.123-2.039,15.878,3.139,20.679
	c3.237,3.071,7.961,3.988,12.112,2.354c7.656-3.138,14.748-13.054,20.396-17.918h0.251c-1.225,11.83,4.425,19.268,11.422,18.389
	c6.998-0.879,14.152-6.872,24.695-19.675c0,0.471-0.564,1.035-0.597,1.506c-13.104,23.673-28.089,46.256-44.81,67.528
	c-30.124,37.437-60.029,53.785-104.996,70.196c-3.516,1.286-7.092,2.479-10.7,3.608c-29.309,7.404-62.759,10.825-85.76,1.191
	c-25.574-10.763-44.308-48.45,1.914-46.786c28.491,1.004,63.637,9.257,92.475,13.712c15,2.322,62.163,6.276,55.166-17.761
	c-0.696-1.785-1.767-3.399-3.139-4.738c-3.892-3.891-3.39-1.065-2.322,1.036c3.797,11.924-7.248,23.723-54.475,17.762
	c-25.104-3.139-88.992-24.57-111.585-15.22c-31.381,13.021,1.285,47.353,23.001,55.729c23.784,9.163,59.433,7.437,90.844-0.879l0,0
	l4.299-1.317c46.222-15.251,81.743-36.463,112.966-73.209c19.895-23.36,37.19-48.812,51.588-75.906
	c2.322-4.487,4.834-8.881,7.25-13.305c5.44-10.351,11.739-20.228,18.826-29.528C1473.107,319.631,1473.704,319.098,1472.261,318.909
	z"/>
<path fill="#FFFFFF" d="M1152.189,399.491c-26.326,21.37-43.396-0.502-94.326-8.566c32.353-14.937,46.817-41.546,65.396-78.825
	c11.233-22.53,23.377-53.815,44.15-67.591c6.421-3.871,13.897-5.617,21.369-4.99c13.241,0.314,19.393,5.774,28.241,14.905
	c3.326,3.389,3.828,0.283,1.476-2.228c-1.317-1.475-2.322-3.138-3.577-4.361c-6.559-6.527-10.262-10.512-22.154-11.861
	c-44.902-5.052-68.281,43.021-84.159,74.494c-7.218,14.278-13.085,26.704-19.204,37.655c-9.414,17.291-19.707,31.066-37.654,40.794
	c-2.322-0.69-6.276-1.569-8.976-2.103c-16.537-3.515-44.998-7.249-42.833,1.035c3.139,12.207,40.793,6.025,53.346,4.707
	c13.994,3.326,53.03,26.453,79.483,24.132c7.789-0.672,14.875-4.777,19.329-11.202
	C1153.132,403.885,1156.427,396.009,1152.189,399.491z"/>
<path fill="#FFFFFF" d="M1087.611,424.376h297.319v0.722h-297.319V424.376L1087.611,424.376z M1412.545,424.376h22.594v0.722
	h-22.594V424.376z"/>
<path fill="#FFFFFF" d="M1110.863,616.543c-0.428-0.501-0.368-1.253,0.133-1.681c0.02-0.017,0.037-0.03,0.056-0.045
	c1.945,0,5.179,0.22,7.374,0.22c2.197,0,5.681,0,8.159-0.22c0.659,0.22,0.597,1.224,0,1.726l-1.632,0.157
	c-1.506,0-2.385,0.563-2.385,1.192c0.994,3.346,2.297,6.592,3.891,9.695c4.018,8.943,8.223,17.886,12.396,26.704
	c1.694-3.577,3.641-7.594,5.491-11.61c0.509-0.921,0.897-1.9,1.161-2.919c-0.091-0.646-0.292-1.272-0.597-1.851
	c-2.479-5.743-5.146-11.454-7.876-17.196c-1.067-2.229-2.134-3.733-4.581-3.923l-1.695-0.156c-0.477-0.402-0.535-1.115-0.134-1.592
	c0.041-0.049,0.086-0.094,0.134-0.135c2.071,0,4.803,0.22,7.657,0.22c3.577,0,6.275,0,7.876-0.22c0.502,0.22,0.596,1.161,0,1.727
	l-1.852,0.156c-2.793,0.188-2.888,0.69-1.506,3.923c1.381,3.233,3.481,8.033,5.49,12.552c1.381-2.793,2.667-5.521,4.236-9.414
	c2.573-6.086,2.228-6.871,0-6.996l-2.165-0.157c-0.502-0.722-0.346-1.506,0-1.727c1.914,0,4.079,0.221,6.715,0.221
	s5.24,0,6.872-0.221c0.502,0.221,0.564,1.161,0,1.727l-2.071,0.157c-3.138,0.188-4.299,3.42-5.867,6.274
	c-1.568,2.855-4.52,8.881-5.586,11.359c-0.313,0.535-0.537,1.118-0.659,1.726c0.081,0.599,0.25,1.18,0.502,1.728
	c2.448,5.491,4.928,10.889,7.312,16.316c2.197-5.021,4.362-10.011,6.433-15.094c1.444-3.452,5.241-12.96,5.743-14.246
	c0.873-2.119,1.587-4.301,2.134-6.526c0-1.004-0.848-1.568-2.354-1.633l-2.071-0.155c-0.596-0.659-0.502-1.444,0-1.728
	c2.698,0,4.646,0.221,6.872,0.221s4.801,0,6.652-0.221c0.564,0.221,0.628,1.161,0.156,1.728l-1.381,0.155
	c-3.577,0.347-4.205,2.479-8.504,12.553l-5.24,12.08c-3.138,7.312-5.993,14.311-8.942,21.967c-0.252,0.161-0.549,0.238-0.849,0.22
	c-0.348,0.013-0.691-0.063-1.004-0.22c-2.29-6.275-6.464-15.313-8.66-20.303c-3.322,6.611-6.308,13.389-8.942,20.303
	c-0.264,0.164-0.57,0.24-0.879,0.22c-0.367,0.003-0.73-0.072-1.066-0.22c-1.224-2.98-4.017-9.414-4.927-11.517
	c-4.581-9.947-9.037-19.896-13.683-29.843c-1.349-2.949-2.228-4.863-5.239-5.146L1110.863,616.543z"/>
<path fill="#FFFFFF" d="M1190.725,625.926c0-7.594,0-8.816-4.361-9.163l-1.788-0.155c-0.439-0.283-0.314-1.569,0-1.789
	c3.577,0,6.023,0.22,9.037,0.22c3.012,0,5.271,0,8.849-0.22c0.439,0.22,0.597,1.506,0,1.789l-1.788,0.155
	c-4.235,0.347-4.362,1.569-4.362,9.163v25.48c0,7.594,0,8.598,4.362,9.1l1.788,0.22c0.439,0.282,0.282,1.569,0,1.788
	c-3.577,0-5.993-0.219-8.849-0.219c-2.856,0-5.46,0-9.037,0.219c-0.438-0.516-0.438-1.271,0-1.788l1.788-0.22
	c4.205-0.502,4.361-1.506,4.361-9.1V625.926z"/>
<path fill="#FFFFFF" d="M1255.209,650.119c0,2.134,0,10.669,0.22,12.552c-0.232,0.541-0.797,0.86-1.381,0.784
	c-0.847-1.225-2.918-3.702-9.163-10.794l-16.6-18.828c-1.945-2.228-6.809-8.096-8.315-9.665l0,0
	c-0.327,1.525-0.454,3.087-0.376,4.645v15.689c0,3.357,0,12.552,1.317,14.812c0.408,0.783,1.853,1.224,3.64,1.381l2.229,0.22
	c0.452,0.51,0.452,1.277,0,1.788c-3.138,0-5.711-0.22-8.379-0.22c-2.667,0-4.927,0-7.438,0.22c-0.452-0.511-0.452-1.278,0-1.788
	l1.945-0.22c1.632-0.221,2.793-0.659,3.138-1.443c0.842-4.868,1.156-9.812,0.941-14.749v-20.679c0.242-1.861-0.33-3.736-1.568-5.146
	c-1.27-1.023-2.827-1.628-4.456-1.726l-1.757-0.345c-0.494-0.487-0.5-1.281-0.014-1.775c0.004-0.005,0.009-0.009,0.014-0.014
	c3.138,0.22,6.809,0.22,8.096,0.22c1.051,0.004,2.1-0.07,3.139-0.22c1.411,3.671,9.885,13.115,12.237,15.688l6.936,7.813
	c4.958,5.49,8.44,9.414,11.83,12.96l0,0c0.317-1.015,0.413-2.084,0.281-3.138v-15.313c0-3.389,0-12.552-1.411-14.812
	c-0.438-0.658-1.602-1.099-4.457-1.443l-1.223-0.156c-0.457-0.476-0.441-1.229,0.034-1.687c0.038-0.037,0.079-0.071,0.122-0.104
	c3.138,0,5.742,0.22,8.441,0.22c2.697,0,4.957,0,7.373-0.22c0.482,0.499,0.482,1.29,0,1.789l-1.005,0.156
	c-2.29,0.346-3.732,0.94-4.016,1.507c-1.225,2.573-1.067,11.453-1.067,14.748L1255.209,650.119z"/>
<path fill="#FFFFFF" d="M1313.041,650.119c0,2.134,0,10.669,0.188,12.552c0,0.439-0.563,0.784-1.349,0.784
	c-0.848-1.225-2.95-3.702-9.163-10.794l-16.601-18.828c-1.945-2.228-6.81-8.096-8.314-9.665l0,0
	c-0.344,1.523-0.471,3.087-0.377,4.645v15.689c0,3.357,0,12.552,1.286,14.812c0.439,0.783,1.883,1.224,3.672,1.381l2.196,0.22
	c0.482,0.498,0.482,1.29,0,1.788c-3.138,0-5.742-0.22-8.378-0.22s-4.958,0-7.438,0.22c-0.514-0.463-0.582-1.243-0.157-1.788
	l1.946-0.22c1.632-0.221,2.791-0.659,3.138-1.443c0.841-4.868,1.155-9.812,0.94-14.749v-20.679c0.232-1.866-0.351-3.741-1.601-5.146
	c-1.255-1.028-2.804-1.634-4.425-1.726l-1.224-0.157c-0.407-0.407-0.407-1.506,0.156-1.788c3.138,0.22,6.811,0.22,8.096,0.22
	c1.052,0.004,2.101-0.069,3.14-0.22c1.412,3.671,9.853,13.116,12.236,15.689l6.936,7.812c4.927,5.491,8.441,9.414,11.799,12.96l0,0
	c0.318-1.014,0.415-2.084,0.283-3.139v-15.312c0-3.389,0-12.552-1.443-14.812c-0.408-0.659-1.568-1.098-4.425-1.443l-1.224-0.156
	c-0.502-0.407-0.439-1.568,0-1.788c3.138,0,5.711,0.22,8.439,0.22c2.73,0,4.927,0,7.374-0.22c0.494,0.485,0.5,1.281,0.015,1.773
	c-0.005,0.005-0.01,0.01-0.015,0.014l-1.004,0.157c-2.291,0.347-3.703,0.941-3.985,1.507c-1.224,2.572-1.065,11.453-1.065,14.748
	L1313.041,650.119z"/>
<path fill="#FFFFFF" d="M1332.34,625.77c0-7.438,0-8.505-4.361-9.007l-1.161-0.155c-0.427-0.521-0.427-1.27,0-1.789
	c3.139,0,5.491,0.22,8.44,0.22h13.462c3.225,0.092,6.449,0.019,9.665-0.22c0.551,3.113,0.928,6.257,1.129,9.414
	c-0.52,0.426-1.268,0.426-1.787,0c-1.067-3.358-1.694-5.868-5.43-6.778c-2.289-0.394-4.613-0.539-6.935-0.439h-5.178
	c-2.135,0-2.135,0-2.135,2.855v14.31c0,2.008,0.221,2.008,2.354,2.008h4.174c2.027,0.093,4.059-0.045,6.056-0.406
	c0.88-0.314,1.382-0.724,1.727-2.512l0.564-2.949c0.376-0.407,1.601-0.407,1.884,0c0,1.727-0.282,4.52-0.282,7.249
	c0,2.729,0.282,5.303,0.282,6.872c-0.282,0.502-1.508,0.502-1.884,0l-0.628-2.793c-0.113-1.28-0.996-2.362-2.228-2.729
	c-1.812-0.322-3.654-0.438-5.491-0.346h-4.174c-2.135,0-2.354,0-2.354,1.945v10.072c0,3.797,0.22,6.276,1.351,7.469
	c1.129,1.192,2.385,1.632,8.66,1.632c3.096,0.327,6.226-0.036,9.162-1.066c2.229-1.868,3.974-4.247,5.084-6.936
	c0.625-0.357,1.422-0.147,1.788,0.472c-0.776,3.403-1.827,6.741-3.138,9.979c-6.464,0-12.835-0.22-19.204-0.22h-6.276
	c-3.138,0-5.521,0-9.728,0.22c-0.486-0.477-0.553-1.234-0.157-1.789l2.354-0.22c4.079-0.376,4.456-1.443,4.456-8.943L1332.34,625.77
	z"/>
<path fill="#FFFFFF" d="M1375.926,625.863c0-6.811-0.22-8.033-3.138-8.379l-2.291-0.282c-0.494-0.437-0.541-1.189-0.104-1.683
	c0.031-0.039,0.067-0.073,0.104-0.105c3.985-0.377,8.942-0.597,15.94-0.597c4.102-0.259,8.205,0.482,11.955,2.165
	c3.801,1.854,6.142,5.784,5.963,10.01c-0.241,5.454-3.806,10.202-8.976,11.956c-0.346,0.438,0,1.161,0.377,1.726
	c5.712,9.227,9.414,14.969,14.371,19.048c1.397,1.175,3.138,1.867,4.958,1.978c0.277,0.208,0.334,0.602,0.126,0.879
	c-0.036,0.048-0.078,0.09-0.126,0.125c-1.021,0.28-2.079,0.407-3.138,0.377c-6.088,0-9.759-1.789-14.843-9.037
	c-1.852-2.636-4.771-7.562-6.998-10.795c-1.092-1.701-3.084-2.599-5.084-2.291c-3.137,0-3.356,0-3.356,1.569v9.036
	c0,7.5,0,8.349,4.299,8.943l1.507,0.22c0.426,0.521,0.426,1.27,0,1.789c-3.138,0-5.647-0.22-8.504-0.22c-2.855,0-5.586,0-8.975,0.22
	c-0.438-0.516-0.438-1.272,0-1.789l1.787-0.22c4.144-0.502,4.3-1.443,4.3-8.943L1375.926,625.863z M1381.794,636.093
	c-0.101,0.791-0.024,1.595,0.22,2.354c0.188,0.22,1.286,0.345,4.926,0.345c2.599,0.223,5.197-0.405,7.406-1.788
	c2.585-2.188,3.924-5.512,3.577-8.881c0.282-5.816-4.204-10.76-10.021-11.042c-0.479-0.023-0.957-0.014-1.435,0.028
	c-4.424,0-4.644,0.281-4.644,2.289L1381.794,636.093z"/>
<path fill="#FFFFFF" d="M1209.929,725.523c2.362,0.274,4.747-0.279,6.746-1.568c0.94-0.832,1.718-1.833,2.291-2.949
	c0.563-0.19,1.188-0.017,1.569,0.438c-0.62,3.044-1.678,5.981-3.14,8.724c-2.918,0-5.931-0.188-9.226-0.188h-10.543
	c-4.017,0-6.276,0-7.939,0.188c-0.328-0.181-0.523-0.535-0.502-0.91c0-0.22,0.347-0.502,0.784-0.783
	c4.072-2.966,7.752-6.435,10.952-10.323c4.738-5.084,10.229-12.02,10.229-19.677c0-6.525-3.138-10.448-8.943-10.448
	c-4.317,0.2-8.063,3.048-9.414,7.153c-0.56,0.313-1.267,0.114-1.58-0.444c-0.085-0.152-0.135-0.321-0.146-0.496
	c2.111-6.179,7.97-10.285,14.497-10.166c6.122-0.407,11.414,4.227,11.819,10.348c0.028,0.431,0.031,0.862,0.011,1.294
	c0,4.456-2.07,9.413-7.656,15.689l-4.394,5.021c-5.868,6.716-6.495,7.876-6.495,8.315s0.346,0.628,2.228,0.628L1209.929,725.523z"/>
<path fill="#FFFFFF" d="M1255.805,707.575c0,11.232-4.36,23.378-14.811,23.378s-14.812-12.146-14.812-23.378
	c0-11.234,4.361-23.503,14.812-23.503S1255.805,696.623,1255.805,707.575z M1232.553,707.575c0,6.715,0.565,21.244,8.441,21.244
	s8.441-14.529,8.441-21.244c0-6.716-0.565-21.275-8.441-21.275S1232.553,700.828,1232.553,707.575z"/>
<path fill="#FFFFFF" d="M1275.794,725.523c3.692,0.811,7.448-1.073,9.006-4.519c0.563-0.19,1.188-0.017,1.569,0.438
	c-0.592,3.053-1.65,5.994-3.14,8.724c-2.918,0-5.931-0.188-9.225-0.188h-10.544c-3.985,0-6.276,0-7.939,0.188
	c-0.328-0.181-0.523-0.535-0.502-0.91c0-0.22,0.347-0.502,0.784-0.784c4.072-2.965,7.752-6.434,10.952-10.322
	c4.738-5.084,10.229-12.02,10.229-19.677c0-6.525-3.138-10.448-8.943-10.448c-4.317,0.201-8.063,3.048-9.414,7.153
	c-0.559,0.313-1.267,0.114-1.58-0.444c-0.085-0.152-0.135-0.321-0.146-0.496c2.112-6.178,7.97-10.285,14.497-10.166
	c6.122-0.407,11.414,4.227,11.819,10.348c0.028,0.432,0.031,0.862,0.011,1.294c0,4.456-2.07,9.413-7.656,15.689l-4.361,5.021
	c-5.868,6.717-6.526,7.876-6.526,8.315c0,0.438,0.346,0.628,2.229,0.628L1275.794,725.523z"/>
<path fill="#FFFFFF" d="M1304.694,696.906c0-4.864-0.221-6.465-3.452-6.747l-3.42-0.282c-0.435-0.287-0.553-0.871-0.265-1.305
	c0.069-0.104,0.159-0.194,0.265-0.266c4.165-0.653,8.168-2.092,11.799-4.234c0.281-0.008,0.551,0.12,0.722,0.345
	c0,1.286-0.282,4.864-0.282,8.943v27.771c0,5.522,0,6.747,3.139,6.967l3.138,0.188c0.408,0.438,0.346,1.601,0,1.789
	c-2.793,0-6.024-0.188-8.504-0.188s-5.806,0-8.599,0.188c-0.502-0.188-0.563-1.351,0-1.789l2.949-0.188
	c3.139-0.22,3.139-1.443,3.139-6.967L1304.694,696.906z"/>
</svg>
