<?xml version="1.0" encoding="utf-8"?>
<!-- Generator: Adobe Illustrator 16.0.0, SVG Export Plug-In . SVG Version: 6.00 Build 0)  -->
<!DOCTYPE svg PUBLIC "-//W3C//DTD SVG 1.1//EN" "http://www.w3.org/Graphics/SVG/1.1/DTD/svg11.dtd">
<svg version="1.1" id="Layer_1" xmlns="http://www.w3.org/2000/svg" xmlns:xlink="http://www.w3.org/1999/xlink" x="0px" y="0px"
	 width="1500px" height="800px" viewBox="0 0 1500 800" enable-background="new 0 0 1500 800" xml:space="preserve">
<g>
	<g>
		<path fill="#FFFFFF" d="M350,400c0,220.567,179.433,400,400,400s400-179.433,400-400S970.567,0,750,0S350,179.433,350,400z
			 M626.433,376.435L793.1,209.767c13.033-13.033,34.101-13.033,47.133,0c13.033,13.033,13.033,34.1,0,47.133L697.133,400
			l143.102,143.1c13.033,13.033,13.033,34.101,0,47.133c-6.5,6.5-15.034,9.768-23.567,9.768c-8.534,0-17.067-3.268-23.567-9.768
			L626.433,423.567C613.4,410.533,613.4,389.467,626.433,376.435z"/>
	</g>
</g>
</svg>
