<?xml version="1.0" encoding="utf-8"?>
<!-- Generator: Adobe Illustrator 16.0.0, SVG Export Plug-In . SVG Version: 6.00 Build 0)  -->
<!DOCTYPE svg PUBLIC "-//W3C//DTD SVG 1.1//EN" "http://www.w3.org/Graphics/SVG/1.1/DTD/svg11.dtd">
<svg version="1.1" id="Layer_1" xmlns="http://www.w3.org/2000/svg" xmlns:xlink="http://www.w3.org/1999/xlink" x="0px" y="0px"
	 width="1500px" height="800px" viewBox="0 0 1500 800" enable-background="new 0 0 1500 800" xml:space="preserve">
<g>
	<g>
		<path fill="#FFFFFF" d="M750,0C529.433,0,350,179.433,350,400s179.433,400,400,400s400-179.433,400-400S970.567,0,750,0z
			 M873.567,423.567L706.9,590.232c-6.5,6.5-15.033,9.768-23.567,9.768c-8.533,0-17.067-3.268-23.567-9.768
			c-13.033-13.032-13.033-34.1,0-47.133L802.867,400l-143.1-143.1c-13.033-13.033-13.033-34.1,0-47.133
			c13.032-13.033,34.1-13.033,47.133,0l166.667,166.667C886.6,389.467,886.6,410.533,873.567,423.567z"/>
	</g>
</g>
</svg>
